<svg width="695" height="453" viewBox="0 0 695 453" fill="none" xmlns="http://www.w3.org/2000/svg">
<g filter="url(#filter0_i_29_139)">
<rect width="695" height="453" rx="8" fill="#F5F5F5"/>
<g filter="url(#filter1_d_29_139)">
<rect x="17" y="20" width="665" height="65" rx="8" fill="url(#paint0_linear_29_139)" shape-rendering="crispEdges"/>
<path d="M43.56 45.06V55.36C43.56 56.5067 43.2067 57.4267 42.5 58.12C41.7933 58.8 40.86 59.14 39.7 59.14C38.5267 59.14 37.5867 58.7933 36.88 58.1C36.1733 57.3933 35.82 56.4333 35.82 55.22H37.64C37.6533 55.9 37.8267 56.4533 38.16 56.88C38.5067 57.3067 39.02 57.52 39.7 57.52C40.38 57.52 40.8867 57.32 41.22 56.92C41.5533 56.5067 41.72 55.9867 41.72 55.36V45.06H43.56ZM51.9255 59.18C50.8988 59.18 49.9655 58.9467 49.1255 58.48C48.2988 58.0133 47.6455 57.3533 47.1655 56.5C46.6988 55.6333 46.4655 54.6333 46.4655 53.5C46.4655 52.38 46.7055 51.3933 47.1855 50.54C47.6788 49.6733 48.3455 49.0133 49.1855 48.56C50.0255 48.0933 50.9655 47.86 52.0055 47.86C53.0455 47.86 53.9855 48.0933 54.8255 48.56C55.6655 49.0133 56.3255 49.6667 56.8055 50.52C57.2988 51.3733 57.5455 52.3667 57.5455 53.5C57.5455 54.6333 57.2921 55.6333 56.7855 56.5C56.2921 57.3533 55.6188 58.0133 54.7655 58.48C53.9121 58.9467 52.9655 59.18 51.9255 59.18ZM51.9255 57.58C52.5788 57.58 53.1921 57.4267 53.7655 57.12C54.3388 56.8133 54.7988 56.3533 55.1455 55.74C55.5055 55.1267 55.6855 54.38 55.6855 53.5C55.6855 52.62 55.5121 51.8733 55.1655 51.26C54.8188 50.6467 54.3655 50.1933 53.8055 49.9C53.2455 49.5933 52.6388 49.44 51.9855 49.44C51.3188 49.44 50.7055 49.5933 50.1455 49.9C49.5988 50.1933 49.1588 50.6467 48.8255 51.26C48.4921 51.8733 48.3255 52.62 48.3255 53.5C48.3255 54.3933 48.4855 55.1467 48.8055 55.76C49.1388 56.3733 49.5788 56.8333 50.1255 57.14C50.6721 57.4333 51.2721 57.58 51.9255 57.58ZM65.3784 47.84C66.2051 47.84 66.9518 48.02 67.6184 48.38C68.2851 48.7267 68.8051 49.2533 69.1784 49.96C69.5651 50.6667 69.7584 51.5267 69.7584 52.54V59H67.9584V52.8C67.9584 51.7067 67.6851 50.8733 67.1384 50.3C66.5918 49.7133 65.8451 49.42 64.8984 49.42C63.9384 49.42 63.1718 49.72 62.5984 50.32C62.0384 50.92 61.7584 51.7933 61.7584 52.94V59H59.9384V44.2H61.7584V49.6C62.1184 49.04 62.6118 48.6067 63.2384 48.3C63.8784 47.9933 64.5918 47.84 65.3784 47.84ZM78.0714 47.84C79.4047 47.84 80.4847 48.2467 81.3114 49.06C82.1381 49.86 82.5514 51.02 82.5514 52.54V59H80.7514V52.8C80.7514 51.7067 80.4781 50.8733 79.9314 50.3C79.3847 49.7133 78.6381 49.42 77.6914 49.42C76.7314 49.42 75.9647 49.72 75.3914 50.32C74.8314 50.92 74.5514 51.7933 74.5514 52.94V59H72.7314V48.04H74.5514V49.6C74.9114 49.04 75.3981 48.6067 76.0114 48.3C76.6381 47.9933 77.3247 47.84 78.0714 47.84ZM95.1964 45.06C96.7164 45.06 98.0297 45.3467 99.1364 45.92C100.256 46.48 101.11 47.2867 101.696 48.34C102.296 49.3933 102.596 50.6333 102.596 52.06C102.596 53.4867 102.296 54.7267 101.696 55.78C101.11 56.82 100.256 57.62 99.1364 58.18C98.0297 58.7267 96.7164 59 95.1964 59H90.8564V45.06H95.1964ZM95.1964 57.5C96.9964 57.5 98.3697 57.0267 99.3164 56.08C100.263 55.12 100.736 53.78 100.736 52.06C100.736 50.3267 100.256 48.9733 99.2964 48C98.3497 47.0267 96.9831 46.54 95.1964 46.54H92.6764V57.5H95.1964ZM109.777 59.18C108.75 59.18 107.817 58.9467 106.977 58.48C106.15 58.0133 105.497 57.3533 105.017 56.5C104.55 55.6333 104.317 54.6333 104.317 53.5C104.317 52.38 104.557 51.3933 105.037 50.54C105.53 49.6733 106.197 49.0133 107.037 48.56C107.877 48.0933 108.817 47.86 109.857 47.86C110.897 47.86 111.837 48.0933 112.677 48.56C113.517 49.0133 114.177 49.6667 114.657 50.52C115.15 51.3733 115.397 52.3667 115.397 53.5C115.397 54.6333 115.144 55.6333 114.637 56.5C114.144 57.3533 113.47 58.0133 112.617 58.48C111.764 58.9467 110.817 59.18 109.777 59.18ZM109.777 57.58C110.43 57.58 111.044 57.4267 111.617 57.12C112.19 56.8133 112.65 56.3533 112.997 55.74C113.357 55.1267 113.537 54.38 113.537 53.5C113.537 52.62 113.364 51.8733 113.017 51.26C112.67 50.6467 112.217 50.1933 111.657 49.9C111.097 49.5933 110.49 49.44 109.837 49.44C109.17 49.44 108.557 49.5933 107.997 49.9C107.45 50.1933 107.01 50.6467 106.677 51.26C106.344 51.8733 106.177 52.62 106.177 53.5C106.177 54.3933 106.337 55.1467 106.657 55.76C106.99 56.3733 107.43 56.8333 107.977 57.14C108.524 57.4333 109.124 57.58 109.777 57.58ZM127.79 53.1C127.79 53.4467 127.77 53.8133 127.73 54.2H118.97C119.037 55.28 119.403 56.1267 120.07 56.74C120.75 57.34 121.57 57.64 122.53 57.64C123.317 57.64 123.97 57.46 124.49 57.1C125.023 56.7267 125.397 56.2333 125.61 55.62H127.57C127.277 56.6733 126.69 57.5333 125.81 58.2C124.93 58.8533 123.837 59.18 122.53 59.18C121.49 59.18 120.557 58.9467 119.73 58.48C118.917 58.0133 118.277 57.3533 117.81 56.5C117.343 55.6333 117.11 54.6333 117.11 53.5C117.11 52.3667 117.337 51.3733 117.79 50.52C118.243 49.6667 118.877 49.0133 119.69 48.56C120.517 48.0933 121.463 47.86 122.53 47.86C123.57 47.86 124.49 48.0867 125.29 48.54C126.09 48.9933 126.703 49.62 127.13 50.42C127.57 51.2067 127.79 52.1 127.79 53.1ZM125.91 52.72C125.91 52.0267 125.757 51.4333 125.45 50.94C125.143 50.4333 124.723 50.0533 124.19 49.8C123.67 49.5333 123.09 49.4 122.45 49.4C121.53 49.4 120.743 49.6933 120.09 50.28C119.45 50.8667 119.083 51.68 118.99 52.72H125.91Z" fill="black"/>
<path d="M629.88 51.48C629.133 51.1867 628.56 50.76 628.16 50.2C627.76 49.64 627.56 48.96 627.56 48.16C627.56 47.44 627.74 46.7933 628.1 46.22C628.46 45.6333 628.993 45.1733 629.7 44.84C630.42 44.4933 631.287 44.32 632.3 44.32C633.313 44.32 634.173 44.4933 634.88 44.84C635.6 45.1733 636.14 45.6333 636.5 46.22C636.873 46.7933 637.06 47.44 637.06 48.16C637.06 48.9333 636.853 49.6133 636.44 50.2C636.027 50.7733 635.46 51.2 634.74 51.48C635.567 51.7333 636.22 52.18 636.7 52.82C637.193 53.4467 637.44 54.2067 637.44 55.1C637.44 55.9667 637.227 56.7267 636.8 57.38C636.373 58.02 635.767 58.52 634.98 58.88C634.207 59.2267 633.313 59.4 632.3 59.4C631.287 59.4 630.393 59.2267 629.62 58.88C628.86 58.52 628.267 58.02 627.84 57.38C627.413 56.7267 627.2 55.9667 627.2 55.1C627.2 54.2067 627.44 53.44 627.92 52.8C628.4 52.16 629.053 51.72 629.88 51.48ZM635.3 48.38C635.3 47.5667 635.033 46.94 634.5 46.5C633.967 46.06 633.233 45.84 632.3 45.84C631.38 45.84 630.653 46.06 630.12 46.5C629.587 46.94 629.32 47.5733 629.32 48.4C629.32 49.1467 629.593 49.7467 630.14 50.2C630.7 50.6533 631.42 50.88 632.3 50.88C633.193 50.88 633.913 50.6533 634.46 50.2C635.02 49.7333 635.3 49.1267 635.3 48.38ZM632.3 52.28C631.313 52.28 630.507 52.5133 629.88 52.98C629.253 53.4333 628.94 54.12 628.94 55.04C628.94 55.8933 629.24 56.58 629.84 57.1C630.453 57.62 631.273 57.88 632.3 57.88C633.327 57.88 634.14 57.62 634.74 57.1C635.34 56.58 635.64 55.8933 635.64 55.04C635.64 54.1467 635.333 53.4667 634.72 53C634.107 52.52 633.3 52.28 632.3 52.28ZM648.757 45.96L643.197 59H641.357L646.997 46.14H639.277V44.58H648.757V45.96Z" fill="black"/>
</g>
<g filter="url(#filter2_d_29_139)">
<rect x="17" y="123" width="665" height="65" rx="8" fill="url(#paint1_linear_29_139)" shape-rendering="crispEdges"/>
<path d="M43.56 148.06V158.36C43.56 159.507 43.2067 160.427 42.5 161.12C41.7933 161.8 40.86 162.14 39.7 162.14C38.5267 162.14 37.5867 161.793 36.88 161.1C36.1733 160.393 35.82 159.433 35.82 158.22H37.64C37.6533 158.9 37.8267 159.453 38.16 159.88C38.5067 160.307 39.02 160.52 39.7 160.52C40.38 160.52 40.8867 160.32 41.22 159.92C41.5533 159.507 41.72 158.987 41.72 158.36V148.06H43.56ZM48.0855 149.26C47.7388 149.26 47.4455 149.14 47.2055 148.9C46.9655 148.66 46.8455 148.367 46.8455 148.02C46.8455 147.673 46.9655 147.38 47.2055 147.14C47.4455 146.9 47.7388 146.78 48.0855 146.78C48.4188 146.78 48.6988 146.9 48.9255 147.14C49.1655 147.38 49.2855 147.673 49.2855 148.02C49.2855 148.367 49.1655 148.66 48.9255 148.9C48.6988 149.14 48.4188 149.26 48.0855 149.26ZM48.9655 151.04V162H47.1455V151.04H48.9655ZM65.2473 150.84C66.1007 150.84 66.8607 151.02 67.5273 151.38C68.194 151.727 68.7207 152.253 69.1073 152.96C69.494 153.667 69.6873 154.527 69.6873 155.54V162H67.8873V155.8C67.8873 154.707 67.614 153.873 67.0673 153.3C66.534 152.713 65.8073 152.42 64.8873 152.42C63.9407 152.42 63.1873 152.727 62.6273 153.34C62.0673 153.94 61.7873 154.813 61.7873 155.96V162H59.9873V155.8C59.9873 154.707 59.714 153.873 59.1673 153.3C58.634 152.713 57.9073 152.42 56.9873 152.42C56.0407 152.42 55.2873 152.727 54.7273 153.34C54.1673 153.94 53.8873 154.813 53.8873 155.96V162H52.0673V151.04H53.8873V152.62C54.2473 152.047 54.7273 151.607 55.3273 151.3C55.9407 150.993 56.614 150.84 57.3473 150.84C58.2673 150.84 59.0807 151.047 59.7873 151.46C60.494 151.873 61.0207 152.48 61.3673 153.28C61.674 152.507 62.1807 151.907 62.8873 151.48C63.594 151.053 64.3807 150.84 65.2473 150.84ZM87.3248 152.14C87.3248 153.3 86.9248 154.267 86.1248 155.04C85.3382 155.8 84.1315 156.18 82.5048 156.18H79.8248V162H78.0048V148.06H82.5048C84.0782 148.06 85.2715 148.44 86.0848 149.2C86.9115 149.96 87.3248 150.94 87.3248 152.14ZM82.5048 154.68C83.5182 154.68 84.2648 154.46 84.7448 154.02C85.2248 153.58 85.4648 152.953 85.4648 152.14C85.4648 150.42 84.4782 149.56 82.5048 149.56H79.8248V154.68H82.5048ZM88.9069 156.48C88.9069 155.36 89.1335 154.38 89.5869 153.54C90.0402 152.687 90.6602 152.027 91.4469 151.56C92.2469 151.093 93.1335 150.86 94.1069 150.86C95.0669 150.86 95.9002 151.067 96.6069 151.48C97.3135 151.893 97.8402 152.413 98.1869 153.04V151.04H100.027V162H98.1869V159.96C97.8269 160.6 97.2869 161.133 96.5669 161.56C95.8602 161.973 95.0335 162.18 94.0869 162.18C93.1135 162.18 92.2335 161.94 91.4469 161.46C90.6602 160.98 90.0402 160.307 89.5869 159.44C89.1335 158.573 88.9069 157.587 88.9069 156.48ZM98.1869 156.5C98.1869 155.673 98.0202 154.953 97.6869 154.34C97.3535 153.727 96.9002 153.26 96.3269 152.94C95.7669 152.607 95.1469 152.44 94.4669 152.44C93.7869 152.44 93.1669 152.6 92.6069 152.92C92.0469 153.24 91.6002 153.707 91.2669 154.32C90.9335 154.933 90.7669 155.653 90.7669 156.48C90.7669 157.32 90.9335 158.053 91.2669 158.68C91.6002 159.293 92.0469 159.767 92.6069 160.1C93.1669 160.42 93.7869 160.58 94.4669 160.58C95.1469 160.58 95.7669 160.42 96.3269 160.1C96.9002 159.767 97.3535 159.293 97.6869 158.68C98.0202 158.053 98.1869 157.327 98.1869 156.5ZM104.923 152.82C105.243 152.193 105.696 151.707 106.283 151.36C106.883 151.013 107.609 150.84 108.463 150.84V152.72H107.983C105.943 152.72 104.923 153.827 104.923 156.04V162H103.103V151.04H104.923V152.82ZM116.683 162L112.383 157.16V162H110.563V147.2H112.383V155.9L116.603 151.04H119.143L113.983 156.5L119.163 162H116.683ZM130.856 156.1C130.856 156.447 130.836 156.813 130.796 157.2H122.036C122.103 158.28 122.47 159.127 123.136 159.74C123.816 160.34 124.636 160.64 125.596 160.64C126.383 160.64 127.036 160.46 127.556 160.1C128.09 159.727 128.463 159.233 128.676 158.62H130.636C130.343 159.673 129.756 160.533 128.876 161.2C127.996 161.853 126.903 162.18 125.596 162.18C124.556 162.18 123.623 161.947 122.796 161.48C121.983 161.013 121.343 160.353 120.876 159.5C120.41 158.633 120.176 157.633 120.176 156.5C120.176 155.367 120.403 154.373 120.856 153.52C121.31 152.667 121.943 152.013 122.756 151.56C123.583 151.093 124.53 150.86 125.596 150.86C126.636 150.86 127.556 151.087 128.356 151.54C129.156 151.993 129.77 152.62 130.196 153.42C130.636 154.207 130.856 155.1 130.856 156.1ZM128.976 155.72C128.976 155.027 128.823 154.433 128.516 153.94C128.21 153.433 127.79 153.053 127.256 152.8C126.736 152.533 126.156 152.4 125.516 152.4C124.596 152.4 123.81 152.693 123.156 153.28C122.516 153.867 122.15 154.68 122.056 155.72H128.976ZM135.079 152.82C135.399 152.193 135.852 151.707 136.439 151.36C137.039 151.013 137.765 150.84 138.619 150.84V152.72H138.139C136.099 152.72 135.079 153.827 135.079 156.04V162H133.259V151.04H135.079V152.82Z" fill="black"/>
<path d="M629.88 154.48C629.133 154.187 628.56 153.76 628.16 153.2C627.76 152.64 627.56 151.96 627.56 151.16C627.56 150.44 627.74 149.793 628.1 149.22C628.46 148.633 628.993 148.173 629.7 147.84C630.42 147.493 631.287 147.32 632.3 147.32C633.313 147.32 634.173 147.493 634.88 147.84C635.6 148.173 636.14 148.633 636.5 149.22C636.873 149.793 637.06 150.44 637.06 151.16C637.06 151.933 636.853 152.613 636.44 153.2C636.027 153.773 635.46 154.2 634.74 154.48C635.567 154.733 636.22 155.18 636.7 155.82C637.193 156.447 637.44 157.207 637.44 158.1C637.44 158.967 637.227 159.727 636.8 160.38C636.373 161.02 635.767 161.52 634.98 161.88C634.207 162.227 633.313 162.4 632.3 162.4C631.287 162.4 630.393 162.227 629.62 161.88C628.86 161.52 628.267 161.02 627.84 160.38C627.413 159.727 627.2 158.967 627.2 158.1C627.2 157.207 627.44 156.44 627.92 155.8C628.4 155.16 629.053 154.72 629.88 154.48ZM635.3 151.38C635.3 150.567 635.033 149.94 634.5 149.5C633.967 149.06 633.233 148.84 632.3 148.84C631.38 148.84 630.653 149.06 630.12 149.5C629.587 149.94 629.32 150.573 629.32 151.4C629.32 152.147 629.593 152.747 630.14 153.2C630.7 153.653 631.42 153.88 632.3 153.88C633.193 153.88 633.913 153.653 634.46 153.2C635.02 152.733 635.3 152.127 635.3 151.38ZM632.3 155.28C631.313 155.28 630.507 155.513 629.88 155.98C629.253 156.433 628.94 157.12 628.94 158.04C628.94 158.893 629.24 159.58 629.84 160.1C630.453 160.62 631.273 160.88 632.3 160.88C633.327 160.88 634.14 160.62 634.74 160.1C635.34 159.58 635.64 158.893 635.64 158.04C635.64 157.147 635.333 156.467 634.72 156C634.107 155.52 633.3 155.28 632.3 155.28ZM639.637 160.54C641.331 159.18 642.657 158.067 643.617 157.2C644.577 156.32 645.384 155.407 646.037 154.46C646.704 153.5 647.037 152.56 647.037 151.64C647.037 150.773 646.824 150.093 646.397 149.6C645.984 149.093 645.311 148.84 644.377 148.84C643.471 148.84 642.764 149.127 642.257 149.7C641.764 150.26 641.497 151.013 641.457 151.96H639.697C639.751 150.467 640.204 149.313 641.057 148.5C641.911 147.687 643.011 147.28 644.357 147.28C645.731 147.28 646.817 147.66 647.617 148.42C648.431 149.18 648.837 150.227 648.837 151.56C648.837 152.667 648.504 153.747 647.837 154.8C647.184 155.84 646.437 156.76 645.597 157.56C644.757 158.347 643.684 159.267 642.377 160.32H649.257V161.84H639.637V160.54Z" fill="black"/>
</g>
<g filter="url(#filter3_d_29_139)">
<rect x="17" y="226" width="665" height="65" rx="8" fill="url(#paint2_linear_29_139)" shape-rendering="crispEdges"/>
<path d="M44.1 265L38.36 258.64V265H36.54V251.06H38.36V257.52L44.12 251.06H46.42L40.1 258.04L46.48 265H44.1ZM47.8327 259.48C47.8327 258.36 48.0593 257.38 48.5127 256.54C48.966 255.687 49.586 255.027 50.3727 254.56C51.1727 254.093 52.0593 253.86 53.0327 253.86C53.9927 253.86 54.826 254.067 55.5327 254.48C56.2393 254.893 56.766 255.413 57.1127 256.04V254.04H58.9527V265H57.1127V262.96C56.7527 263.6 56.2127 264.133 55.4927 264.56C54.786 264.973 53.9593 265.18 53.0127 265.18C52.0393 265.18 51.1593 264.94 50.3727 264.46C49.586 263.98 48.966 263.307 48.5127 262.44C48.0593 261.573 47.8327 260.587 47.8327 259.48ZM57.1127 259.5C57.1127 258.673 56.946 257.953 56.6127 257.34C56.2793 256.727 55.826 256.26 55.2527 255.94C54.6927 255.607 54.0727 255.44 53.3927 255.44C52.7127 255.44 52.0927 255.6 51.5327 255.92C50.9727 256.24 50.526 256.707 50.1927 257.32C49.8593 257.933 49.6927 258.653 49.6927 259.48C49.6927 260.32 49.8593 261.053 50.1927 261.68C50.526 262.293 50.9727 262.767 51.5327 263.1C52.0927 263.42 52.7127 263.58 53.3927 263.58C54.0727 263.58 54.6927 263.42 55.2527 263.1C55.826 262.767 56.2793 262.293 56.6127 261.68C56.946 261.053 57.1127 260.327 57.1127 259.5ZM63.8483 255.82C64.1683 255.193 64.6216 254.707 65.2083 254.36C65.8083 254.013 66.5349 253.84 67.3883 253.84V255.72H66.9083C64.8683 255.72 63.8483 256.827 63.8483 259.04V265H62.0283V254.04H63.8483V255.82ZM71.3092 250.2V265H69.4892V250.2H71.3092ZM81.5631 263.52H86.4431V265H79.7431V251.06H81.5631V263.52ZM98.0959 254.04V265H96.2759V263.38C95.9293 263.94 95.4426 264.38 94.8159 264.7C94.2026 265.007 93.5226 265.16 92.7759 265.16C91.9226 265.16 91.1559 264.987 90.4759 264.64C89.7959 264.28 89.2559 263.747 88.8559 263.04C88.4693 262.333 88.2759 261.473 88.2759 260.46V254.04H90.0759V260.22C90.0759 261.3 90.3493 262.133 90.8959 262.72C91.4426 263.293 92.1893 263.58 93.1359 263.58C94.1093 263.58 94.8759 263.28 95.4359 262.68C95.9959 262.08 96.2759 261.207 96.2759 260.06V254.04H98.0959ZM100.489 259.48C100.489 258.36 100.716 257.38 101.169 256.54C101.622 255.687 102.242 255.027 103.029 254.56C103.829 254.093 104.722 253.86 105.709 253.86C106.562 253.86 107.356 254.06 108.089 254.46C108.822 254.847 109.382 255.36 109.769 256V250.2H111.609V265H109.769V262.94C109.409 263.593 108.876 264.133 108.169 264.56C107.462 264.973 106.636 265.18 105.689 265.18C104.716 265.18 103.829 264.94 103.029 264.46C102.242 263.98 101.622 263.307 101.169 262.44C100.716 261.573 100.489 260.587 100.489 259.48ZM109.769 259.5C109.769 258.673 109.602 257.953 109.269 257.34C108.936 256.727 108.482 256.26 107.909 255.94C107.349 255.607 106.729 255.44 106.049 255.44C105.369 255.44 104.749 255.6 104.189 255.92C103.629 256.24 103.182 256.707 102.849 257.32C102.516 257.933 102.349 258.653 102.349 259.48C102.349 260.32 102.516 261.053 102.849 261.68C103.182 262.293 103.629 262.767 104.189 263.1C104.749 263.42 105.369 263.58 106.049 263.58C106.729 263.58 107.349 263.42 107.909 263.1C108.482 262.767 108.936 262.293 109.269 261.68C109.602 261.053 109.769 260.327 109.769 259.5ZM114.005 259.48C114.005 258.36 114.231 257.38 114.685 256.54C115.138 255.687 115.758 255.027 116.545 254.56C117.345 254.093 118.238 253.86 119.225 253.86C120.078 253.86 120.871 254.06 121.605 254.46C122.338 254.847 122.898 255.36 123.285 256V250.2H125.125V265H123.285V262.94C122.925 263.593 122.391 264.133 121.685 264.56C120.978 264.973 120.151 265.18 119.205 265.18C118.231 265.18 117.345 264.94 116.545 264.46C115.758 263.98 115.138 263.307 114.685 262.44C114.231 261.573 114.005 260.587 114.005 259.48ZM123.285 259.5C123.285 258.673 123.118 257.953 122.785 257.34C122.451 256.727 121.998 256.26 121.425 255.94C120.865 255.607 120.245 255.44 119.565 255.44C118.885 255.44 118.265 255.6 117.705 255.92C117.145 256.24 116.698 256.707 116.365 257.32C116.031 257.933 115.865 258.653 115.865 259.48C115.865 260.32 116.031 261.053 116.365 261.68C116.698 262.293 117.145 262.767 117.705 263.1C118.265 263.42 118.885 263.58 119.565 263.58C120.245 263.58 120.865 263.42 121.425 263.1C121.998 262.767 122.451 262.293 122.785 261.68C123.118 261.053 123.285 260.327 123.285 259.5ZM137.92 254.04V265H136.1V263.38C135.753 263.94 135.267 264.38 134.64 264.7C134.027 265.007 133.347 265.16 132.6 265.16C131.747 265.16 130.98 264.987 130.3 264.64C129.62 264.28 129.08 263.747 128.68 263.04C128.293 262.333 128.1 261.473 128.1 260.46V254.04H129.9V260.22C129.9 261.3 130.173 262.133 130.72 262.72C131.267 263.293 132.013 263.58 132.96 263.58C133.933 263.58 134.7 263.28 135.26 262.68C135.82 262.08 136.1 261.207 136.1 260.06V254.04H137.92ZM140.313 259.5C140.313 258.367 140.54 257.38 140.993 256.54C141.446 255.687 142.073 255.027 142.873 254.56C143.686 254.093 144.613 253.86 145.653 253.86C147 253.86 148.106 254.187 148.973 254.84C149.853 255.493 150.433 256.4 150.713 257.56H148.753C148.566 256.893 148.2 256.367 147.653 255.98C147.12 255.593 146.453 255.4 145.653 255.4C144.613 255.4 143.773 255.76 143.133 256.48C142.493 257.187 142.173 258.193 142.173 259.5C142.173 260.82 142.493 261.84 143.133 262.56C143.773 263.28 144.613 263.64 145.653 263.64C146.453 263.64 147.12 263.453 147.653 263.08C148.186 262.707 148.553 262.173 148.753 261.48H150.713C150.42 262.6 149.833 263.5 148.953 264.18C148.073 264.847 146.973 265.18 145.653 265.18C144.613 265.18 143.686 264.947 142.873 264.48C142.073 264.013 141.446 263.353 140.993 262.5C140.54 261.647 140.313 260.647 140.313 259.5ZM159.262 265L154.962 260.16V265H153.142V250.2H154.962V258.9L159.182 254.04H161.722L156.562 259.5L161.742 265H159.262Z" fill="black"/>
<path d="M636.14 251.96L630.58 265H628.74L634.38 252.14H626.66V250.58H636.14V251.96ZM638.118 254.18C638.211 252.953 638.685 251.993 639.538 251.3C640.391 250.607 641.498 250.26 642.858 250.26C643.765 250.26 644.545 250.427 645.198 250.76C645.865 251.08 646.365 251.52 646.698 252.08C647.045 252.64 647.218 253.273 647.218 253.98C647.218 254.807 646.978 255.52 646.498 256.12C646.031 256.72 645.418 257.107 644.658 257.28V257.38C645.525 257.593 646.211 258.013 646.718 258.64C647.225 259.267 647.478 260.087 647.478 261.1C647.478 261.86 647.305 262.547 646.958 263.16C646.611 263.76 646.091 264.233 645.398 264.58C644.705 264.927 643.871 265.1 642.898 265.1C641.485 265.1 640.325 264.733 639.418 264C638.511 263.253 638.005 262.2 637.898 260.84H639.658C639.751 261.64 640.078 262.293 640.638 262.8C641.198 263.307 641.945 263.56 642.878 263.56C643.811 263.56 644.518 263.32 644.998 262.84C645.491 262.347 645.738 261.713 645.738 260.94C645.738 259.94 645.405 259.22 644.738 258.78C644.071 258.34 643.065 258.12 641.718 258.12H641.258V256.6H641.738C642.965 256.587 643.891 256.387 644.518 256C645.145 255.6 645.458 254.987 645.458 254.16C645.458 253.453 645.225 252.887 644.758 252.46C644.305 252.033 643.651 251.82 642.798 251.82C641.971 251.82 641.305 252.033 640.798 252.46C640.291 252.887 639.991 253.46 639.898 254.18H638.118Z" fill="black"/>
</g>
<g filter="url(#filter4_d_29_139)">
<rect x="17" y="329" width="665" height="65" rx="8" fill="url(#paint3_linear_29_139)" shape-rendering="crispEdges"/>
<path d="M40.88 354.06C42.4 354.06 43.7133 354.347 44.82 354.92C45.94 355.48 46.7933 356.287 47.38 357.34C47.98 358.393 48.28 359.633 48.28 361.06C48.28 362.487 47.98 363.727 47.38 364.78C46.7933 365.82 45.94 366.62 44.82 367.18C43.7133 367.727 42.4 368 40.88 368H36.54V354.06H40.88ZM40.88 366.5C42.68 366.5 44.0533 366.027 45 365.08C45.9467 364.12 46.42 362.78 46.42 361.06C46.42 359.327 45.94 357.973 44.98 357C44.0333 356.027 42.6667 355.54 40.88 355.54H38.36V366.5H40.88ZM50.0006 362.48C50.0006 361.36 50.2273 360.38 50.6806 359.54C51.134 358.687 51.754 358.027 52.5406 357.56C53.3406 357.093 54.2273 356.86 55.2006 356.86C56.1606 356.86 56.994 357.067 57.7006 357.48C58.4073 357.893 58.934 358.413 59.2806 359.04V357.04H61.1206V368H59.2806V365.96C58.9206 366.6 58.3806 367.133 57.6606 367.56C56.954 367.973 56.1273 368.18 55.1806 368.18C54.2073 368.18 53.3273 367.94 52.5406 367.46C51.754 366.98 51.134 366.307 50.6806 365.44C50.2273 364.573 50.0006 363.587 50.0006 362.48ZM59.2806 362.5C59.2806 361.673 59.114 360.953 58.7806 360.34C58.4473 359.727 57.994 359.26 57.4206 358.94C56.8606 358.607 56.2406 358.44 55.5606 358.44C54.8806 358.44 54.2606 358.6 53.7006 358.92C53.1406 359.24 52.694 359.707 52.3606 360.32C52.0273 360.933 51.8606 361.653 51.8606 362.48C51.8606 363.32 52.0273 364.053 52.3606 364.68C52.694 365.293 53.1406 365.767 53.7006 366.1C54.2606 366.42 54.8806 366.58 55.5606 366.58C56.2406 366.58 56.8606 366.42 57.4206 366.1C57.994 365.767 58.4473 365.293 58.7806 364.68C59.114 364.053 59.2806 363.327 59.2806 362.5ZM69.5363 356.84C70.8696 356.84 71.9496 357.247 72.7763 358.06C73.6029 358.86 74.0163 360.02 74.0163 361.54V368H72.2163V361.8C72.2163 360.707 71.9429 359.873 71.3963 359.3C70.8496 358.713 70.1029 358.42 69.1563 358.42C68.1963 358.42 67.4296 358.72 66.8563 359.32C66.2963 359.92 66.0163 360.793 66.0163 361.94V368H64.1963V357.04H66.0163V358.6C66.3763 358.04 66.8629 357.607 67.4763 357.3C68.1029 356.993 68.7896 356.84 69.5363 356.84ZM77.9292 355.26C77.5826 355.26 77.2892 355.14 77.0492 354.9C76.8092 354.66 76.6892 354.367 76.6892 354.02C76.6892 353.673 76.8092 353.38 77.0492 353.14C77.2892 352.9 77.5826 352.78 77.9292 352.78C78.2626 352.78 78.5426 352.9 78.7692 353.14C79.0092 353.38 79.1292 353.673 79.1292 354.02C79.1292 354.367 79.0092 354.66 78.7692 354.9C78.5426 355.14 78.2626 355.26 77.9292 355.26ZM78.8092 357.04V368H76.9892V357.04H78.8092ZM91.9111 362.1C91.9111 362.447 91.8911 362.813 91.8511 363.2H83.0911C83.1578 364.28 83.5244 365.127 84.1911 365.74C84.8711 366.34 85.6911 366.64 86.6511 366.64C87.4378 366.64 88.0911 366.46 88.6111 366.1C89.1444 365.727 89.5178 365.233 89.7311 364.62H91.6911C91.3978 365.673 90.8111 366.533 89.9311 367.2C89.0511 367.853 87.9578 368.18 86.6511 368.18C85.6111 368.18 84.6778 367.947 83.8511 367.48C83.0378 367.013 82.3978 366.353 81.9311 365.5C81.4644 364.633 81.2311 363.633 81.2311 362.5C81.2311 361.367 81.4578 360.373 81.9111 359.52C82.3644 358.667 82.9978 358.013 83.8111 357.56C84.6378 357.093 85.5844 356.86 86.6511 356.86C87.6911 356.86 88.6111 357.087 89.4111 357.54C90.2111 357.993 90.8244 358.62 91.2511 359.42C91.6911 360.207 91.9111 361.1 91.9111 362.1ZM90.0311 361.72C90.0311 361.027 89.8778 360.433 89.5711 359.94C89.2644 359.433 88.8444 359.053 88.3111 358.8C87.7911 358.533 87.2111 358.4 86.5711 358.4C85.6511 358.4 84.8644 358.693 84.2111 359.28C83.5711 359.867 83.2044 360.68 83.1111 361.72H90.0311ZM96.1334 353.2V368H94.3134V353.2H96.1334ZM103.887 361.02C103.887 359.66 104.194 358.44 104.807 357.36C105.421 356.267 106.254 355.413 107.307 354.8C108.374 354.187 109.554 353.88 110.847 353.88C112.367 353.88 113.694 354.247 114.827 354.98C115.961 355.713 116.787 356.753 117.307 358.1H115.127C114.741 357.26 114.181 356.613 113.447 356.16C112.727 355.707 111.861 355.48 110.847 355.48C109.874 355.48 109.001 355.707 108.227 356.16C107.454 356.613 106.847 357.26 106.407 358.1C105.967 358.927 105.747 359.9 105.747 361.02C105.747 362.127 105.967 363.1 106.407 363.94C106.847 364.767 107.454 365.407 108.227 365.86C109.001 366.313 109.874 366.54 110.847 366.54C111.861 366.54 112.727 366.32 113.447 365.88C114.181 365.427 114.741 364.78 115.127 363.94H117.307C116.787 365.273 115.961 366.307 114.827 367.04C113.694 367.76 112.367 368.12 110.847 368.12C109.554 368.12 108.374 367.82 107.307 367.22C106.254 366.607 105.421 365.76 104.807 364.68C104.194 363.6 103.887 362.38 103.887 361.02ZM119.337 362.48C119.337 361.36 119.563 360.38 120.017 359.54C120.47 358.687 121.09 358.027 121.877 357.56C122.677 357.093 123.563 356.86 124.537 356.86C125.497 356.86 126.33 357.067 127.037 357.48C127.743 357.893 128.27 358.413 128.617 359.04V357.04H130.457V368H128.617V365.96C128.257 366.6 127.717 367.133 126.997 367.56C126.29 367.973 125.463 368.18 124.517 368.18C123.543 368.18 122.663 367.94 121.877 367.46C121.09 366.98 120.47 366.307 120.017 365.44C119.563 364.573 119.337 363.587 119.337 362.48ZM128.617 362.5C128.617 361.673 128.45 360.953 128.117 360.34C127.783 359.727 127.33 359.26 126.757 358.94C126.197 358.607 125.577 358.44 124.897 358.44C124.217 358.44 123.597 358.6 123.037 358.92C122.477 359.24 122.03 359.707 121.697 360.32C121.363 360.933 121.197 361.653 121.197 362.48C121.197 363.32 121.363 364.053 121.697 364.68C122.03 365.293 122.477 365.767 123.037 366.1C123.597 366.42 124.217 366.58 124.897 366.58C125.577 366.58 126.197 366.42 126.757 366.1C127.33 365.767 127.783 365.293 128.117 364.68C128.45 364.053 128.617 363.327 128.617 362.5ZM132.852 362.48C132.852 361.36 133.079 360.38 133.532 359.54C133.986 358.687 134.606 358.027 135.392 357.56C136.192 357.093 137.086 356.86 138.072 356.86C138.926 356.86 139.719 357.06 140.452 357.46C141.186 357.847 141.746 358.36 142.132 359V353.2H143.972V368H142.132V365.94C141.772 366.593 141.239 367.133 140.532 367.56C139.826 367.973 138.999 368.18 138.052 368.18C137.079 368.18 136.192 367.94 135.392 367.46C134.606 366.98 133.986 366.307 133.532 365.44C133.079 364.573 132.852 363.587 132.852 362.48ZM142.132 362.5C142.132 361.673 141.966 360.953 141.632 360.34C141.299 359.727 140.846 359.26 140.272 358.94C139.712 358.607 139.092 358.44 138.412 358.44C137.732 358.44 137.112 358.6 136.552 358.92C135.992 359.24 135.546 359.707 135.212 360.32C134.879 360.933 134.712 361.653 134.712 362.48C134.712 363.32 134.879 364.053 135.212 364.68C135.546 365.293 135.992 365.767 136.552 366.1C137.112 366.42 137.732 366.58 138.412 366.58C139.092 366.58 139.712 366.42 140.272 366.1C140.846 365.767 141.299 365.293 141.632 364.68C141.966 364.053 142.132 363.327 142.132 362.5ZM147.988 355.26C147.641 355.26 147.348 355.14 147.108 354.9C146.868 354.66 146.748 354.367 146.748 354.02C146.748 353.673 146.868 353.38 147.108 353.14C147.348 352.9 147.641 352.78 147.988 352.78C148.321 352.78 148.601 352.9 148.828 353.14C149.068 353.38 149.188 353.673 149.188 354.02C149.188 354.367 149.068 354.66 148.828 354.9C148.601 355.14 148.321 355.26 147.988 355.26ZM148.868 357.04V368H147.048V357.04H148.868ZM153.33 366.5H158.71V368H151.25V366.5L156.57 358.52H151.29V357.04H158.67V358.52L153.33 366.5Z" fill="black"/>
<path d="M635.3 356.98C635.007 355.5 634.093 354.76 632.56 354.76C631.373 354.76 630.487 355.22 629.9 356.14C629.313 357.047 629.027 358.547 629.04 360.64C629.347 359.947 629.853 359.407 630.56 359.02C631.28 358.62 632.08 358.42 632.96 358.42C634.333 358.42 635.427 358.847 636.24 359.7C637.067 360.553 637.48 361.733 637.48 363.24C637.48 364.147 637.3 364.96 636.94 365.68C636.593 366.4 636.06 366.973 635.34 367.4C634.633 367.827 633.773 368.04 632.76 368.04C631.387 368.04 630.313 367.733 629.54 367.12C628.767 366.507 628.227 365.66 627.92 364.58C627.613 363.5 627.46 362.167 627.46 360.58C627.46 355.687 629.167 353.24 632.58 353.24C633.887 353.24 634.913 353.593 635.66 354.3C636.407 355.007 636.847 355.9 636.98 356.98H635.3ZM632.58 359.96C632.007 359.96 631.467 360.08 630.96 360.32C630.453 360.547 630.04 360.9 629.72 361.38C629.413 361.847 629.26 362.42 629.26 363.1C629.26 364.113 629.553 364.94 630.14 365.58C630.727 366.207 631.567 366.52 632.66 366.52C633.593 366.52 634.333 366.233 634.88 365.66C635.44 365.073 635.72 364.287 635.72 363.3C635.72 362.26 635.453 361.447 634.92 360.86C634.387 360.26 633.607 359.96 632.58 359.96ZM648.835 354.96L643.275 368H641.435L647.075 355.14H639.355V353.58H648.835V354.96Z" fill="black"/>
</g>
<rect x="319" y="416" width="22" height="22" rx="11" fill="black"/>
<path d="M330.164 432C330.033 432 329.926 431.958 329.842 431.874C329.758 431.79 329.716 431.692 329.716 431.58V423.152L329.87 423.292L328.008 424.538C327.933 424.594 327.854 424.622 327.77 424.622C327.658 424.622 327.555 424.575 327.462 424.482C327.378 424.389 327.336 424.286 327.336 424.174C327.336 424.025 327.411 423.908 327.56 423.824L329.898 422.27C329.954 422.233 330.01 422.209 330.066 422.2C330.131 422.191 330.187 422.191 330.234 422.2C330.355 422.209 330.449 422.256 330.514 422.34C330.579 422.415 330.612 422.508 330.612 422.62V431.58C330.612 431.692 330.57 431.79 330.486 431.874C330.402 431.958 330.295 432 330.164 432Z" fill="white"/>
<path d="M355.636 431.188C355.748 431.188 355.841 431.23 355.916 431.314C356 431.389 356.042 431.482 356.042 431.594C356.042 431.715 356 431.813 355.916 431.888C355.841 431.963 355.748 432 355.636 432H350.386C350.265 432 350.157 431.967 350.064 431.902C349.98 431.827 349.938 431.72 349.938 431.58C349.938 431.477 349.975 431.379 350.05 431.286L353.284 427.716C353.797 427.156 354.18 426.643 354.432 426.176C354.693 425.7 354.824 425.275 354.824 424.902C354.824 424.286 354.637 423.791 354.264 423.418C353.891 423.045 353.387 422.858 352.752 422.858C352.463 422.858 352.173 422.919 351.884 423.04C351.604 423.161 351.352 423.32 351.128 423.516C350.913 423.712 350.745 423.936 350.624 424.188C350.568 424.281 350.507 424.347 350.442 424.384C350.386 424.421 350.321 424.44 350.246 424.44C350.134 424.44 350.036 424.407 349.952 424.342C349.868 424.267 349.826 424.179 349.826 424.076C349.826 424.011 349.84 423.945 349.868 423.88C349.905 423.815 349.957 423.74 350.022 423.656C350.19 423.367 350.423 423.101 350.722 422.858C351.021 422.615 351.352 422.424 351.716 422.284C352.089 422.135 352.453 422.06 352.808 422.06C353.405 422.06 353.919 422.177 354.348 422.41C354.787 422.634 355.123 422.956 355.356 423.376C355.599 423.787 355.72 424.277 355.72 424.846C355.72 425.331 355.566 425.863 355.258 426.442C354.959 427.011 354.511 427.627 353.914 428.29L351.184 431.356L351.044 431.188H355.636Z" fill="black"/>
<path d="M369.246 430.558C369.293 430.558 369.339 430.567 369.386 430.586C369.442 430.605 369.507 430.647 369.582 430.712C369.778 430.917 370.011 431.076 370.282 431.188C370.553 431.291 370.861 431.342 371.206 431.342C371.663 431.342 372.079 431.239 372.452 431.034C372.835 430.829 373.138 430.544 373.362 430.18C373.586 429.807 373.698 429.382 373.698 428.906C373.698 428.365 373.577 427.931 373.334 427.604C373.101 427.268 372.797 427.021 372.424 426.862C372.06 426.694 371.687 426.61 371.304 426.61C371.201 426.61 371.099 426.619 370.996 426.638C370.903 426.647 370.814 426.661 370.73 426.68C370.646 426.699 370.581 426.708 370.534 426.708C370.413 426.708 370.319 426.671 370.254 426.596C370.189 426.512 370.156 426.409 370.156 426.288C370.156 426.223 370.17 426.167 370.198 426.12C370.226 426.064 370.263 426.003 370.31 425.938L373.152 422.844L373.32 423.068H369.078C368.966 423.068 368.868 423.031 368.784 422.956C368.709 422.872 368.672 422.774 368.672 422.662C368.672 422.55 368.709 422.457 368.784 422.382C368.868 422.307 368.966 422.27 369.078 422.27H373.782C373.941 422.27 374.053 422.321 374.118 422.424C374.183 422.517 374.216 422.611 374.216 422.704C374.216 422.76 374.202 422.816 374.174 422.872C374.146 422.919 374.109 422.97 374.062 423.026L371.22 426.12L370.912 425.938C370.94 425.91 371.033 425.882 371.192 425.854C371.36 425.817 371.491 425.798 371.584 425.798C372.097 425.798 372.578 425.919 373.026 426.162C373.483 426.405 373.852 426.755 374.132 427.212C374.421 427.66 374.566 428.215 374.566 428.878C374.566 429.531 374.412 430.105 374.104 430.6C373.796 431.085 373.381 431.463 372.858 431.734C372.335 432.005 371.757 432.14 371.122 432.14C370.739 432.14 370.361 432.075 369.988 431.944C369.615 431.813 369.288 431.617 369.008 431.356C368.943 431.3 368.896 431.244 368.868 431.188C368.84 431.132 368.826 431.076 368.826 431.02C368.826 430.908 368.863 430.805 368.938 430.712C369.022 430.609 369.125 430.558 369.246 430.558Z" fill="black"/>
</g>
<defs>
<filter id="filter0_i_29_139" x="0" y="0" width="695" height="453" filterUnits="userSpaceOnUse" color-interpolation-filters="sRGB">
<feFlood flood-opacity="0" result="BackgroundImageFix"/>
<feBlend mode="normal" in="SourceGraphic" in2="BackgroundImageFix" result="shape"/>
<feColorMatrix in="SourceAlpha" type="matrix" values="0 0 0 0 0 0 0 0 0 0 0 0 0 0 0 0 0 0 127 0" result="hardAlpha"/>
<feMorphology radius="20" operator="erode" in="SourceAlpha" result="effect1_innerShadow_29_139"/>
<feOffset/>
<feGaussianBlur stdDeviation="10.5"/>
<feComposite in2="hardAlpha" operator="arithmetic" k2="-1" k3="1"/>
<feColorMatrix type="matrix" values="0 0 0 0 1 0 0 0 0 1 0 0 0 0 1 0 0 0 0.25 0"/>
<feBlend mode="normal" in2="shape" result="effect1_innerShadow_29_139"/>
</filter>
<filter id="filter1_d_29_139" x="9" y="14" width="681" height="81" filterUnits="userSpaceOnUse" color-interpolation-filters="sRGB">
<feFlood flood-opacity="0" result="BackgroundImageFix"/>
<feColorMatrix in="SourceAlpha" type="matrix" values="0 0 0 0 0 0 0 0 0 0 0 0 0 0 0 0 0 0 127 0" result="hardAlpha"/>
<feOffset dy="2"/>
<feGaussianBlur stdDeviation="4"/>
<feComposite in2="hardAlpha" operator="out"/>
<feColorMatrix type="matrix" values="0 0 0 0 0 0 0 0 0 0 0 0 0 0 0 0 0 0 0.2 0"/>
<feBlend mode="normal" in2="BackgroundImageFix" result="effect1_dropShadow_29_139"/>
<feBlend mode="normal" in="SourceGraphic" in2="effect1_dropShadow_29_139" result="shape"/>
</filter>
<filter id="filter2_d_29_139" x="9" y="117" width="681" height="81" filterUnits="userSpaceOnUse" color-interpolation-filters="sRGB">
<feFlood flood-opacity="0" result="BackgroundImageFix"/>
<feColorMatrix in="SourceAlpha" type="matrix" values="0 0 0 0 0 0 0 0 0 0 0 0 0 0 0 0 0 0 127 0" result="hardAlpha"/>
<feOffset dy="2"/>
<feGaussianBlur stdDeviation="4"/>
<feComposite in2="hardAlpha" operator="out"/>
<feColorMatrix type="matrix" values="0 0 0 0 0 0 0 0 0 0 0 0 0 0 0 0 0 0 0.2 0"/>
<feBlend mode="normal" in2="BackgroundImageFix" result="effect1_dropShadow_29_139"/>
<feBlend mode="normal" in="SourceGraphic" in2="effect1_dropShadow_29_139" result="shape"/>
</filter>
<filter id="filter3_d_29_139" x="9" y="220" width="681" height="81" filterUnits="userSpaceOnUse" color-interpolation-filters="sRGB">
<feFlood flood-opacity="0" result="BackgroundImageFix"/>
<feColorMatrix in="SourceAlpha" type="matrix" values="0 0 0 0 0 0 0 0 0 0 0 0 0 0 0 0 0 0 127 0" result="hardAlpha"/>
<feOffset dy="2"/>
<feGaussianBlur stdDeviation="4"/>
<feComposite in2="hardAlpha" operator="out"/>
<feColorMatrix type="matrix" values="0 0 0 0 0 0 0 0 0 0 0 0 0 0 0 0 0 0 0.2 0"/>
<feBlend mode="normal" in2="BackgroundImageFix" result="effect1_dropShadow_29_139"/>
<feBlend mode="normal" in="SourceGraphic" in2="effect1_dropShadow_29_139" result="shape"/>
</filter>
<filter id="filter4_d_29_139" x="9" y="323" width="681" height="81" filterUnits="userSpaceOnUse" color-interpolation-filters="sRGB">
<feFlood flood-opacity="0" result="BackgroundImageFix"/>
<feColorMatrix in="SourceAlpha" type="matrix" values="0 0 0 0 0 0 0 0 0 0 0 0 0 0 0 0 0 0 127 0" result="hardAlpha"/>
<feOffset dy="2"/>
<feGaussianBlur stdDeviation="4"/>
<feComposite in2="hardAlpha" operator="out"/>
<feColorMatrix type="matrix" values="0 0 0 0 0 0 0 0 0 0 0 0 0 0 0 0 0 0 0.2 0"/>
<feBlend mode="normal" in2="BackgroundImageFix" result="effect1_dropShadow_29_139"/>
<feBlend mode="normal" in="SourceGraphic" in2="effect1_dropShadow_29_139" result="shape"/>
</filter>
<linearGradient id="paint0_linear_29_139" x1="422.931" y1="-5.65788" x2="478.041" y2="107.421" gradientUnits="userSpaceOnUse">
<stop stop-color="#CECECE" stop-opacity="0.51"/>
<stop offset="1" stop-color="#CECECE" stop-opacity="0.81"/>
</linearGradient>
<linearGradient id="paint1_linear_29_139" x1="422.931" y1="97.3421" x2="478.041" y2="210.421" gradientUnits="userSpaceOnUse">
<stop stop-color="#CECECE" stop-opacity="0.51"/>
<stop offset="1" stop-color="#CECECE" stop-opacity="0.81"/>
</linearGradient>
<linearGradient id="paint2_linear_29_139" x1="422.931" y1="200.342" x2="478.041" y2="313.421" gradientUnits="userSpaceOnUse">
<stop stop-color="#CECECE" stop-opacity="0.51"/>
<stop offset="1" stop-color="#CECECE" stop-opacity="0.81"/>
</linearGradient>
<linearGradient id="paint3_linear_29_139" x1="422.931" y1="303.342" x2="478.041" y2="416.421" gradientUnits="userSpaceOnUse">
<stop stop-color="#CECECE" stop-opacity="0.51"/>
<stop offset="1" stop-color="#CECECE" stop-opacity="0.81"/>
</linearGradient>
</defs>
</svg>
