<svg width="316" height="65" viewBox="0 0 316 65" fill="none" xmlns="http://www.w3.org/2000/svg">
<g filter="url(#filter0_d_22_70)">
<path d="M12 28C12 19.1634 19.1634 12 28 12H288C296.837 12 304 19.1634 304 28V37C304 45.8366 296.837 53 288 53H12V28Z" fill="white"/>
</g>
<path d="M56.14 39.38C56.1267 39.5533 56.0533 39.7 55.92 39.82C55.8 39.94 55.66 40 55.5 40C55.3133 40 55.16 39.94 55.04 39.82C54.9333 39.7 54.88 39.5533 54.88 39.38V26.62C54.88 26.4467 54.94 26.3 55.06 26.18C55.18 26.06 55.3333 26 55.52 26C55.68 26 55.82 26.06 55.94 26.18C56.0733 26.3 56.14 26.4467 56.14 26.62V39.38ZM59 38.38C58.8933 38.22 58.84 38.0667 58.84 37.92C58.8533 37.76 58.94 37.6333 59.1 37.54C59.2067 37.4467 59.3267 37.4067 59.46 37.42C59.6067 37.4333 59.74 37.5 59.86 37.62C60.22 38.0867 60.6533 38.4667 61.16 38.76C61.68 39.04 62.2933 39.18 63 39.18C63.3733 39.18 63.74 39.12 64.1 39C64.4733 38.8667 64.78 38.6733 65.02 38.42C65.26 38.1533 65.38 37.82 65.38 37.42C65.38 37.0067 65.26 36.6733 65.02 36.42C64.78 36.1667 64.4667 35.9667 64.08 35.82C63.7067 35.6733 63.3067 35.5467 62.88 35.44C62.4267 35.32 61.9867 35.1867 61.56 35.04C61.1333 34.88 60.7533 34.6867 60.42 34.46C60.1 34.22 59.84 33.9333 59.64 33.6C59.44 33.2667 59.34 32.86 59.34 32.38C59.34 31.82 59.4933 31.3267 59.8 30.9C60.1067 30.4733 60.52 30.14 61.04 29.9C61.5733 29.66 62.1733 29.54 62.84 29.54C63.1733 29.54 63.5333 29.5867 63.92 29.68C64.3067 29.76 64.6867 29.9 65.06 30.1C65.4333 30.3 65.7667 30.5733 66.06 30.92C66.18 31.04 66.24 31.18 66.24 31.34C66.24 31.4867 66.1733 31.62 66.04 31.74C65.9333 31.82 65.8067 31.86 65.66 31.86C65.5267 31.86 65.4133 31.8067 65.32 31.7C65 31.34 64.62 31.0667 64.18 30.88C63.74 30.6933 63.2667 30.6 62.76 30.6C62.3733 30.6 62.0067 30.6667 61.66 30.8C61.3267 30.92 61.0467 31.1067 60.82 31.36C60.5933 31.6133 60.48 31.9467 60.48 32.36C60.5067 32.7467 60.64 33.06 60.88 33.3C61.1333 33.54 61.46 33.74 61.86 33.9C62.2733 34.06 62.7333 34.2067 63.24 34.34C63.6667 34.4467 64.0733 34.5733 64.46 34.72C64.86 34.8667 65.2067 35.0533 65.5 35.28C65.8067 35.4933 66.0467 35.7667 66.22 36.1C66.4067 36.4333 66.5 36.8533 66.5 37.36C66.5 37.9467 66.3333 38.4533 66 38.88C65.68 39.3067 65.2467 39.6333 64.7 39.86C64.1533 40.0867 63.5467 40.2 62.88 40.2C62.16 40.2 61.46 40.06 60.78 39.78C60.1133 39.5 59.52 39.0333 59 38.38ZM73.7638 29.82H78.4238C78.5838 29.82 78.7171 29.88 78.8238 30C78.9304 30.1067 78.9838 30.24 78.9838 30.4C78.9838 30.5467 78.9304 30.6733 78.8238 30.78C78.7171 30.8867 78.5838 30.94 78.4238 30.94H73.7638C73.6038 30.94 73.4638 30.8867 73.3438 30.78C73.2371 30.66 73.1838 30.5267 73.1838 30.38C73.1838 30.22 73.2371 30.0867 73.3438 29.98C73.4638 29.8733 73.6038 29.82 73.7638 29.82ZM75.8238 27C75.9971 27 76.1371 27.06 76.2438 27.18C76.3638 27.3 76.4238 27.44 76.4238 27.6V37.64C76.4238 38.0133 76.4704 38.2933 76.5638 38.48C76.6704 38.6667 76.8038 38.7933 76.9638 38.86C77.1238 38.9133 77.2838 38.94 77.4438 38.94C77.5504 38.94 77.6438 38.9267 77.7238 38.9C77.8171 38.86 77.9171 38.84 78.0238 38.84C78.1438 38.84 78.2438 38.8867 78.3238 38.98C78.4171 39.0733 78.4638 39.1933 78.4638 39.34C78.4638 39.5267 78.3571 39.6867 78.1438 39.82C77.9304 39.94 77.6771 40 77.3838 40C77.2638 40 77.0838 39.9933 76.8438 39.98C76.6038 39.9533 76.3571 39.88 76.1038 39.76C75.8504 39.6267 75.6371 39.4 75.4638 39.08C75.3038 38.76 75.2238 38.3 75.2238 37.7V27.6C75.2238 27.44 75.2771 27.3 75.3838 27.18C75.5038 27.06 75.6504 27 75.8238 27ZM85.8611 29.7C86.7011 29.7 87.3811 29.88 87.9011 30.24C88.4211 30.6 88.8011 31.0867 89.0411 31.7C89.2944 32.3133 89.4211 32.9933 89.4211 33.74V39.4C89.4211 39.56 89.3611 39.7 89.2411 39.82C89.1211 39.94 88.9811 40 88.8211 40C88.6344 40 88.4878 39.94 88.3811 39.82C88.2744 39.7 88.2211 39.56 88.2211 39.4V33.74C88.2211 33.1933 88.1344 32.7 87.9611 32.26C87.8011 31.82 87.5344 31.4733 87.1611 31.22C86.7878 30.9533 86.2878 30.82 85.6611 30.82C85.1011 30.82 84.5678 30.9533 84.0611 31.22C83.5678 31.4733 83.1678 31.82 82.8611 32.26C82.5544 32.7 82.4011 33.1933 82.4011 33.74V39.4C82.4011 39.56 82.3411 39.7 82.2211 39.82C82.1011 39.94 81.9611 40 81.8011 40C81.6144 40 81.4678 39.94 81.3611 39.82C81.2544 39.7 81.2011 39.56 81.2011 39.4V25.8C81.2011 25.64 81.2544 25.5 81.3611 25.38C81.4811 25.26 81.6278 25.2 81.8011 25.2C81.9744 25.2 82.1144 25.26 82.2211 25.38C82.3411 25.5 82.4011 25.64 82.4011 25.8V32.28L81.9411 32.98C81.9678 32.5667 82.0944 32.1667 82.3211 31.78C82.5611 31.38 82.8678 31.0267 83.2411 30.72C83.6144 30.4 84.0278 30.1533 84.4811 29.98C84.9344 29.7933 85.3944 29.7 85.8611 29.7ZM93.7283 39.4C93.7283 39.56 93.6683 39.7 93.5483 39.82C93.4283 39.94 93.2883 40 93.1283 40C92.9549 40 92.8083 39.94 92.6883 39.82C92.5816 39.7 92.5283 39.56 92.5283 39.4V30.2C92.5283 30.04 92.5816 29.9 92.6883 29.78C92.8083 29.66 92.9549 29.6 93.1283 29.6C93.3016 29.6 93.4416 29.66 93.5483 29.78C93.6683 29.9 93.7283 30.04 93.7283 30.2V39.4ZM93.1283 28.26C92.8483 28.26 92.6349 28.2 92.4883 28.08C92.3549 27.9467 92.2883 27.76 92.2883 27.52V27.32C92.2883 27.08 92.3616 26.9 92.5083 26.78C92.6683 26.6467 92.8816 26.58 93.1483 26.58C93.4016 26.58 93.5949 26.6467 93.7283 26.78C93.8749 26.9 93.9483 27.08 93.9483 27.32V27.52C93.9483 27.76 93.8749 27.9467 93.7283 28.08C93.5949 28.2 93.3949 28.26 93.1283 28.26ZM96.2656 38.38C96.159 38.22 96.1056 38.0667 96.1056 37.92C96.119 37.76 96.2056 37.6333 96.3656 37.54C96.4723 37.4467 96.5923 37.4067 96.7256 37.42C96.8723 37.4333 97.0056 37.5 97.1256 37.62C97.4856 38.0867 97.919 38.4667 98.4256 38.76C98.9456 39.04 99.559 39.18 100.266 39.18C100.639 39.18 101.006 39.12 101.366 39C101.739 38.8667 102.046 38.6733 102.286 38.42C102.526 38.1533 102.646 37.82 102.646 37.42C102.646 37.0067 102.526 36.6733 102.286 36.42C102.046 36.1667 101.732 35.9667 101.346 35.82C100.972 35.6733 100.572 35.5467 100.146 35.44C99.6923 35.32 99.2523 35.1867 98.8256 35.04C98.399 34.88 98.019 34.6867 97.6856 34.46C97.3656 34.22 97.1056 33.9333 96.9056 33.6C96.7056 33.2667 96.6056 32.86 96.6056 32.38C96.6056 31.82 96.759 31.3267 97.0656 30.9C97.3723 30.4733 97.7856 30.14 98.3056 29.9C98.839 29.66 99.439 29.54 100.106 29.54C100.439 29.54 100.799 29.5867 101.186 29.68C101.572 29.76 101.952 29.9 102.326 30.1C102.699 30.3 103.032 30.5733 103.326 30.92C103.446 31.04 103.506 31.18 103.506 31.34C103.506 31.4867 103.439 31.62 103.306 31.74C103.199 31.82 103.072 31.86 102.926 31.86C102.792 31.86 102.679 31.8067 102.586 31.7C102.266 31.34 101.886 31.0667 101.446 30.88C101.006 30.6933 100.532 30.6 100.026 30.6C99.639 30.6 99.2723 30.6667 98.9256 30.8C98.5923 30.92 98.3123 31.1067 98.0856 31.36C97.859 31.6133 97.7456 31.9467 97.7456 32.36C97.7723 32.7467 97.9056 33.06 98.1456 33.3C98.399 33.54 98.7256 33.74 99.1256 33.9C99.539 34.06 99.999 34.2067 100.506 34.34C100.932 34.4467 101.339 34.5733 101.726 34.72C102.126 34.8667 102.472 35.0533 102.766 35.28C103.072 35.4933 103.312 35.7667 103.486 36.1C103.672 36.4333 103.766 36.8533 103.766 37.36C103.766 37.9467 103.599 38.4533 103.266 38.88C102.946 39.3067 102.512 39.6333 101.966 39.86C101.419 40.0867 100.812 40.2 100.146 40.2C99.4256 40.2 98.7256 40.06 98.0456 39.78C97.379 39.5 96.7856 39.0333 96.2656 38.38ZM116.309 40.2C115.283 40.2 114.376 39.98 113.589 39.54C112.803 39.1 112.189 38.4867 111.749 37.7C111.309 36.9133 111.089 35.9933 111.089 34.94C111.089 33.8067 111.309 32.84 111.749 32.04C112.203 31.24 112.783 30.6267 113.489 30.2C114.209 29.76 114.969 29.54 115.769 29.54C116.356 29.54 116.923 29.6467 117.469 29.86C118.029 30.06 118.523 30.3667 118.949 30.78C119.389 31.18 119.736 31.6733 119.989 32.26C120.256 32.8467 120.403 33.5267 120.429 34.3C120.416 34.46 120.349 34.6 120.229 34.72C120.109 34.8267 119.969 34.88 119.809 34.88H111.789L111.549 33.8H119.429L119.169 34.04V33.64C119.116 33.0133 118.916 32.48 118.569 32.04C118.223 31.6 117.803 31.2667 117.309 31.04C116.816 30.8133 116.303 30.7 115.769 30.7C115.369 30.7 114.956 30.78 114.529 30.94C114.116 31.1 113.736 31.3533 113.389 31.7C113.056 32.0333 112.783 32.4667 112.569 33C112.356 33.52 112.249 34.14 112.249 34.86C112.249 35.6467 112.409 36.36 112.729 37C113.049 37.64 113.509 38.1467 114.109 38.52C114.723 38.8933 115.449 39.08 116.289 39.08C116.756 39.08 117.176 39.0133 117.549 38.88C117.923 38.7467 118.249 38.5733 118.529 38.36C118.809 38.1333 119.043 37.9 119.229 37.66C119.376 37.54 119.523 37.48 119.669 37.48C119.803 37.48 119.916 37.5333 120.009 37.64C120.116 37.7467 120.169 37.8667 120.169 38C120.169 38.16 120.103 38.3 119.969 38.42C119.569 38.9 119.049 39.32 118.409 39.68C117.769 40.0267 117.069 40.2 116.309 40.2ZM122.66 29.56C122.767 29.56 122.874 29.5933 122.98 29.66C123.087 29.7267 123.167 29.8267 123.22 29.96L126.72 38.28L126.46 38.44L130.04 29.96C130.147 29.6933 130.34 29.5667 130.62 29.58C130.754 29.58 130.88 29.6267 131 29.72C131.12 29.8 131.18 29.92 131.18 30.08C131.18 30.16 131.167 30.2267 131.14 30.28C131.127 30.32 131.114 30.3667 131.1 30.42L127.18 39.62C127.074 39.86 126.894 39.9867 126.64 40C126.52 40.0133 126.4 39.9867 126.28 39.92C126.174 39.84 126.094 39.74 126.04 39.62L122.1 30.42C122.087 30.3933 122.074 30.3533 122.06 30.3C122.047 30.2467 122.04 30.1933 122.04 30.14C122.04 29.9933 122.094 29.86 122.2 29.74C122.307 29.62 122.46 29.56 122.66 29.56ZM138.009 40.2C136.982 40.2 136.075 39.98 135.289 39.54C134.502 39.1 133.889 38.4867 133.449 37.7C133.009 36.9133 132.789 35.9933 132.789 34.94C132.789 33.8067 133.009 32.84 133.449 32.04C133.902 31.24 134.482 30.6267 135.189 30.2C135.909 29.76 136.669 29.54 137.469 29.54C138.055 29.54 138.622 29.6467 139.169 29.86C139.729 30.06 140.222 30.3667 140.649 30.78C141.089 31.18 141.435 31.6733 141.689 32.26C141.955 32.8467 142.102 33.5267 142.129 34.3C142.115 34.46 142.049 34.6 141.929 34.72C141.809 34.8267 141.669 34.88 141.509 34.88H133.489L133.249 33.8H141.129L140.869 34.04V33.64C140.815 33.0133 140.615 32.48 140.269 32.04C139.922 31.6 139.502 31.2667 139.009 31.04C138.515 30.8133 138.002 30.7 137.469 30.7C137.069 30.7 136.655 30.78 136.229 30.94C135.815 31.1 135.435 31.3533 135.089 31.7C134.755 32.0333 134.482 32.4667 134.269 33C134.055 33.52 133.949 34.14 133.949 34.86C133.949 35.6467 134.109 36.36 134.429 37C134.749 37.64 135.209 38.1467 135.809 38.52C136.422 38.8933 137.149 39.08 137.989 39.08C138.455 39.08 138.875 39.0133 139.249 38.88C139.622 38.7467 139.949 38.5733 140.229 38.36C140.509 38.1333 140.742 37.9 140.929 37.66C141.075 37.54 141.222 37.48 141.369 37.48C141.502 37.48 141.615 37.5333 141.709 37.64C141.815 37.7467 141.869 37.8667 141.869 38C141.869 38.16 141.802 38.3 141.669 38.42C141.269 38.9 140.749 39.32 140.109 39.68C139.469 40.0267 138.769 40.2 138.009 40.2ZM149.517 29.54C150.397 29.54 151.097 29.72 151.617 30.08C152.151 30.4267 152.531 30.9067 152.757 31.52C152.997 32.12 153.117 32.7867 153.117 33.52V39.4C153.117 39.56 153.057 39.7 152.937 39.82C152.817 39.94 152.677 40 152.517 40C152.331 40 152.184 39.94 152.077 39.82C151.971 39.7 151.917 39.56 151.917 39.4V33.58C151.917 33.0467 151.831 32.56 151.657 32.12C151.484 31.68 151.197 31.3267 150.797 31.06C150.411 30.7933 149.897 30.66 149.257 30.66C148.684 30.66 148.137 30.7933 147.617 31.06C147.111 31.3267 146.697 31.68 146.377 32.12C146.057 32.56 145.897 33.0467 145.897 33.58V39.4C145.897 39.56 145.837 39.7 145.717 39.82C145.597 39.94 145.457 40 145.297 40C145.111 40 144.964 39.94 144.857 39.82C144.751 39.7 144.697 39.56 144.697 39.4V30.44C144.697 30.28 144.751 30.14 144.857 30.02C144.977 29.9 145.124 29.84 145.297 29.84C145.471 29.84 145.611 29.9 145.717 30.02C145.837 30.14 145.897 30.28 145.897 30.44V32.12L145.437 32.84C145.464 32.4133 145.597 32.0067 145.837 31.62C146.091 31.22 146.411 30.8667 146.797 30.56C147.184 30.24 147.611 29.9933 148.077 29.82C148.557 29.6333 149.037 29.54 149.517 29.54ZM170.108 29.78C170.282 29.78 170.422 29.84 170.528 29.96C170.648 30.08 170.708 30.2267 170.708 30.4V39.4C170.708 39.56 170.648 39.7 170.528 39.82C170.408 39.94 170.268 40 170.108 40C169.935 40 169.788 39.94 169.668 39.82C169.562 39.7 169.508 39.56 169.508 39.4V37.02L169.848 36.86C169.848 37.2333 169.742 37.6133 169.528 38C169.328 38.3867 169.048 38.7467 168.688 39.08C168.328 39.4133 167.902 39.6867 167.408 39.9C166.928 40.1 166.408 40.2 165.848 40.2C164.942 40.2 164.128 39.9667 163.408 39.5C162.702 39.0333 162.142 38.3933 161.728 37.58C161.328 36.7667 161.128 35.8533 161.128 34.84C161.128 33.8 161.335 32.8867 161.748 32.1C162.162 31.3 162.722 30.6733 163.428 30.22C164.135 29.7667 164.935 29.54 165.828 29.54C166.402 29.54 166.935 29.64 167.428 29.84C167.935 30.04 168.375 30.3133 168.748 30.66C169.122 31.0067 169.408 31.4067 169.608 31.86C169.822 32.3 169.928 32.76 169.928 33.24L169.508 32.94V30.4C169.508 30.2267 169.562 30.08 169.668 29.96C169.788 29.84 169.935 29.78 170.108 29.78ZM165.948 39.08C166.655 39.08 167.282 38.9 167.828 38.54C168.375 38.1667 168.802 37.66 169.108 37.02C169.428 36.3667 169.588 35.64 169.588 34.84C169.588 34.0533 169.428 33.3467 169.108 32.72C168.802 32.0933 168.375 31.5933 167.828 31.22C167.282 30.8467 166.655 30.66 165.948 30.66C165.255 30.66 164.628 30.84 164.068 31.2C163.522 31.56 163.088 32.0533 162.768 32.68C162.462 33.3067 162.308 34.0267 162.308 34.84C162.308 35.64 162.462 36.3667 162.768 37.02C163.088 37.66 163.522 38.1667 164.068 38.54C164.615 38.9 165.242 39.08 165.948 39.08ZM179.926 40C179.739 40 179.593 39.94 179.486 39.82C179.379 39.7 179.326 39.56 179.326 39.4V30.44C179.326 30.28 179.379 30.14 179.486 30.02C179.606 29.9 179.753 29.84 179.926 29.84C180.099 29.84 180.239 29.9 180.346 30.02C180.466 30.14 180.526 30.28 180.526 30.44V33.44L180.226 33.5C180.266 33.0333 180.379 32.5733 180.566 32.12C180.766 31.6533 181.033 31.2267 181.366 30.84C181.699 30.4533 182.093 30.14 182.546 29.9C183.013 29.66 183.533 29.54 184.106 29.54C184.346 29.54 184.579 29.5933 184.806 29.7C185.033 29.7933 185.146 29.9533 185.146 30.18C185.146 30.38 185.093 30.5333 184.986 30.64C184.879 30.7467 184.753 30.8 184.606 30.8C184.486 30.8 184.353 30.7667 184.206 30.7C184.073 30.6333 183.893 30.6 183.666 30.6C183.293 30.6 182.919 30.7133 182.546 30.94C182.173 31.1533 181.833 31.4467 181.526 31.82C181.219 32.1933 180.973 32.6133 180.786 33.08C180.613 33.5333 180.526 33.9933 180.526 34.46V39.4C180.526 39.56 180.466 39.7 180.346 39.82C180.226 39.94 180.086 40 179.926 40ZM191.192 40.2C190.166 40.2 189.259 39.98 188.472 39.54C187.686 39.1 187.072 38.4867 186.632 37.7C186.192 36.9133 185.972 35.9933 185.972 34.94C185.972 33.8067 186.192 32.84 186.632 32.04C187.086 31.24 187.666 30.6267 188.372 30.2C189.092 29.76 189.852 29.54 190.652 29.54C191.239 29.54 191.806 29.6467 192.352 29.86C192.912 30.06 193.406 30.3667 193.832 30.78C194.272 31.18 194.619 31.6733 194.872 32.26C195.139 32.8467 195.286 33.5267 195.312 34.3C195.299 34.46 195.232 34.6 195.112 34.72C194.992 34.8267 194.852 34.88 194.692 34.88H186.672L186.432 33.8H194.312L194.052 34.04V33.64C193.999 33.0133 193.799 32.48 193.452 32.04C193.106 31.6 192.686 31.2667 192.192 31.04C191.699 30.8133 191.186 30.7 190.652 30.7C190.252 30.7 189.839 30.78 189.412 30.94C188.999 31.1 188.619 31.3533 188.272 31.7C187.939 32.0333 187.666 32.4667 187.452 33C187.239 33.52 187.132 34.14 187.132 34.86C187.132 35.6467 187.292 36.36 187.612 37C187.932 37.64 188.392 38.1467 188.992 38.52C189.606 38.8933 190.332 39.08 191.172 39.08C191.639 39.08 192.059 39.0133 192.432 38.88C192.806 38.7467 193.132 38.5733 193.412 38.36C193.692 38.1333 193.926 37.9 194.112 37.66C194.259 37.54 194.406 37.48 194.552 37.48C194.686 37.48 194.799 37.5333 194.892 37.64C194.999 37.7467 195.052 37.8667 195.052 38C195.052 38.16 194.986 38.3 194.852 38.42C194.452 38.9 193.932 39.32 193.292 39.68C192.652 40.0267 191.952 40.2 191.192 40.2ZM197.301 38.38C197.194 38.22 197.141 38.0667 197.141 37.92C197.154 37.76 197.241 37.6333 197.401 37.54C197.507 37.4467 197.627 37.4067 197.761 37.42C197.907 37.4333 198.041 37.5 198.161 37.62C198.521 38.0867 198.954 38.4667 199.461 38.76C199.981 39.04 200.594 39.18 201.301 39.18C201.674 39.18 202.041 39.12 202.401 39C202.774 38.8667 203.081 38.6733 203.321 38.42C203.561 38.1533 203.681 37.82 203.681 37.42C203.681 37.0067 203.561 36.6733 203.321 36.42C203.081 36.1667 202.767 35.9667 202.381 35.82C202.007 35.6733 201.607 35.5467 201.181 35.44C200.727 35.32 200.287 35.1867 199.861 35.04C199.434 34.88 199.054 34.6867 198.721 34.46C198.401 34.22 198.141 33.9333 197.941 33.6C197.741 33.2667 197.641 32.86 197.641 32.38C197.641 31.82 197.794 31.3267 198.101 30.9C198.407 30.4733 198.821 30.14 199.341 29.9C199.874 29.66 200.474 29.54 201.141 29.54C201.474 29.54 201.834 29.5867 202.221 29.68C202.607 29.76 202.987 29.9 203.361 30.1C203.734 30.3 204.067 30.5733 204.361 30.92C204.481 31.04 204.541 31.18 204.541 31.34C204.541 31.4867 204.474 31.62 204.341 31.74C204.234 31.82 204.107 31.86 203.961 31.86C203.827 31.86 203.714 31.8067 203.621 31.7C203.301 31.34 202.921 31.0667 202.481 30.88C202.041 30.6933 201.567 30.6 201.061 30.6C200.674 30.6 200.307 30.6667 199.961 30.8C199.627 30.92 199.347 31.1067 199.121 31.36C198.894 31.6133 198.781 31.9467 198.781 32.36C198.807 32.7467 198.941 33.06 199.181 33.3C199.434 33.54 199.761 33.74 200.161 33.9C200.574 34.06 201.034 34.2067 201.541 34.34C201.967 34.4467 202.374 34.5733 202.761 34.72C203.161 34.8667 203.507 35.0533 203.801 35.28C204.107 35.4933 204.347 35.7667 204.521 36.1C204.707 36.4333 204.801 36.8533 204.801 37.36C204.801 37.9467 204.634 38.4533 204.301 38.88C203.981 39.3067 203.547 39.6333 203.001 39.86C202.454 40.0867 201.847 40.2 201.181 40.2C200.461 40.2 199.761 40.06 199.081 39.78C198.414 39.5 197.821 39.0333 197.301 38.38ZM214.896 29.84C215.069 29.84 215.209 29.9 215.316 30.02C215.436 30.14 215.496 30.28 215.496 30.44V36.08C215.496 37.4 215.122 38.4067 214.376 39.1C213.629 39.7933 212.622 40.14 211.356 40.14C210.102 40.14 209.102 39.7933 208.356 39.1C207.622 38.4067 207.256 37.4 207.256 36.08V30.44C207.256 30.28 207.309 30.14 207.416 30.02C207.536 29.9 207.682 29.84 207.856 29.84C208.029 29.84 208.169 29.9 208.276 30.02C208.396 30.14 208.456 30.28 208.456 30.44V36.08C208.456 37.04 208.709 37.7733 209.216 38.28C209.736 38.7733 210.449 39.02 211.356 39.02C212.276 39.02 212.996 38.7733 213.516 38.28C214.036 37.7733 214.296 37.04 214.296 36.08V30.44C214.296 30.28 214.349 30.14 214.456 30.02C214.562 29.9 214.709 29.84 214.896 29.84ZM223.243 29.7C224.069 29.7 224.776 29.92 225.363 30.36C225.949 30.7867 226.349 31.4267 226.563 32.28L226.283 32.36L226.403 32C226.576 31.6 226.863 31.2267 227.263 30.88C227.676 30.52 228.143 30.2333 228.663 30.02C229.183 29.8067 229.709 29.7 230.243 29.7C231.083 29.7 231.756 29.88 232.263 30.24C232.783 30.6 233.156 31.0867 233.383 31.7C233.623 32.3 233.743 32.98 233.743 33.74V39.4C233.743 39.56 233.683 39.7 233.563 39.82C233.456 39.94 233.316 40 233.143 40C232.969 40 232.823 39.94 232.703 39.82C232.596 39.7 232.543 39.56 232.543 39.4V33.8C232.543 33.2533 232.456 32.7533 232.283 32.3C232.109 31.8467 231.836 31.4867 231.463 31.22C231.089 30.9533 230.589 30.82 229.963 30.82C229.416 30.82 228.889 30.9533 228.383 31.22C227.889 31.4867 227.483 31.8467 227.162 32.3C226.856 32.7533 226.703 33.2533 226.703 33.8V39.4C226.703 39.56 226.643 39.7 226.523 39.82C226.416 39.94 226.276 40 226.103 40C225.929 40 225.783 39.94 225.663 39.82C225.556 39.7 225.503 39.56 225.503 39.4V33.74C225.503 33.1933 225.423 32.7 225.263 32.26C225.103 31.82 224.843 31.4733 224.483 31.22C224.123 30.9533 223.636 30.82 223.023 30.82C222.476 30.82 221.956 30.9533 221.463 31.22C220.983 31.4733 220.589 31.82 220.283 32.26C219.989 32.7 219.843 33.1933 219.843 33.74V39.4C219.843 39.56 219.783 39.7 219.663 39.82C219.543 39.94 219.403 40 219.243 40C219.056 40 218.909 39.94 218.803 39.82C218.696 39.7 218.643 39.56 218.643 39.4V30.44C218.643 30.28 218.696 30.14 218.803 30.02C218.923 29.9 219.069 29.84 219.243 29.84C219.416 29.84 219.556 29.9 219.663 30.02C219.783 30.14 219.843 30.28 219.843 30.44V32.3L219.303 33.04C219.343 32.64 219.469 32.24 219.683 31.84C219.909 31.44 220.203 31.08 220.563 30.76C220.923 30.44 221.329 30.1867 221.783 30C222.249 29.8 222.736 29.7 223.243 29.7ZM241.505 40.2C240.478 40.2 239.571 39.98 238.785 39.54C237.998 39.1 237.385 38.4867 236.945 37.7C236.505 36.9133 236.285 35.9933 236.285 34.94C236.285 33.8067 236.505 32.84 236.945 32.04C237.398 31.24 237.978 30.6267 238.685 30.2C239.405 29.76 240.165 29.54 240.965 29.54C241.551 29.54 242.118 29.6467 242.665 29.86C243.225 30.06 243.718 30.3667 244.145 30.78C244.585 31.18 244.931 31.6733 245.185 32.26C245.451 32.8467 245.598 33.5267 245.625 34.3C245.611 34.46 245.545 34.6 245.425 34.72C245.305 34.8267 245.165 34.88 245.005 34.88H236.985L236.745 33.8H244.625L244.365 34.04V33.64C244.311 33.0133 244.111 32.48 243.765 32.04C243.418 31.6 242.998 31.2667 242.505 31.04C242.011 30.8133 241.498 30.7 240.965 30.7C240.565 30.7 240.151 30.78 239.725 30.94C239.311 31.1 238.931 31.3533 238.585 31.7C238.251 32.0333 237.978 32.4667 237.765 33C237.551 33.52 237.445 34.14 237.445 34.86C237.445 35.6467 237.605 36.36 237.925 37C238.245 37.64 238.705 38.1467 239.305 38.52C239.918 38.8933 240.645 39.08 241.485 39.08C241.951 39.08 242.371 39.0133 242.745 38.88C243.118 38.7467 243.445 38.5733 243.725 38.36C244.005 38.1333 244.238 37.9 244.425 37.66C244.571 37.54 244.718 37.48 244.865 37.48C244.998 37.48 245.111 37.5333 245.205 37.64C245.311 37.7467 245.365 37.8667 245.365 38C245.365 38.16 245.298 38.3 245.165 38.42C244.765 38.9 244.245 39.32 243.605 39.68C242.965 40.0267 242.265 40.2 241.505 40.2ZM250.633 33.28C250.633 33.1067 250.693 32.96 250.813 32.84C250.933 32.72 251.073 32.66 251.233 32.66C251.847 32.62 252.393 32.4667 252.873 32.2C253.353 31.9333 253.733 31.5733 254.013 31.12C254.293 30.6667 254.433 30.14 254.433 29.54C254.433 28.9133 254.3 28.3733 254.033 27.92C253.78 27.4533 253.433 27.0933 252.993 26.84C252.553 26.5733 252.053 26.44 251.493 26.44C250.947 26.44 250.433 26.5667 249.953 26.82C249.473 27.0733 249.073 27.4067 248.753 27.82C248.647 27.9267 248.52 28.0067 248.373 28.06C248.24 28.1 248.093 28.0667 247.933 27.96C247.773 27.8533 247.68 27.72 247.653 27.56C247.627 27.3867 247.673 27.2267 247.793 27.08C248.22 26.5467 248.76 26.1133 249.413 25.78C250.067 25.4467 250.76 25.28 251.493 25.28C252.267 25.28 252.967 25.4533 253.593 25.8C254.233 26.1467 254.74 26.64 255.113 27.28C255.487 27.92 255.673 28.6733 255.673 29.54C255.673 30.0733 255.567 30.5867 255.353 31.08C255.14 31.5733 254.847 32.0133 254.473 32.4C254.1 32.7867 253.667 33.0933 253.173 33.32C252.68 33.5467 252.147 33.6733 251.573 33.7C251.533 33.7 251.547 33.6933 251.613 33.68C251.68 33.6667 251.747 33.6267 251.813 33.56V35.66C251.813 35.8333 251.753 35.98 251.633 36.1C251.527 36.2067 251.387 36.26 251.213 36.26C251.04 36.26 250.893 36.2067 250.773 36.1C250.667 35.98 250.62 35.8333 250.633 35.66V33.28ZM251.233 40C251.007 40 250.827 39.9333 250.693 39.8C250.573 39.6533 250.513 39.4667 250.513 39.24V38.8C250.513 38.56 250.573 38.3733 250.693 38.24C250.827 38.1067 251.007 38.04 251.233 38.04H251.353C251.593 38.04 251.767 38.1067 251.873 38.24C251.993 38.3733 252.053 38.56 252.053 38.8V39.24C252.053 39.4667 251.993 39.6533 251.873 39.8C251.767 39.9333 251.593 40 251.353 40H251.233Z" fill="black"/>
<defs>
<filter id="filter0_d_22_70" x="0" y="0" width="316" height="65" filterUnits="userSpaceOnUse" color-interpolation-filters="sRGB">
<feFlood flood-opacity="0" result="BackgroundImageFix"/>
<feColorMatrix in="SourceAlpha" type="matrix" values="0 0 0 0 0 0 0 0 0 0 0 0 0 0 0 0 0 0 127 0" result="hardAlpha"/>
<feMorphology radius="2" operator="dilate" in="SourceAlpha" result="effect1_dropShadow_22_70"/>
<feOffset/>
<feGaussianBlur stdDeviation="5"/>
<feComposite in2="hardAlpha" operator="out"/>
<feColorMatrix type="matrix" values="0 0 0 0 0 0 0 0 0 0 0 0 0 0 0 0 0 0 0.1 0"/>
<feBlend mode="normal" in2="BackgroundImageFix" result="effect1_dropShadow_22_70"/>
<feBlend mode="normal" in="SourceGraphic" in2="effect1_dropShadow_22_70" result="shape"/>
</filter>
</defs>
</svg>
