<svg width="443" height="65" viewBox="0 0 443 65" fill="none" xmlns="http://www.w3.org/2000/svg">
<g filter="url(#filter0_d_22_68)">
<path d="M12 28C12 19.1634 19.1634 12 28 12H415C423.837 12 431 19.1634 431 28V37C431 45.8366 423.837 53 415 53H12V28Z" fill="white"/>
</g>
<path d="M66.58 26C67.5667 26 68.4267 26.1867 69.16 26.56C69.9067 26.9333 70.52 27.4533 71 28.12C71.48 28.7733 71.8333 29.52 72.06 30.36C72.3 31.2 72.42 32.08 72.42 33C72.42 34.28 72.2067 35.4533 71.78 36.52C71.3667 37.5733 70.7267 38.42 69.86 39.06C69.0067 39.6867 67.9133 40 66.58 40H61.48C61.32 40 61.18 39.94 61.06 39.82C60.94 39.7 60.88 39.56 60.88 39.4V26.6C60.88 26.44 60.94 26.3 61.06 26.18C61.18 26.06 61.32 26 61.48 26H66.58ZM66.38 38.82C67.5133 38.82 68.4267 38.56 69.12 38.04C69.8133 37.52 70.32 36.82 70.64 35.94C70.9733 35.0467 71.14 34.0667 71.14 33C71.14 32.2267 71.0467 31.4933 70.86 30.8C70.6867 30.0933 70.4067 29.4733 70.02 28.94C69.6467 28.3933 69.1533 27.9667 68.54 27.66C67.94 27.34 67.22 27.18 66.38 27.18H62L62.14 27V39.02L62.02 38.82H66.38ZM76.115 39.4C76.115 39.56 76.055 39.7 75.935 39.82C75.815 39.94 75.675 40 75.515 40C75.3417 40 75.195 39.94 75.075 39.82C74.9683 39.7 74.915 39.56 74.915 39.4V30.2C74.915 30.04 74.9683 29.9 75.075 29.78C75.195 29.66 75.3417 29.6 75.515 29.6C75.6883 29.6 75.8283 29.66 75.935 29.78C76.055 29.9 76.115 30.04 76.115 30.2V39.4ZM75.515 28.26C75.235 28.26 75.0217 28.2 74.875 28.08C74.7417 27.9467 74.675 27.76 74.675 27.52V27.32C74.675 27.08 74.7483 26.9 74.895 26.78C75.055 26.6467 75.2683 26.58 75.535 26.58C75.7883 26.58 75.9817 26.6467 76.115 26.78C76.2617 26.9 76.335 27.08 76.335 27.32V27.52C76.335 27.76 76.2617 27.9467 76.115 28.08C75.9817 28.2 75.7817 28.26 75.515 28.26ZM87.6123 25.2C87.7857 25.2 87.9257 25.26 88.0323 25.38C88.1523 25.4867 88.2123 25.6267 88.2123 25.8V39.4C88.2123 39.56 88.1523 39.7 88.0323 39.82C87.9123 39.94 87.7723 40 87.6123 40C87.439 40 87.2923 39.94 87.1723 39.82C87.0657 39.7 87.0123 39.56 87.0123 39.4V37.02L87.3523 36.74C87.3523 37.1133 87.2523 37.5067 87.0523 37.92C86.8523 38.32 86.5657 38.6933 86.1923 39.04C85.8323 39.3867 85.4057 39.6667 84.9123 39.88C84.4323 40.0933 83.9123 40.2 83.3523 40.2C82.459 40.2 81.6523 39.9667 80.9323 39.5C80.2257 39.0333 79.6657 38.4 79.2523 37.6C78.839 36.8 78.6323 35.8867 78.6323 34.86C78.6323 33.8467 78.839 32.94 79.2523 32.14C79.6657 31.3267 80.2257 30.6933 80.9323 30.24C81.639 29.7733 82.439 29.54 83.3323 29.54C83.879 29.54 84.399 29.64 84.8923 29.84C85.3857 30.04 85.819 30.3133 86.1923 30.66C86.579 31.0067 86.879 31.4067 87.0923 31.86C87.319 32.3 87.4323 32.76 87.4323 33.24L87.0123 32.94V25.8C87.0123 25.64 87.0657 25.5 87.1723 25.38C87.2923 25.26 87.439 25.2 87.6123 25.2ZM83.4523 39.08C84.1723 39.08 84.799 38.9 85.3323 38.54C85.879 38.1667 86.3057 37.6667 86.6123 37.04C86.9323 36.4 87.0923 35.6733 87.0923 34.86C87.0923 34.06 86.9323 33.3467 86.6123 32.72C86.3057 32.08 85.879 31.58 85.3323 31.22C84.7857 30.8467 84.159 30.66 83.4523 30.66C82.759 30.66 82.1323 30.8467 81.5723 31.22C81.0257 31.58 80.5923 32.08 80.2723 32.72C79.9657 33.3467 79.8123 34.06 79.8123 34.86C79.8123 35.66 79.9657 36.38 80.2723 37.02C80.5923 37.66 81.0257 38.1667 81.5723 38.54C82.1323 38.9 82.759 39.08 83.4523 39.08ZM96.25 38.38C96.1433 38.22 96.09 38.0667 96.09 37.92C96.1033 37.76 96.19 37.6333 96.35 37.54C96.4567 37.4467 96.5767 37.4067 96.71 37.42C96.8567 37.4333 96.99 37.5 97.11 37.62C97.47 38.0867 97.9033 38.4667 98.41 38.76C98.93 39.04 99.5433 39.18 100.25 39.18C100.623 39.18 100.99 39.12 101.35 39C101.723 38.8667 102.03 38.6733 102.27 38.42C102.51 38.1533 102.63 37.82 102.63 37.42C102.63 37.0067 102.51 36.6733 102.27 36.42C102.03 36.1667 101.717 35.9667 101.33 35.82C100.957 35.6733 100.557 35.5467 100.13 35.44C99.6767 35.32 99.2367 35.1867 98.81 35.04C98.3833 34.88 98.0033 34.6867 97.67 34.46C97.35 34.22 97.09 33.9333 96.89 33.6C96.69 33.2667 96.59 32.86 96.59 32.38C96.59 31.82 96.7433 31.3267 97.05 30.9C97.3567 30.4733 97.77 30.14 98.29 29.9C98.8233 29.66 99.4233 29.54 100.09 29.54C100.423 29.54 100.783 29.5867 101.17 29.68C101.557 29.76 101.937 29.9 102.31 30.1C102.683 30.3 103.017 30.5733 103.31 30.92C103.43 31.04 103.49 31.18 103.49 31.34C103.49 31.4867 103.423 31.62 103.29 31.74C103.183 31.82 103.057 31.86 102.91 31.86C102.777 31.86 102.663 31.8067 102.57 31.7C102.25 31.34 101.87 31.0667 101.43 30.88C100.99 30.6933 100.517 30.6 100.01 30.6C99.6233 30.6 99.2567 30.6667 98.91 30.8C98.5767 30.92 98.2967 31.1067 98.07 31.36C97.8433 31.6133 97.73 31.9467 97.73 32.36C97.7567 32.7467 97.89 33.06 98.13 33.3C98.3833 33.54 98.71 33.74 99.11 33.9C99.5233 34.06 99.9833 34.2067 100.49 34.34C100.917 34.4467 101.323 34.5733 101.71 34.72C102.11 34.8667 102.457 35.0533 102.75 35.28C103.057 35.4933 103.297 35.7667 103.47 36.1C103.657 36.4333 103.75 36.8533 103.75 37.36C103.75 37.9467 103.583 38.4533 103.25 38.88C102.93 39.3067 102.497 39.6333 101.95 39.86C101.403 40.0867 100.797 40.2 100.13 40.2C99.41 40.2 98.71 40.06 98.03 39.78C97.3633 39.5 96.77 39.0333 96.25 38.38ZM110.865 29.7C111.705 29.7 112.385 29.88 112.905 30.24C113.425 30.6 113.805 31.0867 114.045 31.7C114.298 32.3133 114.425 32.9933 114.425 33.74V39.4C114.425 39.56 114.365 39.7 114.245 39.82C114.125 39.94 113.985 40 113.825 40C113.638 40 113.492 39.94 113.385 39.82C113.278 39.7 113.225 39.56 113.225 39.4V33.74C113.225 33.1933 113.138 32.7 112.965 32.26C112.805 31.82 112.538 31.4733 112.165 31.22C111.792 30.9533 111.292 30.82 110.665 30.82C110.105 30.82 109.572 30.9533 109.065 31.22C108.572 31.4733 108.172 31.82 107.865 32.26C107.558 32.7 107.405 33.1933 107.405 33.74V39.4C107.405 39.56 107.345 39.7 107.225 39.82C107.105 39.94 106.965 40 106.805 40C106.618 40 106.472 39.94 106.365 39.82C106.258 39.7 106.205 39.56 106.205 39.4V25.8C106.205 25.64 106.258 25.5 106.365 25.38C106.485 25.26 106.632 25.2 106.805 25.2C106.978 25.2 107.118 25.26 107.225 25.38C107.345 25.5 107.405 25.64 107.405 25.8V32.28L106.945 32.98C106.972 32.5667 107.098 32.1667 107.325 31.78C107.565 31.38 107.872 31.0267 108.245 30.72C108.618 30.4 109.032 30.1533 109.485 29.98C109.938 29.7933 110.398 29.7 110.865 29.7ZM122.192 40.2C121.166 40.2 120.259 39.98 119.472 39.54C118.686 39.1 118.072 38.4867 117.632 37.7C117.192 36.9133 116.972 35.9933 116.972 34.94C116.972 33.8067 117.192 32.84 117.632 32.04C118.086 31.24 118.666 30.6267 119.372 30.2C120.092 29.76 120.852 29.54 121.652 29.54C122.239 29.54 122.806 29.6467 123.352 29.86C123.912 30.06 124.406 30.3667 124.832 30.78C125.272 31.18 125.619 31.6733 125.872 32.26C126.139 32.8467 126.286 33.5267 126.312 34.3C126.299 34.46 126.232 34.6 126.112 34.72C125.992 34.8267 125.852 34.88 125.692 34.88H117.672L117.432 33.8H125.312L125.052 34.04V33.64C124.999 33.0133 124.799 32.48 124.452 32.04C124.106 31.6 123.686 31.2667 123.192 31.04C122.699 30.8133 122.186 30.7 121.652 30.7C121.252 30.7 120.839 30.78 120.412 30.94C119.999 31.1 119.619 31.3533 119.272 31.7C118.939 32.0333 118.666 32.4667 118.452 33C118.239 33.52 118.132 34.14 118.132 34.86C118.132 35.6467 118.292 36.36 118.612 37C118.932 37.64 119.392 38.1467 119.992 38.52C120.606 38.8933 121.332 39.08 122.172 39.08C122.639 39.08 123.059 39.0133 123.432 38.88C123.806 38.7467 124.132 38.5733 124.412 38.36C124.692 38.1333 124.926 37.9 125.112 37.66C125.259 37.54 125.406 37.48 125.552 37.48C125.686 37.48 125.799 37.5333 125.892 37.64C125.999 37.7467 126.052 37.8667 126.052 38C126.052 38.16 125.986 38.3 125.852 38.42C125.452 38.9 124.932 39.32 124.292 39.68C123.652 40.0267 122.952 40.2 122.192 40.2ZM134.95 40C134.763 40 134.616 39.94 134.51 39.82C134.403 39.7 134.35 39.56 134.35 39.4V30.44C134.35 30.28 134.403 30.14 134.51 30.02C134.63 29.9 134.776 29.84 134.95 29.84C135.123 29.84 135.263 29.9 135.37 30.02C135.49 30.14 135.55 30.28 135.55 30.44V33.44L135.25 33.5C135.29 33.0333 135.403 32.5733 135.59 32.12C135.79 31.6533 136.056 31.2267 136.39 30.84C136.723 30.4533 137.116 30.14 137.57 29.9C138.036 29.66 138.556 29.54 139.13 29.54C139.37 29.54 139.603 29.5933 139.83 29.7C140.056 29.7933 140.17 29.9533 140.17 30.18C140.17 30.38 140.116 30.5333 140.01 30.64C139.903 30.7467 139.776 30.8 139.63 30.8C139.51 30.8 139.376 30.7667 139.23 30.7C139.096 30.6333 138.916 30.6 138.69 30.6C138.316 30.6 137.943 30.7133 137.57 30.94C137.196 31.1533 136.856 31.4467 136.55 31.82C136.243 32.1933 135.996 32.6133 135.81 33.08C135.636 33.5333 135.55 33.9933 135.55 34.46V39.4C135.55 39.56 135.49 39.7 135.37 39.82C135.25 39.94 135.11 40 134.95 40ZM146.216 40.2C145.189 40.2 144.282 39.98 143.496 39.54C142.709 39.1 142.096 38.4867 141.656 37.7C141.216 36.9133 140.996 35.9933 140.996 34.94C140.996 33.8067 141.216 32.84 141.656 32.04C142.109 31.24 142.689 30.6267 143.396 30.2C144.116 29.76 144.876 29.54 145.676 29.54C146.262 29.54 146.829 29.6467 147.376 29.86C147.936 30.06 148.429 30.3667 148.856 30.78C149.296 31.18 149.642 31.6733 149.896 32.26C150.162 32.8467 150.309 33.5267 150.336 34.3C150.322 34.46 150.256 34.6 150.136 34.72C150.016 34.8267 149.876 34.88 149.716 34.88H141.696L141.456 33.8H149.336L149.076 34.04V33.64C149.022 33.0133 148.822 32.48 148.476 32.04C148.129 31.6 147.709 31.2667 147.216 31.04C146.722 30.8133 146.209 30.7 145.676 30.7C145.276 30.7 144.862 30.78 144.436 30.94C144.022 31.1 143.642 31.3533 143.296 31.7C142.962 32.0333 142.689 32.4667 142.476 33C142.262 33.52 142.156 34.14 142.156 34.86C142.156 35.6467 142.316 36.36 142.636 37C142.956 37.64 143.416 38.1467 144.016 38.52C144.629 38.8933 145.356 39.08 146.196 39.08C146.662 39.08 147.082 39.0133 147.456 38.88C147.829 38.7467 148.156 38.5733 148.436 38.36C148.716 38.1333 148.949 37.9 149.136 37.66C149.282 37.54 149.429 37.48 149.576 37.48C149.709 37.48 149.822 37.5333 149.916 37.64C150.022 37.7467 150.076 37.8667 150.076 38C150.076 38.16 150.009 38.3 149.876 38.42C149.476 38.9 148.956 39.32 148.316 39.68C147.676 40.0267 146.976 40.2 146.216 40.2ZM161.362 29.78C161.536 29.78 161.676 29.84 161.782 29.96C161.902 30.08 161.962 30.2267 161.962 30.4V39.4C161.962 39.56 161.902 39.7 161.782 39.82C161.662 39.94 161.522 40 161.362 40C161.189 40 161.042 39.94 160.922 39.82C160.816 39.7 160.762 39.56 160.762 39.4V37.02L161.102 36.86C161.102 37.2333 160.996 37.6133 160.782 38C160.582 38.3867 160.302 38.7467 159.942 39.08C159.582 39.4133 159.156 39.6867 158.662 39.9C158.182 40.1 157.662 40.2 157.102 40.2C156.196 40.2 155.382 39.9667 154.662 39.5C153.956 39.0333 153.396 38.3933 152.982 37.58C152.582 36.7667 152.382 35.8533 152.382 34.84C152.382 33.8 152.589 32.8867 153.002 32.1C153.416 31.3 153.976 30.6733 154.682 30.22C155.389 29.7667 156.189 29.54 157.082 29.54C157.656 29.54 158.189 29.64 158.682 29.84C159.189 30.04 159.629 30.3133 160.002 30.66C160.376 31.0067 160.662 31.4067 160.862 31.86C161.076 32.3 161.182 32.76 161.182 33.24L160.762 32.94V30.4C160.762 30.2267 160.816 30.08 160.922 29.96C161.042 29.84 161.189 29.78 161.362 29.78ZM157.202 39.08C157.909 39.08 158.536 38.9 159.082 38.54C159.629 38.1667 160.056 37.66 160.362 37.02C160.682 36.3667 160.842 35.64 160.842 34.84C160.842 34.0533 160.682 33.3467 160.362 32.72C160.056 32.0933 159.629 31.5933 159.082 31.22C158.536 30.8467 157.909 30.66 157.202 30.66C156.509 30.66 155.882 30.84 155.322 31.2C154.776 31.56 154.342 32.0533 154.022 32.68C153.716 33.3067 153.562 34.0267 153.562 34.84C153.562 35.64 153.716 36.3667 154.022 37.02C154.342 37.66 154.776 38.1667 155.322 38.54C155.869 38.9 156.496 39.08 157.202 39.08ZM173.491 25.2C173.665 25.2 173.805 25.26 173.911 25.38C174.031 25.4867 174.091 25.6267 174.091 25.8V39.4C174.091 39.56 174.031 39.7 173.911 39.82C173.791 39.94 173.651 40 173.491 40C173.318 40 173.171 39.94 173.051 39.82C172.945 39.7 172.891 39.56 172.891 39.4V37.02L173.231 36.74C173.231 37.1133 173.131 37.5067 172.931 37.92C172.731 38.32 172.445 38.6933 172.071 39.04C171.711 39.3867 171.285 39.6667 170.791 39.88C170.311 40.0933 169.791 40.2 169.231 40.2C168.338 40.2 167.531 39.9667 166.811 39.5C166.105 39.0333 165.545 38.4 165.131 37.6C164.718 36.8 164.511 35.8867 164.511 34.86C164.511 33.8467 164.718 32.94 165.131 32.14C165.545 31.3267 166.105 30.6933 166.811 30.24C167.518 29.7733 168.318 29.54 169.211 29.54C169.758 29.54 170.278 29.64 170.771 29.84C171.265 30.04 171.698 30.3133 172.071 30.66C172.458 31.0067 172.758 31.4067 172.971 31.86C173.198 32.3 173.311 32.76 173.311 33.24L172.891 32.94V25.8C172.891 25.64 172.945 25.5 173.051 25.38C173.171 25.26 173.318 25.2 173.491 25.2ZM169.331 39.08C170.051 39.08 170.678 38.9 171.211 38.54C171.758 38.1667 172.185 37.6667 172.491 37.04C172.811 36.4 172.971 35.6733 172.971 34.86C172.971 34.06 172.811 33.3467 172.491 32.72C172.185 32.08 171.758 31.58 171.211 31.22C170.665 30.8467 170.038 30.66 169.331 30.66C168.638 30.66 168.011 30.8467 167.451 31.22C166.905 31.58 166.471 32.08 166.151 32.72C165.845 33.3467 165.691 34.06 165.691 34.86C165.691 35.66 165.845 36.38 166.151 37.02C166.471 37.66 166.905 38.1667 167.451 38.54C168.011 38.9 168.638 39.08 169.331 39.08ZM182.049 29.82H186.709C186.869 29.82 187.002 29.88 187.109 30C187.216 30.1067 187.269 30.24 187.269 30.4C187.269 30.5467 187.216 30.6733 187.109 30.78C187.002 30.8867 186.869 30.94 186.709 30.94H182.049C181.889 30.94 181.749 30.8867 181.629 30.78C181.522 30.66 181.469 30.5267 181.469 30.38C181.469 30.22 181.522 30.0867 181.629 29.98C181.749 29.8733 181.889 29.82 182.049 29.82ZM184.109 27C184.282 27 184.422 27.06 184.529 27.18C184.649 27.3 184.709 27.44 184.709 27.6V37.64C184.709 38.0133 184.756 38.2933 184.849 38.48C184.956 38.6667 185.089 38.7933 185.249 38.86C185.409 38.9133 185.569 38.94 185.729 38.94C185.836 38.94 185.929 38.9267 186.009 38.9C186.102 38.86 186.202 38.84 186.309 38.84C186.429 38.84 186.529 38.8867 186.609 38.98C186.702 39.0733 186.749 39.1933 186.749 39.34C186.749 39.5267 186.642 39.6867 186.429 39.82C186.216 39.94 185.962 40 185.669 40C185.549 40 185.369 39.9933 185.129 39.98C184.889 39.9533 184.642 39.88 184.389 39.76C184.136 39.6267 183.922 39.4 183.749 39.08C183.589 38.76 183.509 38.3 183.509 37.7V27.6C183.509 27.44 183.562 27.3 183.669 27.18C183.789 27.06 183.936 27 184.109 27ZM194.146 29.7C194.986 29.7 195.666 29.88 196.186 30.24C196.706 30.6 197.086 31.0867 197.326 31.7C197.58 32.3133 197.706 32.9933 197.706 33.74V39.4C197.706 39.56 197.646 39.7 197.526 39.82C197.406 39.94 197.266 40 197.106 40C196.92 40 196.773 39.94 196.666 39.82C196.56 39.7 196.506 39.56 196.506 39.4V33.74C196.506 33.1933 196.42 32.7 196.246 32.26C196.086 31.82 195.82 31.4733 195.446 31.22C195.073 30.9533 194.573 30.82 193.946 30.82C193.386 30.82 192.853 30.9533 192.346 31.22C191.853 31.4733 191.453 31.82 191.146 32.26C190.84 32.7 190.686 33.1933 190.686 33.74V39.4C190.686 39.56 190.626 39.7 190.506 39.82C190.386 39.94 190.246 40 190.086 40C189.9 40 189.753 39.94 189.646 39.82C189.54 39.7 189.486 39.56 189.486 39.4V25.8C189.486 25.64 189.54 25.5 189.646 25.38C189.766 25.26 189.913 25.2 190.086 25.2C190.26 25.2 190.4 25.26 190.506 25.38C190.626 25.5 190.686 25.64 190.686 25.8V32.28L190.226 32.98C190.253 32.5667 190.38 32.1667 190.606 31.78C190.846 31.38 191.153 31.0267 191.526 30.72C191.9 30.4 192.313 30.1533 192.766 29.98C193.22 29.7933 193.68 29.7 194.146 29.7ZM205.473 40.2C204.447 40.2 203.54 39.98 202.753 39.54C201.967 39.1 201.353 38.4867 200.913 37.7C200.473 36.9133 200.253 35.9933 200.253 34.94C200.253 33.8067 200.473 32.84 200.913 32.04C201.367 31.24 201.947 30.6267 202.653 30.2C203.373 29.76 204.133 29.54 204.933 29.54C205.52 29.54 206.087 29.6467 206.633 29.86C207.193 30.06 207.687 30.3667 208.113 30.78C208.553 31.18 208.9 31.6733 209.153 32.26C209.42 32.8467 209.567 33.5267 209.593 34.3C209.58 34.46 209.513 34.6 209.393 34.72C209.273 34.8267 209.133 34.88 208.973 34.88H200.953L200.713 33.8H208.593L208.333 34.04V33.64C208.28 33.0133 208.08 32.48 207.733 32.04C207.387 31.6 206.967 31.2667 206.473 31.04C205.98 30.8133 205.467 30.7 204.933 30.7C204.533 30.7 204.12 30.78 203.693 30.94C203.28 31.1 202.9 31.3533 202.553 31.7C202.22 32.0333 201.947 32.4667 201.733 33C201.52 33.52 201.413 34.14 201.413 34.86C201.413 35.6467 201.573 36.36 201.893 37C202.213 37.64 202.673 38.1467 203.273 38.52C203.887 38.8933 204.613 39.08 205.453 39.08C205.92 39.08 206.34 39.0133 206.713 38.88C207.087 38.7467 207.413 38.5733 207.693 38.36C207.973 38.1333 208.207 37.9 208.393 37.66C208.54 37.54 208.687 37.48 208.833 37.48C208.967 37.48 209.08 37.5333 209.173 37.64C209.28 37.7467 209.333 37.8667 209.333 38C209.333 38.16 209.267 38.3 209.133 38.42C208.733 38.9 208.213 39.32 207.573 39.68C206.933 40.0267 206.233 40.2 205.473 40.2ZM219.091 40.92C219.091 41.56 218.937 42.1 218.631 42.54C218.337 42.9933 217.971 43.34 217.531 43.58C217.091 43.82 216.651 43.94 216.211 43.94C216.037 43.94 215.904 43.8867 215.811 43.78C215.704 43.6733 215.651 43.5467 215.651 43.4V43.32C215.651 43.16 215.704 43.0333 215.811 42.94C215.917 42.8467 216.037 42.7867 216.171 42.76C216.477 42.6933 216.757 42.58 217.011 42.42C217.277 42.26 217.491 42.04 217.651 41.76C217.811 41.48 217.891 41.14 217.891 40.74V30.42C217.891 30.26 217.944 30.12 218.051 30C218.171 29.88 218.317 29.82 218.491 29.82C218.664 29.82 218.804 29.88 218.911 30C219.031 30.12 219.091 30.26 219.091 30.42V40.92ZM218.491 28.24C218.211 28.24 217.997 28.18 217.851 28.06C217.717 27.9267 217.651 27.74 217.651 27.5V27.3C217.651 27.06 217.724 26.88 217.871 26.76C218.031 26.6267 218.244 26.56 218.511 26.56C218.764 26.56 218.957 26.6267 219.091 26.76C219.237 26.88 219.311 27.06 219.311 27.3V27.5C219.311 27.74 219.237 27.9267 219.091 28.06C218.957 28.18 218.757 28.24 218.491 28.24ZM232.541 34.88C232.541 35.8933 232.321 36.8067 231.881 37.62C231.441 38.42 230.841 39.0533 230.081 39.52C229.321 39.9733 228.455 40.2 227.481 40.2C226.535 40.2 225.675 39.9733 224.901 39.52C224.141 39.0533 223.535 38.42 223.081 37.62C222.641 36.8067 222.421 35.8933 222.421 34.88C222.421 33.8533 222.641 32.94 223.081 32.14C223.535 31.34 224.141 30.7067 224.901 30.24C225.675 29.7733 226.535 29.54 227.481 29.54C228.455 29.54 229.321 29.7733 230.081 30.24C230.841 30.7067 231.441 31.34 231.881 32.14C232.321 32.94 232.541 33.8533 232.541 34.88ZM231.341 34.88C231.341 34.0667 231.175 33.3467 230.841 32.72C230.508 32.08 230.048 31.58 229.461 31.22C228.888 30.8467 228.228 30.66 227.481 30.66C226.761 30.66 226.108 30.8467 225.521 31.22C224.935 31.58 224.468 32.08 224.121 32.72C223.788 33.3467 223.621 34.0667 223.621 34.88C223.621 35.6933 223.788 36.4133 224.121 37.04C224.468 37.6667 224.935 38.1667 225.521 38.54C226.108 38.9 226.761 39.08 227.481 39.08C228.228 39.08 228.888 38.9 229.461 38.54C230.048 38.1667 230.508 37.6667 230.841 37.04C231.175 36.4133 231.341 35.6933 231.341 34.88ZM239.952 29.54C240.858 29.54 241.658 29.7667 242.352 30.22C243.058 30.6733 243.618 31.3 244.032 32.1C244.445 32.8867 244.652 33.8 244.652 34.84C244.652 35.8533 244.445 36.7667 244.032 37.58C243.618 38.3933 243.058 39.0333 242.352 39.5C241.645 39.9667 240.852 40.2 239.972 40.2C239.505 40.2 239.058 40.1267 238.632 39.98C238.218 39.8333 237.838 39.64 237.492 39.4C237.145 39.1467 236.838 38.8533 236.572 38.52C236.305 38.1867 236.092 37.8267 235.932 37.44L236.292 37.18V39.44C236.292 39.6133 236.232 39.76 236.112 39.88C236.005 39.9867 235.865 40.04 235.692 40.04C235.518 40.04 235.372 39.9867 235.252 39.88C235.145 39.76 235.092 39.6133 235.092 39.44V25.82C235.092 25.6467 235.145 25.5067 235.252 25.4C235.358 25.28 235.505 25.22 235.692 25.22C235.865 25.22 236.005 25.28 236.112 25.4C236.232 25.5067 236.292 25.6467 236.292 25.82V32.52L236.012 32.36C236.145 31.9467 236.338 31.5733 236.592 31.24C236.858 30.8933 237.165 30.5933 237.512 30.34C237.858 30.0867 238.238 29.8933 238.652 29.76C239.065 29.6133 239.498 29.54 239.952 29.54ZM239.852 30.66C239.132 30.66 238.498 30.84 237.952 31.2C237.405 31.56 236.972 32.0533 236.652 32.68C236.345 33.3067 236.192 34.0267 236.192 34.84C236.192 35.64 236.345 36.3667 236.652 37.02C236.972 37.66 237.405 38.1667 237.952 38.54C238.498 38.9 239.132 39.08 239.852 39.08C240.558 39.08 241.178 38.8933 241.712 38.52C242.258 38.1467 242.692 37.64 243.012 37C243.332 36.3467 243.492 35.6267 243.492 34.84C243.492 34.0267 243.332 33.3067 243.012 32.68C242.692 32.0533 242.258 31.56 241.712 31.2C241.178 30.84 240.558 30.66 239.852 30.66ZM253.289 40C253.103 40 252.956 39.94 252.849 39.82C252.743 39.7 252.689 39.56 252.689 39.4V30.44C252.689 30.28 252.743 30.14 252.849 30.02C252.969 29.9 253.116 29.84 253.289 29.84C253.463 29.84 253.603 29.9 253.709 30.02C253.829 30.14 253.889 30.28 253.889 30.44V33.44L253.589 33.5C253.629 33.0333 253.743 32.5733 253.929 32.12C254.129 31.6533 254.396 31.2267 254.729 30.84C255.063 30.4533 255.456 30.14 255.909 29.9C256.376 29.66 256.896 29.54 257.469 29.54C257.709 29.54 257.943 29.5933 258.169 29.7C258.396 29.7933 258.509 29.9533 258.509 30.18C258.509 30.38 258.456 30.5333 258.349 30.64C258.243 30.7467 258.116 30.8 257.969 30.8C257.849 30.8 257.716 30.7667 257.569 30.7C257.436 30.6333 257.256 30.6 257.029 30.6C256.656 30.6 256.283 30.7133 255.909 30.94C255.536 31.1533 255.196 31.4467 254.889 31.82C254.583 32.1933 254.336 32.6133 254.149 33.08C253.976 33.5333 253.889 33.9933 253.889 34.46V39.4C253.889 39.56 253.829 39.7 253.709 39.82C253.589 39.94 253.449 40 253.289 40ZM264.555 40.2C263.529 40.2 262.622 39.98 261.835 39.54C261.049 39.1 260.435 38.4867 259.995 37.7C259.555 36.9133 259.335 35.9933 259.335 34.94C259.335 33.8067 259.555 32.84 259.995 32.04C260.449 31.24 261.029 30.6267 261.735 30.2C262.455 29.76 263.215 29.54 264.015 29.54C264.602 29.54 265.169 29.6467 265.715 29.86C266.275 30.06 266.769 30.3667 267.195 30.78C267.635 31.18 267.982 31.6733 268.235 32.26C268.502 32.8467 268.649 33.5267 268.675 34.3C268.662 34.46 268.595 34.6 268.475 34.72C268.355 34.8267 268.215 34.88 268.055 34.88H260.035L259.795 33.8H267.675L267.415 34.04V33.64C267.362 33.0133 267.162 32.48 266.815 32.04C266.469 31.6 266.049 31.2667 265.555 31.04C265.062 30.8133 264.549 30.7 264.015 30.7C263.615 30.7 263.202 30.78 262.775 30.94C262.362 31.1 261.982 31.3533 261.635 31.7C261.302 32.0333 261.029 32.4667 260.815 33C260.602 33.52 260.495 34.14 260.495 34.86C260.495 35.6467 260.655 36.36 260.975 37C261.295 37.64 261.755 38.1467 262.355 38.52C262.969 38.8933 263.695 39.08 264.535 39.08C265.002 39.08 265.422 39.0133 265.795 38.88C266.169 38.7467 266.495 38.5733 266.775 38.36C267.055 38.1333 267.289 37.9 267.475 37.66C267.622 37.54 267.769 37.48 267.915 37.48C268.049 37.48 268.162 37.5333 268.255 37.64C268.362 37.7467 268.415 37.8667 268.415 38C268.415 38.16 268.349 38.3 268.215 38.42C267.815 38.9 267.295 39.32 266.655 39.68C266.015 40.0267 265.315 40.2 264.555 40.2ZM279.624 29.74C279.797 29.74 279.937 29.8 280.044 29.92C280.164 30.04 280.224 30.1867 280.224 30.36V43.4C280.224 43.56 280.164 43.7 280.044 43.82C279.924 43.94 279.784 44 279.624 44C279.451 44 279.304 43.94 279.184 43.82C279.077 43.7 279.024 43.56 279.024 43.4V37.02L279.364 36.74C279.364 37.1133 279.264 37.5067 279.064 37.92C278.864 38.32 278.577 38.6933 278.204 39.04C277.844 39.3867 277.417 39.6667 276.924 39.88C276.444 40.0933 275.924 40.2 275.364 40.2C274.471 40.2 273.664 39.9667 272.944 39.5C272.237 39.0333 271.677 38.4 271.264 37.6C270.851 36.8 270.644 35.8867 270.644 34.86C270.644 33.8467 270.851 32.94 271.264 32.14C271.677 31.3267 272.237 30.6933 272.944 30.24C273.651 29.7733 274.451 29.54 275.344 29.54C275.891 29.54 276.411 29.64 276.904 29.84C277.397 30.04 277.831 30.3133 278.204 30.66C278.591 31.0067 278.891 31.4067 279.104 31.86C279.331 32.3 279.444 32.76 279.444 33.24L279.024 32.94V30.36C279.024 30.1867 279.077 30.04 279.184 29.92C279.304 29.8 279.451 29.74 279.624 29.74ZM275.464 39.08C276.184 39.08 276.811 38.9 277.344 38.54C277.891 38.1667 278.317 37.6667 278.624 37.04C278.944 36.4 279.104 35.6733 279.104 34.86C279.104 34.06 278.944 33.3467 278.624 32.72C278.317 32.08 277.891 31.58 277.344 31.22C276.797 30.8467 276.171 30.66 275.464 30.66C274.771 30.66 274.144 30.8467 273.584 31.22C273.037 31.58 272.604 32.08 272.284 32.72C271.977 33.3467 271.824 34.06 271.824 34.86C271.824 35.66 271.977 36.38 272.284 37.02C272.604 37.66 273.037 38.1667 273.584 38.54C274.144 38.9 274.771 39.08 275.464 39.08ZM291.013 29.84C291.186 29.84 291.326 29.9 291.433 30.02C291.553 30.14 291.613 30.28 291.613 30.44V36.08C291.613 37.4 291.24 38.4067 290.493 39.1C289.746 39.7933 288.74 40.14 287.473 40.14C286.22 40.14 285.22 39.7933 284.473 39.1C283.74 38.4067 283.373 37.4 283.373 36.08V30.44C283.373 30.28 283.426 30.14 283.533 30.02C283.653 29.9 283.8 29.84 283.973 29.84C284.146 29.84 284.286 29.9 284.393 30.02C284.513 30.14 284.573 30.28 284.573 30.44V36.08C284.573 37.04 284.826 37.7733 285.333 38.28C285.853 38.7733 286.566 39.02 287.473 39.02C288.393 39.02 289.113 38.7733 289.633 38.28C290.153 37.7733 290.413 37.04 290.413 36.08V30.44C290.413 30.28 290.466 30.14 290.573 30.02C290.68 29.9 290.826 29.84 291.013 29.84ZM295.92 39.4C295.92 39.56 295.86 39.7 295.74 39.82C295.62 39.94 295.48 40 295.32 40C295.146 40 295 39.94 294.88 39.82C294.773 39.7 294.72 39.56 294.72 39.4V30.2C294.72 30.04 294.773 29.9 294.88 29.78C295 29.66 295.146 29.6 295.32 29.6C295.493 29.6 295.633 29.66 295.74 29.78C295.86 29.9 295.92 30.04 295.92 30.2V39.4ZM295.32 28.26C295.04 28.26 294.826 28.2 294.68 28.08C294.546 27.9467 294.48 27.76 294.48 27.52V27.32C294.48 27.08 294.553 26.9 294.7 26.78C294.86 26.6467 295.073 26.58 295.34 26.58C295.593 26.58 295.786 26.6467 295.92 26.78C296.066 26.9 296.14 27.08 296.14 27.32V27.52C296.14 27.76 296.066 27.9467 295.92 28.08C295.786 28.2 295.586 28.26 295.32 28.26ZM299.637 40C299.45 40 299.304 39.94 299.197 39.82C299.09 39.7 299.037 39.56 299.037 39.4V30.44C299.037 30.28 299.09 30.14 299.197 30.02C299.317 29.9 299.464 29.84 299.637 29.84C299.81 29.84 299.95 29.9 300.057 30.02C300.177 30.14 300.237 30.28 300.237 30.44V33.44L299.937 33.5C299.977 33.0333 300.09 32.5733 300.277 32.12C300.477 31.6533 300.744 31.2267 301.077 30.84C301.41 30.4533 301.804 30.14 302.257 29.9C302.724 29.66 303.244 29.54 303.817 29.54C304.057 29.54 304.29 29.5933 304.517 29.7C304.744 29.7933 304.857 29.9533 304.857 30.18C304.857 30.38 304.804 30.5333 304.697 30.64C304.59 30.7467 304.464 30.8 304.317 30.8C304.197 30.8 304.064 30.7667 303.917 30.7C303.784 30.6333 303.604 30.6 303.377 30.6C303.004 30.6 302.63 30.7133 302.257 30.94C301.884 31.1533 301.544 31.4467 301.237 31.82C300.93 32.1933 300.684 32.6133 300.497 33.08C300.324 33.5333 300.237 33.9933 300.237 34.46V39.4C300.237 39.56 300.177 39.7 300.057 39.82C299.937 39.94 299.797 40 299.637 40ZM310.903 40.2C309.876 40.2 308.97 39.98 308.183 39.54C307.396 39.1 306.783 38.4867 306.343 37.7C305.903 36.9133 305.683 35.9933 305.683 34.94C305.683 33.8067 305.903 32.84 306.343 32.04C306.796 31.24 307.376 30.6267 308.083 30.2C308.803 29.76 309.563 29.54 310.363 29.54C310.95 29.54 311.516 29.6467 312.063 29.86C312.623 30.06 313.116 30.3667 313.543 30.78C313.983 31.18 314.33 31.6733 314.583 32.26C314.85 32.8467 314.996 33.5267 315.023 34.3C315.01 34.46 314.943 34.6 314.823 34.72C314.703 34.8267 314.563 34.88 314.403 34.88H306.383L306.143 33.8H314.023L313.763 34.04V33.64C313.71 33.0133 313.51 32.48 313.163 32.04C312.816 31.6 312.396 31.2667 311.903 31.04C311.41 30.8133 310.896 30.7 310.363 30.7C309.963 30.7 309.55 30.78 309.123 30.94C308.71 31.1 308.33 31.3533 307.983 31.7C307.65 32.0333 307.376 32.4667 307.163 33C306.95 33.52 306.843 34.14 306.843 34.86C306.843 35.6467 307.003 36.36 307.323 37C307.643 37.64 308.103 38.1467 308.703 38.52C309.316 38.8933 310.043 39.08 310.883 39.08C311.35 39.08 311.77 39.0133 312.143 38.88C312.516 38.7467 312.843 38.5733 313.123 38.36C313.403 38.1333 313.636 37.9 313.823 37.66C313.97 37.54 314.116 37.48 314.263 37.48C314.396 37.48 314.51 37.5333 314.603 37.64C314.71 37.7467 314.763 37.8667 314.763 38C314.763 38.16 314.696 38.3 314.563 38.42C314.163 38.9 313.643 39.32 313.003 39.68C312.363 40.0267 311.663 40.2 310.903 40.2ZM322.192 29.7C323.018 29.7 323.725 29.92 324.312 30.36C324.898 30.7867 325.298 31.4267 325.512 32.28L325.232 32.36L325.352 32C325.525 31.6 325.812 31.2267 326.212 30.88C326.625 30.52 327.092 30.2333 327.612 30.02C328.132 29.8067 328.658 29.7 329.192 29.7C330.032 29.7 330.705 29.88 331.212 30.24C331.732 30.6 332.105 31.0867 332.332 31.7C332.572 32.3 332.692 32.98 332.692 33.74V39.4C332.692 39.56 332.632 39.7 332.512 39.82C332.405 39.94 332.265 40 332.092 40C331.918 40 331.772 39.94 331.652 39.82C331.545 39.7 331.492 39.56 331.492 39.4V33.8C331.492 33.2533 331.405 32.7533 331.232 32.3C331.058 31.8467 330.785 31.4867 330.412 31.22C330.038 30.9533 329.538 30.82 328.912 30.82C328.365 30.82 327.838 30.9533 327.332 31.22C326.838 31.4867 326.432 31.8467 326.112 32.3C325.805 32.7533 325.652 33.2533 325.652 33.8V39.4C325.652 39.56 325.592 39.7 325.472 39.82C325.365 39.94 325.225 40 325.052 40C324.878 40 324.732 39.94 324.612 39.82C324.505 39.7 324.452 39.56 324.452 39.4V33.74C324.452 33.1933 324.372 32.7 324.212 32.26C324.052 31.82 323.792 31.4733 323.432 31.22C323.072 30.9533 322.585 30.82 321.972 30.82C321.425 30.82 320.905 30.9533 320.412 31.22C319.932 31.4733 319.538 31.82 319.232 32.26C318.938 32.7 318.792 33.1933 318.792 33.74V39.4C318.792 39.56 318.732 39.7 318.612 39.82C318.492 39.94 318.352 40 318.192 40C318.005 40 317.858 39.94 317.752 39.82C317.645 39.7 317.592 39.56 317.592 39.4V30.44C317.592 30.28 317.645 30.14 317.752 30.02C317.872 29.9 318.018 29.84 318.192 29.84C318.365 29.84 318.505 29.9 318.612 30.02C318.732 30.14 318.792 30.28 318.792 30.44V32.3L318.252 33.04C318.292 32.64 318.418 32.24 318.632 31.84C318.858 31.44 319.152 31.08 319.512 30.76C319.872 30.44 320.278 30.1867 320.732 30C321.198 29.8 321.685 29.7 322.192 29.7ZM340.454 40.2C339.427 40.2 338.521 39.98 337.734 39.54C336.947 39.1 336.334 38.4867 335.894 37.7C335.454 36.9133 335.234 35.9933 335.234 34.94C335.234 33.8067 335.454 32.84 335.894 32.04C336.347 31.24 336.927 30.6267 337.634 30.2C338.354 29.76 339.114 29.54 339.914 29.54C340.501 29.54 341.067 29.6467 341.614 29.86C342.174 30.06 342.667 30.3667 343.094 30.78C343.534 31.18 343.881 31.6733 344.134 32.26C344.401 32.8467 344.547 33.5267 344.574 34.3C344.561 34.46 344.494 34.6 344.374 34.72C344.254 34.8267 344.114 34.88 343.954 34.88H335.934L335.694 33.8H343.574L343.314 34.04V33.64C343.261 33.0133 343.061 32.48 342.714 32.04C342.367 31.6 341.947 31.2667 341.454 31.04C340.961 30.8133 340.447 30.7 339.914 30.7C339.514 30.7 339.101 30.78 338.674 30.94C338.261 31.1 337.881 31.3533 337.534 31.7C337.201 32.0333 336.927 32.4667 336.714 33C336.501 33.52 336.394 34.14 336.394 34.86C336.394 35.6467 336.554 36.36 336.874 37C337.194 37.64 337.654 38.1467 338.254 38.52C338.867 38.8933 339.594 39.08 340.434 39.08C340.901 39.08 341.321 39.0133 341.694 38.88C342.067 38.7467 342.394 38.5733 342.674 38.36C342.954 38.1333 343.187 37.9 343.374 37.66C343.521 37.54 343.667 37.48 343.814 37.48C343.947 37.48 344.061 37.5333 344.154 37.64C344.261 37.7467 344.314 37.8667 344.314 38C344.314 38.16 344.247 38.3 344.114 38.42C343.714 38.9 343.194 39.32 342.554 39.68C341.914 40.0267 341.214 40.2 340.454 40.2ZM351.963 29.54C352.843 29.54 353.543 29.72 354.063 30.08C354.596 30.4267 354.976 30.9067 355.203 31.52C355.443 32.12 355.562 32.7867 355.562 33.52V39.4C355.562 39.56 355.503 39.7 355.383 39.82C355.263 39.94 355.123 40 354.963 40C354.776 40 354.629 39.94 354.523 39.82C354.416 39.7 354.363 39.56 354.363 39.4V33.58C354.363 33.0467 354.276 32.56 354.103 32.12C353.929 31.68 353.643 31.3267 353.243 31.06C352.856 30.7933 352.343 30.66 351.703 30.66C351.129 30.66 350.583 30.7933 350.063 31.06C349.556 31.3267 349.143 31.68 348.823 32.12C348.503 32.56 348.343 33.0467 348.343 33.58V39.4C348.343 39.56 348.283 39.7 348.163 39.82C348.043 39.94 347.903 40 347.743 40C347.556 40 347.409 39.94 347.303 39.82C347.196 39.7 347.143 39.56 347.143 39.4V30.44C347.143 30.28 347.196 30.14 347.303 30.02C347.423 29.9 347.569 29.84 347.743 29.84C347.916 29.84 348.056 29.9 348.163 30.02C348.283 30.14 348.343 30.28 348.343 30.44V32.12L347.883 32.84C347.909 32.4133 348.043 32.0067 348.283 31.62C348.536 31.22 348.856 30.8667 349.243 30.56C349.629 30.24 350.056 29.9933 350.523 29.82C351.003 29.6333 351.483 29.54 351.963 29.54ZM358.045 29.82H362.705C362.865 29.82 362.998 29.88 363.105 30C363.212 30.1067 363.265 30.24 363.265 30.4C363.265 30.5467 363.212 30.6733 363.105 30.78C362.998 30.8867 362.865 30.94 362.705 30.94H358.045C357.885 30.94 357.745 30.8867 357.625 30.78C357.518 30.66 357.465 30.5267 357.465 30.38C357.465 30.22 357.518 30.0867 357.625 29.98C357.745 29.8733 357.885 29.82 358.045 29.82ZM360.105 27C360.278 27 360.418 27.06 360.525 27.18C360.645 27.3 360.705 27.44 360.705 27.6V37.64C360.705 38.0133 360.752 38.2933 360.845 38.48C360.952 38.6667 361.085 38.7933 361.245 38.86C361.405 38.9133 361.565 38.94 361.725 38.94C361.832 38.94 361.925 38.9267 362.005 38.9C362.098 38.86 362.198 38.84 362.305 38.84C362.425 38.84 362.525 38.8867 362.605 38.98C362.698 39.0733 362.745 39.1933 362.745 39.34C362.745 39.5267 362.638 39.6867 362.425 39.82C362.212 39.94 361.958 40 361.665 40C361.545 40 361.365 39.9933 361.125 39.98C360.885 39.9533 360.638 39.88 360.385 39.76C360.132 39.6267 359.918 39.4 359.745 39.08C359.585 38.76 359.505 38.3 359.505 37.7V27.6C359.505 27.44 359.558 27.3 359.665 27.18C359.785 27.06 359.932 27 360.105 27ZM365.293 38.38C365.186 38.22 365.133 38.0667 365.133 37.92C365.146 37.76 365.233 37.6333 365.393 37.54C365.5 37.4467 365.62 37.4067 365.753 37.42C365.9 37.4333 366.033 37.5 366.153 37.62C366.513 38.0867 366.946 38.4667 367.453 38.76C367.973 39.04 368.586 39.18 369.293 39.18C369.666 39.18 370.033 39.12 370.393 39C370.766 38.8667 371.073 38.6733 371.313 38.42C371.553 38.1533 371.673 37.82 371.673 37.42C371.673 37.0067 371.553 36.6733 371.313 36.42C371.073 36.1667 370.76 35.9667 370.373 35.82C370 35.6733 369.6 35.5467 369.173 35.44C368.72 35.32 368.28 35.1867 367.853 35.04C367.426 34.88 367.046 34.6867 366.713 34.46C366.393 34.22 366.133 33.9333 365.933 33.6C365.733 33.2667 365.633 32.86 365.633 32.38C365.633 31.82 365.786 31.3267 366.093 30.9C366.4 30.4733 366.813 30.14 367.333 29.9C367.866 29.66 368.466 29.54 369.133 29.54C369.466 29.54 369.826 29.5867 370.213 29.68C370.6 29.76 370.98 29.9 371.353 30.1C371.726 30.3 372.06 30.5733 372.353 30.92C372.473 31.04 372.533 31.18 372.533 31.34C372.533 31.4867 372.466 31.62 372.333 31.74C372.226 31.82 372.1 31.86 371.953 31.86C371.82 31.86 371.706 31.8067 371.613 31.7C371.293 31.34 370.913 31.0667 370.473 30.88C370.033 30.6933 369.56 30.6 369.053 30.6C368.666 30.6 368.3 30.6667 367.953 30.8C367.62 30.92 367.34 31.1067 367.113 31.36C366.886 31.6133 366.773 31.9467 366.773 32.36C366.8 32.7467 366.933 33.06 367.173 33.3C367.426 33.54 367.753 33.74 368.153 33.9C368.566 34.06 369.026 34.2067 369.533 34.34C369.96 34.4467 370.366 34.5733 370.753 34.72C371.153 34.8667 371.5 35.0533 371.793 35.28C372.1 35.4933 372.34 35.7667 372.513 36.1C372.7 36.4333 372.793 36.8533 372.793 37.36C372.793 37.9467 372.626 38.4533 372.293 38.88C371.973 39.3067 371.54 39.6333 370.993 39.86C370.446 40.0867 369.84 40.2 369.173 40.2C368.453 40.2 367.753 40.06 367.073 39.78C366.406 39.5 365.813 39.0333 365.293 38.38ZM377.688 33.28C377.688 33.1067 377.748 32.96 377.868 32.84C377.988 32.72 378.128 32.66 378.288 32.66C378.901 32.62 379.448 32.4667 379.928 32.2C380.408 31.9333 380.788 31.5733 381.068 31.12C381.348 30.6667 381.488 30.14 381.488 29.54C381.488 28.9133 381.355 28.3733 381.088 27.92C380.835 27.4533 380.488 27.0933 380.048 26.84C379.608 26.5733 379.108 26.44 378.548 26.44C378.001 26.44 377.488 26.5667 377.008 26.82C376.528 27.0733 376.128 27.4067 375.808 27.82C375.701 27.9267 375.575 28.0067 375.428 28.06C375.295 28.1 375.148 28.0667 374.988 27.96C374.828 27.8533 374.735 27.72 374.708 27.56C374.681 27.3867 374.728 27.2267 374.848 27.08C375.275 26.5467 375.815 26.1133 376.468 25.78C377.121 25.4467 377.815 25.28 378.548 25.28C379.321 25.28 380.021 25.4533 380.648 25.8C381.288 26.1467 381.795 26.64 382.168 27.28C382.541 27.92 382.728 28.6733 382.728 29.54C382.728 30.0733 382.621 30.5867 382.408 31.08C382.195 31.5733 381.901 32.0133 381.528 32.4C381.155 32.7867 380.721 33.0933 380.228 33.32C379.735 33.5467 379.201 33.6733 378.628 33.7C378.588 33.7 378.601 33.6933 378.668 33.68C378.735 33.6667 378.801 33.6267 378.868 33.56V35.66C378.868 35.8333 378.808 35.98 378.688 36.1C378.581 36.2067 378.441 36.26 378.268 36.26C378.095 36.26 377.948 36.2067 377.828 36.1C377.721 35.98 377.675 35.8333 377.688 35.66V33.28ZM378.288 40C378.061 40 377.881 39.9333 377.748 39.8C377.628 39.6533 377.568 39.4667 377.568 39.24V38.8C377.568 38.56 377.628 38.3733 377.748 38.24C377.881 38.1067 378.061 38.04 378.288 38.04H378.408C378.648 38.04 378.821 38.1067 378.928 38.24C379.048 38.3733 379.108 38.56 379.108 38.8V39.24C379.108 39.4667 379.048 39.6533 378.928 39.8C378.821 39.9333 378.648 40 378.408 40H378.288Z" fill="black"/>
<defs>
<filter id="filter0_d_22_68" x="0" y="0" width="443" height="65" filterUnits="userSpaceOnUse" color-interpolation-filters="sRGB">
<feFlood flood-opacity="0" result="BackgroundImageFix"/>
<feColorMatrix in="SourceAlpha" type="matrix" values="0 0 0 0 0 0 0 0 0 0 0 0 0 0 0 0 0 0 127 0" result="hardAlpha"/>
<feMorphology radius="2" operator="dilate" in="SourceAlpha" result="effect1_dropShadow_22_68"/>
<feOffset/>
<feGaussianBlur stdDeviation="5"/>
<feComposite in2="hardAlpha" operator="out"/>
<feColorMatrix type="matrix" values="0 0 0 0 0 0 0 0 0 0 0 0 0 0 0 0 0 0 0.1 0"/>
<feBlend mode="normal" in2="BackgroundImageFix" result="effect1_dropShadow_22_68"/>
<feBlend mode="normal" in="SourceGraphic" in2="effect1_dropShadow_22_68" result="shape"/>
</filter>
</defs>
</svg>
