<svg width="317" height="430" viewBox="0 0 317 430" fill="none" xmlns="http://www.w3.org/2000/svg">
<rect width="317" height="430" rx="12" fill="#F8F8F8"/>
<circle cx="41" cy="42" r="26" fill="#D9D9D9"/>
<path d="M89.2 34.14C88.2267 34.14 87.3467 33.9733 86.56 33.64C85.7867 33.3067 85.1733 32.8267 84.72 32.2C84.2667 31.5733 84.0333 30.8333 84.02 29.98H87.02C87.06 30.5533 87.26 31.0067 87.62 31.34C87.9933 31.6733 88.5 31.84 89.14 31.84C89.7933 31.84 90.3067 31.6867 90.68 31.38C91.0533 31.06 91.24 30.6467 91.24 30.14C91.24 29.7267 91.1133 29.3867 90.86 29.12C90.6067 28.8533 90.2867 28.6467 89.9 28.5C89.5267 28.34 89.0067 28.1667 88.34 27.98C87.4333 27.7133 86.6933 27.4533 86.12 27.2C85.56 26.9333 85.0733 26.54 84.66 26.02C84.26 25.4867 84.06 24.78 84.06 23.9C84.06 23.0733 84.2667 22.3533 84.68 21.74C85.0933 21.1267 85.6733 20.66 86.42 20.34C87.1667 20.0067 88.02 19.84 88.98 19.84C90.42 19.84 91.5867 20.1933 92.48 20.9C93.3867 21.5933 93.8867 22.5667 93.98 23.82H90.9C90.8733 23.34 90.6667 22.9467 90.28 22.64C89.9067 22.32 89.4067 22.16 88.78 22.16C88.2333 22.16 87.7933 22.3 87.46 22.58C87.14 22.86 86.98 23.2667 86.98 23.8C86.98 24.1733 87.1 24.4867 87.34 24.74C87.5933 24.98 87.9 25.18 88.26 25.34C88.6333 25.4867 89.1533 25.66 89.82 25.86C90.7267 26.1267 91.4667 26.3933 92.04 26.66C92.6133 26.9267 93.1067 27.3267 93.52 27.86C93.9333 28.3933 94.14 29.0933 94.14 29.96C94.14 30.7067 93.9467 31.4 93.56 32.04C93.1733 32.68 92.6067 33.1933 91.86 33.58C91.1133 33.9533 90.2267 34.14 89.2 34.14ZM95.8475 28.42C95.8475 27.3 96.0675 26.3067 96.5075 25.44C96.9608 24.5733 97.5675 23.9067 98.3275 23.44C99.1008 22.9733 99.9608 22.74 100.908 22.74C101.734 22.74 102.454 22.9067 103.068 23.24C103.694 23.5733 104.194 23.9933 104.568 24.5V22.92H107.388V34H104.568V32.38C104.208 32.9 103.708 33.3333 103.068 33.68C102.441 34.0133 101.714 34.18 100.888 34.18C99.9542 34.18 99.1008 33.94 98.3275 33.46C97.5675 32.98 96.9608 32.3067 96.5075 31.44C96.0675 30.56 95.8475 29.5533 95.8475 28.42ZM104.568 28.46C104.568 27.78 104.434 27.2 104.168 26.72C103.901 26.2267 103.541 25.8533 103.088 25.6C102.634 25.3333 102.148 25.2 101.628 25.2C101.108 25.2 100.628 25.3267 100.188 25.58C99.7475 25.8333 99.3875 26.2067 99.1075 26.7C98.8408 27.18 98.7075 27.7533 98.7075 28.42C98.7075 29.0867 98.8408 29.6733 99.1075 30.18C99.3875 30.6733 99.7475 31.0533 100.188 31.32C100.641 31.5867 101.121 31.72 101.628 31.72C102.148 31.72 102.634 31.5933 103.088 31.34C103.541 31.0733 103.901 30.7 104.168 30.22C104.434 29.7267 104.568 29.14 104.568 28.46ZM123.882 22.76C125.242 22.76 126.336 23.18 127.162 24.02C128.002 24.8467 128.422 26.0067 128.422 27.5V34H125.622V27.88C125.622 27.0133 125.402 26.3533 124.962 25.9C124.522 25.4333 123.922 25.2 123.162 25.2C122.402 25.2 121.796 25.4333 121.342 25.9C120.902 26.3533 120.682 27.0133 120.682 27.88V34H117.882V27.88C117.882 27.0133 117.662 26.3533 117.222 25.9C116.782 25.4333 116.182 25.2 115.422 25.2C114.649 25.2 114.036 25.4333 113.582 25.9C113.142 26.3533 112.922 27.0133 112.922 27.88V34H110.122V22.92H112.922V24.26C113.282 23.7933 113.742 23.4267 114.302 23.16C114.876 22.8933 115.502 22.76 116.182 22.76C117.049 22.76 117.822 22.9467 118.502 23.32C119.182 23.68 119.709 24.2 120.082 24.88C120.442 24.24 120.962 23.7267 121.642 23.34C122.336 22.9533 123.082 22.76 123.882 22.76ZM130.359 28.42C130.359 27.3 130.579 26.3067 131.019 25.44C131.473 24.5733 132.079 23.9067 132.839 23.44C133.613 22.9733 134.473 22.74 135.419 22.74C136.246 22.74 136.966 22.9067 137.579 23.24C138.206 23.5733 138.706 23.9933 139.079 24.5V22.92H141.899V34H139.079V32.38C138.719 32.9 138.219 33.3333 137.579 33.68C136.953 34.0133 136.226 34.18 135.399 34.18C134.466 34.18 133.613 33.94 132.839 33.46C132.079 32.98 131.473 32.3067 131.019 31.44C130.579 30.56 130.359 29.5533 130.359 28.42ZM139.079 28.46C139.079 27.78 138.946 27.2 138.679 26.72C138.413 26.2267 138.053 25.8533 137.599 25.6C137.146 25.3333 136.659 25.2 136.139 25.2C135.619 25.2 135.139 25.3267 134.699 25.58C134.259 25.8333 133.899 26.2067 133.619 26.7C133.353 27.18 133.219 27.7533 133.219 28.42C133.219 29.0867 133.353 29.6733 133.619 30.18C133.899 30.6733 134.259 31.0533 134.699 31.32C135.153 31.5867 135.633 31.72 136.139 31.72C136.659 31.72 137.146 31.5933 137.599 31.34C138.053 31.0733 138.413 30.7 138.679 30.22C138.946 29.7267 139.079 29.14 139.079 28.46ZM150.774 22.76C152.094 22.76 153.161 23.18 153.974 24.02C154.787 24.8467 155.194 26.0067 155.194 27.5V34H152.394V27.88C152.394 27 152.174 26.3267 151.734 25.86C151.294 25.38 150.694 25.14 149.934 25.14C149.161 25.14 148.547 25.38 148.094 25.86C147.654 26.3267 147.434 27 147.434 27.88V34H144.634V22.92H147.434V24.3C147.807 23.82 148.281 23.4467 148.854 23.18C149.441 22.9 150.081 22.76 150.774 22.76ZM161.117 25.22V30.58C161.117 30.9533 161.203 31.2267 161.377 31.4C161.563 31.56 161.87 31.64 162.297 31.64H163.597V34H161.837C159.477 34 158.297 32.8533 158.297 30.56V25.22H156.977V22.92H158.297V20.18H161.117V22.92H163.597V25.22H161.117ZM171.85 22.76C172.69 22.76 173.437 22.9467 174.09 23.32C174.744 23.68 175.25 24.22 175.61 24.94C175.984 25.6467 176.17 26.5 176.17 27.5V34H173.37V27.88C173.37 27 173.15 26.3267 172.71 25.86C172.27 25.38 171.67 25.14 170.91 25.14C170.137 25.14 169.524 25.38 169.07 25.86C168.63 26.3267 168.41 27 168.41 27.88V34H165.61V19.2H168.41V24.3C168.77 23.82 169.25 23.4467 169.85 23.18C170.45 22.9 171.117 22.76 171.85 22.76ZM178.113 28.42C178.113 27.3 178.333 26.3067 178.773 25.44C179.226 24.5733 179.833 23.9067 180.593 23.44C181.366 22.9733 182.226 22.74 183.173 22.74C184 22.74 184.72 22.9067 185.333 23.24C185.96 23.5733 186.46 23.9933 186.833 24.5V22.92H189.653V34H186.833V32.38C186.473 32.9 185.973 33.3333 185.333 33.68C184.706 34.0133 183.98 34.18 183.153 34.18C182.22 34.18 181.366 33.94 180.593 33.46C179.833 32.98 179.226 32.3067 178.773 31.44C178.333 30.56 178.113 29.5533 178.113 28.42ZM186.833 28.46C186.833 27.78 186.7 27.2 186.433 26.72C186.166 26.2267 185.806 25.8533 185.353 25.6C184.9 25.3333 184.413 25.2 183.893 25.2C183.373 25.2 182.893 25.3267 182.453 25.58C182.013 25.8333 181.653 26.2067 181.373 26.7C181.106 27.18 180.973 27.7533 180.973 28.42C180.973 29.0867 181.106 29.6733 181.373 30.18C181.653 30.6733 182.013 31.0533 182.453 31.32C182.906 31.5867 183.386 31.72 183.893 31.72C184.413 31.72 184.9 31.5933 185.353 31.34C185.806 31.0733 186.166 30.7 186.433 30.22C186.7 29.7267 186.833 29.14 186.833 28.46ZM196.473 27C196.473 25.6267 196.78 24.4 197.393 23.32C198.02 22.2267 198.867 21.38 199.933 20.78C201.013 20.1667 202.22 19.86 203.553 19.86C205.113 19.86 206.48 20.26 207.653 21.06C208.827 21.86 209.647 22.9667 210.113 24.38H206.893C206.573 23.7133 206.12 23.2133 205.533 22.88C204.96 22.5467 204.293 22.38 203.533 22.38C202.72 22.38 201.993 22.5733 201.353 22.96C200.727 23.3333 200.233 23.8667 199.873 24.56C199.527 25.2533 199.353 26.0667 199.353 27C199.353 27.92 199.527 28.7333 199.873 29.44C200.233 30.1333 200.727 30.6733 201.353 31.06C201.993 31.4333 202.72 31.62 203.533 31.62C204.293 31.62 204.96 31.4533 205.533 31.12C206.12 30.7733 206.573 30.2667 206.893 29.6H210.113C209.647 31.0267 208.827 32.14 207.653 32.94C206.493 33.7267 205.127 34.12 203.553 34.12C202.22 34.12 201.013 33.82 199.933 33.22C198.867 32.6067 198.02 31.76 197.393 30.68C196.78 29.6 196.473 28.3733 196.473 27ZM215.305 19.2V34H212.505V19.2H215.305ZM228.531 22.92V34H225.711V32.6C225.351 33.08 224.878 33.46 224.291 33.74C223.718 34.0067 223.091 34.14 222.411 34.14C221.545 34.14 220.778 33.96 220.111 33.6C219.445 33.2267 218.918 32.6867 218.531 31.98C218.158 31.26 217.971 30.4067 217.971 29.42V22.92H220.771V29.02C220.771 29.9 220.991 30.58 221.431 31.06C221.871 31.5267 222.471 31.76 223.231 31.76C224.005 31.76 224.611 31.5267 225.051 31.06C225.491 30.58 225.711 29.9 225.711 29.02V22.92H228.531ZM241.594 28.22C241.594 28.62 241.567 28.98 241.514 29.3H233.414C233.481 30.1 233.761 30.7267 234.254 31.18C234.747 31.6333 235.354 31.86 236.074 31.86C237.114 31.86 237.854 31.4133 238.294 30.52H241.314C240.994 31.5867 240.381 32.4667 239.474 33.16C238.567 33.84 237.454 34.18 236.134 34.18C235.067 34.18 234.107 33.9467 233.254 33.48C232.414 33 231.754 32.3267 231.274 31.46C230.807 30.5933 230.574 29.5933 230.574 28.46C230.574 27.3133 230.807 26.3067 231.274 25.44C231.741 24.5733 232.394 23.9067 233.234 23.44C234.074 22.9733 235.041 22.74 236.134 22.74C237.187 22.74 238.127 22.9667 238.954 23.42C239.794 23.8733 240.441 24.52 240.894 25.36C241.361 26.1867 241.594 27.14 241.594 28.22ZM238.694 27.42C238.681 26.7 238.421 26.1267 237.914 25.7C237.407 25.26 236.787 25.04 236.054 25.04C235.361 25.04 234.774 25.2533 234.294 25.68C233.827 26.0933 233.541 26.6733 233.434 27.42H238.694ZM246.438 19.2V34H243.638V19.2H246.438ZM259.504 28.22C259.504 28.62 259.478 28.98 259.424 29.3H251.324C251.391 30.1 251.671 30.7267 252.164 31.18C252.658 31.6333 253.264 31.86 253.984 31.86C255.024 31.86 255.764 31.4133 256.204 30.52H259.224C258.904 31.5867 258.291 32.4667 257.384 33.16C256.478 33.84 255.364 34.18 254.044 34.18C252.978 34.18 252.018 33.9467 251.164 33.48C250.324 33 249.664 32.3267 249.184 31.46C248.718 30.5933 248.484 29.5933 248.484 28.46C248.484 27.3133 248.718 26.3067 249.184 25.44C249.651 24.5733 250.304 23.9067 251.144 23.44C251.984 22.9733 252.951 22.74 254.044 22.74C255.098 22.74 256.038 22.9667 256.864 23.42C257.704 23.8733 258.351 24.52 258.804 25.36C259.271 26.1867 259.504 27.14 259.504 28.22ZM256.604 27.42C256.591 26.7 256.331 26.1267 255.824 25.7C255.318 25.26 254.698 25.04 253.964 25.04C253.271 25.04 252.684 25.2533 252.204 25.68C251.738 26.0933 251.451 26.6733 251.344 27.42H256.604ZM265.788 34.18C264.881 34.18 264.068 34.02 263.348 33.7C262.628 33.3667 262.055 32.92 261.628 32.36C261.215 31.8 260.988 31.18 260.948 30.5H263.768C263.821 30.9267 264.028 31.28 264.388 31.56C264.761 31.84 265.221 31.98 265.768 31.98C266.301 31.98 266.715 31.8733 267.008 31.66C267.315 31.4467 267.468 31.1733 267.468 30.84C267.468 30.48 267.281 30.2133 266.908 30.04C266.548 29.8533 265.968 29.6533 265.168 29.44C264.341 29.24 263.661 29.0333 263.128 28.82C262.608 28.6067 262.155 28.28 261.768 27.84C261.395 27.4 261.208 26.8067 261.208 26.06C261.208 25.4467 261.381 24.8867 261.728 24.38C262.088 23.8733 262.595 23.4733 263.248 23.18C263.915 22.8867 264.695 22.74 265.588 22.74C266.908 22.74 267.961 23.0733 268.748 23.74C269.535 24.3933 269.968 25.28 270.048 26.4H267.368C267.328 25.96 267.141 25.6133 266.808 25.36C266.488 25.0933 266.055 24.96 265.508 24.96C265.001 24.96 264.608 25.0533 264.328 25.24C264.061 25.4267 263.928 25.6867 263.928 26.02C263.928 26.3933 264.115 26.68 264.488 26.88C264.861 27.0667 265.441 27.26 266.228 27.46C267.028 27.66 267.688 27.8667 268.208 28.08C268.728 28.2933 269.175 28.6267 269.548 29.08C269.935 29.52 270.135 30.1067 270.148 30.84C270.148 31.48 269.968 32.0533 269.608 32.56C269.261 33.0667 268.755 33.4667 268.088 33.76C267.435 34.04 266.668 34.18 265.788 34.18ZM276.686 34.18C275.78 34.18 274.966 34.02 274.246 33.7C273.526 33.3667 272.953 32.92 272.526 32.36C272.113 31.8 271.886 31.18 271.846 30.5H274.666C274.72 30.9267 274.926 31.28 275.286 31.56C275.66 31.84 276.12 31.98 276.666 31.98C277.2 31.98 277.613 31.8733 277.906 31.66C278.213 31.4467 278.366 31.1733 278.366 30.84C278.366 30.48 278.18 30.2133 277.806 30.04C277.446 29.8533 276.866 29.6533 276.066 29.44C275.24 29.24 274.56 29.0333 274.026 28.82C273.506 28.6067 273.053 28.28 272.666 27.84C272.293 27.4 272.106 26.8067 272.106 26.06C272.106 25.4467 272.28 24.8867 272.626 24.38C272.986 23.8733 273.493 23.4733 274.146 23.18C274.813 22.8867 275.593 22.74 276.486 22.74C277.806 22.74 278.86 23.0733 279.646 23.74C280.433 24.3933 280.866 25.28 280.946 26.4H278.266C278.226 25.96 278.04 25.6133 277.706 25.36C277.386 25.0933 276.953 24.96 276.406 24.96C275.9 24.96 275.506 25.0533 275.226 25.24C274.96 25.4267 274.826 25.6867 274.826 26.02C274.826 26.3933 275.013 26.68 275.386 26.88C275.76 27.0667 276.34 27.26 277.126 27.46C277.926 27.66 278.586 27.8667 279.106 28.08C279.626 28.2933 280.073 28.6267 280.446 29.08C280.833 29.52 281.033 30.1067 281.046 30.84C281.046 31.48 280.866 32.0533 280.506 32.56C280.16 33.0667 279.653 33.4667 278.986 33.76C278.333 34.04 277.566 34.18 276.686 34.18Z" fill="black"/>
<path d="M86.344 48.832V60H84.104V48.832H86.344ZM90.7971 52.512C91.0851 52.0427 91.4585 51.6747 91.9171 51.408C92.3865 51.1413 92.9198 51.008 93.5171 51.008V53.36H92.9251C92.2211 53.36 91.6878 53.5253 91.3251 53.856C90.9731 54.1867 90.7971 54.7627 90.7971 55.584V60H88.5571V51.136H90.7971V52.512ZM97.2659 52.512C97.5539 52.0427 97.9272 51.6747 98.3859 51.408C98.8552 51.1413 99.3885 51.008 99.9859 51.008V53.36H99.3939C98.6899 53.36 98.1565 53.5253 97.7939 53.856C97.4419 54.1867 97.2659 54.7627 97.2659 55.584V60H95.0259V51.136H97.2659V52.512ZM109.735 55.376C109.735 55.696 109.713 55.984 109.671 56.24H103.191C103.244 56.88 103.468 57.3813 103.863 57.744C104.257 58.1067 104.743 58.288 105.319 58.288C106.151 58.288 106.743 57.9307 107.095 57.216H109.511C109.255 58.0693 108.764 58.7733 108.039 59.328C107.313 59.872 106.423 60.144 105.367 60.144C104.513 60.144 103.745 59.9573 103.063 59.584C102.391 59.2 101.863 58.6613 101.479 57.968C101.105 57.2747 100.919 56.4747 100.919 55.568C100.919 54.6507 101.105 53.8453 101.479 53.152C101.852 52.4587 102.375 51.9253 103.047 51.552C103.719 51.1787 104.492 50.992 105.367 50.992C106.209 50.992 106.961 51.1733 107.623 51.536C108.295 51.8987 108.812 52.416 109.175 53.088C109.548 53.7493 109.735 54.512 109.735 55.376ZM107.415 54.736C107.404 54.16 107.196 53.7013 106.791 53.36C106.385 53.008 105.889 52.832 105.303 52.832C104.748 52.832 104.279 53.0027 103.895 53.344C103.521 53.6747 103.292 54.1387 103.207 54.736H107.415ZM113.61 48.16V60H111.37V48.16H113.61ZM124.063 55.376C124.063 55.696 124.041 55.984 123.999 56.24H117.519C117.572 56.88 117.796 57.3813 118.191 57.744C118.585 58.1067 119.071 58.288 119.647 58.288C120.479 58.288 121.071 57.9307 121.423 57.216H123.839C123.583 58.0693 123.092 58.7733 122.367 59.328C121.641 59.872 120.751 60.144 119.695 60.144C118.841 60.144 118.073 59.9573 117.391 59.584C116.719 59.2 116.191 58.6613 115.807 57.968C115.433 57.2747 115.247 56.4747 115.247 55.568C115.247 54.6507 115.433 53.8453 115.807 53.152C116.18 52.4587 116.703 51.9253 117.375 51.552C118.047 51.1787 118.82 50.992 119.695 50.992C120.537 50.992 121.289 51.1733 121.951 51.536C122.623 51.8987 123.14 52.416 123.503 53.088C123.876 53.7493 124.063 54.512 124.063 55.376ZM121.743 54.736C121.732 54.16 121.524 53.7013 121.119 53.36C120.713 53.008 120.217 52.832 119.631 52.832C119.076 52.832 118.607 53.0027 118.223 53.344C117.849 53.6747 117.62 54.1387 117.535 54.736H121.743ZM129.394 57.936L131.634 51.136H134.018L130.738 60H128.018L124.754 51.136H127.154L129.394 57.936ZM134.7 55.536C134.7 54.64 134.876 53.8453 135.228 53.152C135.591 52.4587 136.076 51.9253 136.684 51.552C137.303 51.1787 137.991 50.992 138.748 50.992C139.409 50.992 139.985 51.1253 140.476 51.392C140.977 51.6587 141.377 51.9947 141.676 52.4V51.136H143.932V60H141.676V58.704C141.388 59.12 140.988 59.4667 140.476 59.744C139.975 60.0107 139.393 60.144 138.732 60.144C137.985 60.144 137.303 59.952 136.684 59.568C136.076 59.184 135.591 58.6453 135.228 57.952C134.876 57.248 134.7 56.4427 134.7 55.536ZM141.676 55.568C141.676 55.024 141.569 54.56 141.356 54.176C141.143 53.7813 140.855 53.4827 140.492 53.28C140.129 53.0667 139.74 52.96 139.324 52.96C138.908 52.96 138.524 53.0613 138.172 53.264C137.82 53.4667 137.532 53.7653 137.308 54.16C137.095 54.544 136.988 55.0027 136.988 55.536C136.988 56.0693 137.095 56.5387 137.308 56.944C137.532 57.3387 137.82 57.6427 138.172 57.856C138.535 58.0693 138.919 58.176 139.324 58.176C139.74 58.176 140.129 58.0747 140.492 57.872C140.855 57.6587 141.143 57.36 141.356 56.976C141.569 56.5813 141.676 56.112 141.676 55.568ZM151.032 51.008C152.088 51.008 152.941 51.344 153.592 52.016C154.242 52.6773 154.568 53.6053 154.568 54.8V60H152.328V55.104C152.328 54.4 152.152 53.8613 151.8 53.488C151.448 53.104 150.968 52.912 150.36 52.912C149.741 52.912 149.25 53.104 148.888 53.488C148.536 53.8613 148.36 54.4 148.36 55.104V60H146.12V51.136H148.36V52.24C148.658 51.856 149.037 51.5573 149.496 51.344C149.965 51.12 150.477 51.008 151.032 51.008ZM159.306 52.976V57.264C159.306 57.5627 159.375 57.7813 159.514 57.92C159.663 58.048 159.908 58.112 160.25 58.112H161.29V60H159.882C157.994 60 157.05 59.0827 157.05 57.248V52.976H155.994V51.136H157.05V48.944H159.306V51.136H161.29V52.976H159.306ZM174.857 52.288C174.857 52.8853 174.713 53.4453 174.425 53.968C174.148 54.4907 173.705 54.912 173.097 55.232C172.5 55.552 171.743 55.712 170.825 55.712H168.953V60H166.713V48.832H170.825C171.689 48.832 172.425 48.9813 173.033 49.28C173.641 49.5787 174.095 49.9893 174.393 50.512C174.703 51.0347 174.857 51.6267 174.857 52.288ZM170.729 53.904C171.348 53.904 171.807 53.7653 172.105 53.488C172.404 53.2 172.553 52.8 172.553 52.288C172.553 51.2 171.945 50.656 170.729 50.656H168.953V53.904H170.729ZM178.688 52.512C178.976 52.0427 179.349 51.6747 179.808 51.408C180.277 51.1413 180.81 51.008 181.408 51.008V53.36H180.816C180.112 53.36 179.578 53.5253 179.216 53.856C178.864 54.1867 178.688 54.7627 178.688 55.584V60H176.448V51.136H178.688V52.512ZM186.853 60.144C185.999 60.144 185.231 59.9573 184.549 59.584C183.866 59.2 183.327 58.6613 182.933 57.968C182.549 57.2747 182.357 56.4747 182.357 55.568C182.357 54.6613 182.554 53.8613 182.949 53.168C183.354 52.4747 183.903 51.9413 184.597 51.568C185.29 51.184 186.063 50.992 186.917 50.992C187.77 50.992 188.543 51.184 189.237 51.568C189.93 51.9413 190.474 52.4747 190.869 53.168C191.274 53.8613 191.477 54.6613 191.477 55.568C191.477 56.4747 191.269 57.2747 190.852 57.968C190.447 58.6613 189.893 59.2 189.189 59.584C188.495 59.9573 187.717 60.144 186.853 60.144ZM186.853 58.192C187.258 58.192 187.637 58.096 187.989 57.904C188.351 57.7013 188.639 57.4027 188.853 57.008C189.066 56.6133 189.173 56.1333 189.173 55.568C189.173 54.7253 188.949 54.08 188.501 53.632C188.063 53.1733 187.525 52.944 186.885 52.944C186.245 52.944 185.706 53.1733 185.269 53.632C184.842 54.08 184.629 54.7253 184.629 55.568C184.629 56.4107 184.837 57.0613 185.253 57.52C185.679 57.968 186.213 58.192 186.853 58.192ZM197.184 52.976H195.632V60H193.36V52.976H192.352V51.136H193.36V50.688C193.36 49.6 193.669 48.8 194.288 48.288C194.906 47.776 195.84 47.536 197.088 47.568V49.456C196.544 49.4453 196.165 49.536 195.952 49.728C195.738 49.92 195.632 50.2667 195.632 50.768V51.136H197.184V52.976ZM206.875 55.376C206.875 55.696 206.854 55.984 206.811 56.24H200.331C200.385 56.88 200.609 57.3813 201.003 57.744C201.398 58.1067 201.883 58.288 202.459 58.288C203.291 58.288 203.883 57.9307 204.235 57.216H206.651C206.395 58.0693 205.905 58.7733 205.179 59.328C204.454 59.872 203.563 60.144 202.507 60.144C201.654 60.144 200.886 59.9573 200.203 59.584C199.531 59.2 199.003 58.6613 198.619 57.968C198.246 57.2747 198.059 56.4747 198.059 55.568C198.059 54.6507 198.246 53.8453 198.619 53.152C198.993 52.4587 199.515 51.9253 200.187 51.552C200.859 51.1787 201.633 50.992 202.507 50.992C203.35 50.992 204.102 51.1733 204.763 51.536C205.435 51.8987 205.953 52.416 206.315 53.088C206.689 53.7493 206.875 54.512 206.875 55.376ZM204.555 54.736C204.545 54.16 204.337 53.7013 203.931 53.36C203.526 53.008 203.03 52.832 202.443 52.832C201.889 52.832 201.419 53.0027 201.035 53.344C200.662 53.6747 200.433 54.1387 200.347 54.736H204.555ZM211.902 60.144C211.177 60.144 210.526 60.016 209.95 59.76C209.374 59.4933 208.916 59.136 208.574 58.688C208.244 58.24 208.062 57.744 208.03 57.2H210.286C210.329 57.5413 210.494 57.824 210.782 58.048C211.081 58.272 211.449 58.384 211.886 58.384C212.313 58.384 212.644 58.2987 212.878 58.128C213.124 57.9573 213.246 57.7387 213.246 57.472C213.246 57.184 213.097 56.9707 212.798 56.832C212.51 56.6827 212.046 56.5227 211.406 56.352C210.745 56.192 210.201 56.0267 209.774 55.856C209.358 55.6853 208.996 55.424 208.686 55.072C208.388 54.72 208.238 54.2453 208.238 53.648C208.238 53.1573 208.377 52.7093 208.654 52.304C208.942 51.8987 209.348 51.5787 209.87 51.344C210.404 51.1093 211.028 50.992 211.742 50.992C212.798 50.992 213.641 51.2587 214.27 51.792C214.9 52.3147 215.246 53.024 215.31 53.92H213.166C213.134 53.568 212.985 53.2907 212.718 53.088C212.462 52.8747 212.116 52.768 211.678 52.768C211.273 52.768 210.958 52.8427 210.734 52.992C210.521 53.1413 210.414 53.3493 210.414 53.616C210.414 53.9147 210.564 54.144 210.862 54.304C211.161 54.4533 211.625 54.608 212.254 54.768C212.894 54.928 213.422 55.0933 213.838 55.264C214.254 55.4347 214.612 55.7013 214.91 56.064C215.22 56.416 215.38 56.8853 215.39 57.472C215.39 57.984 215.246 58.4427 214.958 58.848C214.681 59.2533 214.276 59.5733 213.742 59.808C213.22 60.032 212.606 60.144 211.902 60.144ZM220.621 60.144C219.896 60.144 219.245 60.016 218.669 59.76C218.093 59.4933 217.634 59.136 217.293 58.688C216.962 58.24 216.781 57.744 216.749 57.2H219.005C219.048 57.5413 219.213 57.824 219.501 58.048C219.8 58.272 220.168 58.384 220.605 58.384C221.032 58.384 221.362 58.2987 221.597 58.128C221.842 57.9573 221.965 57.7387 221.965 57.472C221.965 57.184 221.816 56.9707 221.517 56.832C221.229 56.6827 220.765 56.5227 220.125 56.352C219.464 56.192 218.92 56.0267 218.493 55.856C218.077 55.6853 217.714 55.424 217.405 55.072C217.106 54.72 216.957 54.2453 216.957 53.648C216.957 53.1573 217.096 52.7093 217.373 52.304C217.661 51.8987 218.066 51.5787 218.589 51.344C219.122 51.1093 219.746 50.992 220.461 50.992C221.517 50.992 222.36 51.2587 222.989 51.792C223.618 52.3147 223.965 53.024 224.029 53.92H221.885C221.853 53.568 221.704 53.2907 221.437 53.088C221.181 52.8747 220.834 52.768 220.397 52.768C219.992 52.768 219.677 52.8427 219.453 52.992C219.24 53.1413 219.133 53.3493 219.133 53.616C219.133 53.9147 219.282 54.144 219.581 54.304C219.88 54.4533 220.344 54.608 220.973 54.768C221.613 54.928 222.141 55.0933 222.557 55.264C222.973 55.4347 223.33 55.7013 223.629 56.064C223.938 56.416 224.098 56.8853 224.109 57.472C224.109 57.984 223.965 58.4427 223.677 58.848C223.4 59.2533 222.994 59.5733 222.461 59.808C221.938 60.032 221.325 60.144 220.621 60.144ZM227.084 50.08C226.689 50.08 226.358 49.9573 226.092 49.712C225.836 49.456 225.708 49.1413 225.708 48.768C225.708 48.3947 225.836 48.0853 226.092 47.84C226.358 47.584 226.689 47.456 227.084 47.456C227.478 47.456 227.804 47.584 228.06 47.84C228.326 48.0853 228.46 48.3947 228.46 48.768C228.46 49.1413 228.326 49.456 228.06 49.712C227.804 49.9573 227.478 50.08 227.084 50.08ZM228.188 51.136V60H225.948V51.136H228.188ZM234.337 60.144C233.484 60.144 232.716 59.9573 232.033 59.584C231.35 59.2 230.812 58.6613 230.417 57.968C230.033 57.2747 229.841 56.4747 229.841 55.568C229.841 54.6613 230.038 53.8613 230.433 53.168C230.838 52.4747 231.388 51.9413 232.081 51.568C232.774 51.184 233.548 50.992 234.401 50.992C235.254 50.992 236.028 51.184 236.721 51.568C237.414 51.9413 237.958 52.4747 238.353 53.168C238.758 53.8613 238.961 54.6613 238.961 55.568C238.961 56.4747 238.753 57.2747 238.337 57.968C237.932 58.6613 237.377 59.2 236.673 59.584C235.98 59.9573 235.201 60.144 234.337 60.144ZM234.337 58.192C234.742 58.192 235.121 58.096 235.473 57.904C235.836 57.7013 236.124 57.4027 236.337 57.008C236.55 56.6133 236.657 56.1333 236.657 55.568C236.657 54.7253 236.433 54.08 235.985 53.632C235.548 53.1733 235.009 52.944 234.369 52.944C233.729 52.944 233.19 53.1733 232.753 53.632C232.326 54.08 232.113 54.7253 232.113 55.568C232.113 56.4107 232.321 57.0613 232.737 57.52C233.164 57.968 233.697 58.192 234.337 58.192ZM245.516 51.008C246.572 51.008 247.425 51.344 248.076 52.016C248.727 52.6773 249.052 53.6053 249.052 54.8V60H246.812V55.104C246.812 54.4 246.636 53.8613 246.284 53.488C245.932 53.104 245.452 52.912 244.844 52.912C244.225 52.912 243.735 53.104 243.372 53.488C243.02 53.8613 242.844 54.4 242.844 55.104V60H240.604V51.136H242.844V52.24C243.143 51.856 243.521 51.5573 243.98 51.344C244.449 51.12 244.961 51.008 245.516 51.008Z" fill="#889096"/>
<path d="M18.344 106.64V109.44H22.104V111.216H18.344V114.176H22.584V116H16.104V104.816H22.584V106.64H18.344ZM24.0436 111.536C24.0436 110.64 24.2196 109.845 24.5716 109.152C24.9343 108.459 25.425 107.925 26.0436 107.552C26.6623 107.179 27.3503 106.992 28.1076 106.992C28.6836 106.992 29.233 107.12 29.7556 107.376C30.2783 107.621 30.6943 107.952 31.0036 108.368V104.16H33.2756V116H31.0036V114.688C30.7263 115.125 30.337 115.477 29.8356 115.744C29.3343 116.011 28.753 116.144 28.0916 116.144C27.345 116.144 26.6623 115.952 26.0436 115.568C25.425 115.184 24.9343 114.645 24.5716 113.952C24.2196 113.248 24.0436 112.443 24.0436 111.536ZM31.0196 111.568C31.0196 111.024 30.913 110.56 30.6996 110.176C30.4863 109.781 30.1983 109.483 29.8356 109.28C29.473 109.067 29.0836 108.96 28.6676 108.96C28.2516 108.96 27.8676 109.061 27.5156 109.264C27.1636 109.467 26.8756 109.765 26.6516 110.16C26.4383 110.544 26.3316 111.003 26.3316 111.536C26.3316 112.069 26.4383 112.539 26.6516 112.944C26.8756 113.339 27.1636 113.643 27.5156 113.856C27.8783 114.069 28.2623 114.176 28.6676 114.176C29.0836 114.176 29.473 114.075 29.8356 113.872C30.1983 113.659 30.4863 113.36 30.6996 112.976C30.913 112.581 31.0196 112.112 31.0196 111.568ZM43.8314 107.136V116H41.5754V114.88C41.2874 115.264 40.9087 115.568 40.4394 115.792C39.9807 116.005 39.4794 116.112 38.9354 116.112C38.242 116.112 37.6287 115.968 37.0954 115.68C36.562 115.381 36.1407 114.949 35.8314 114.384C35.5327 113.808 35.3834 113.125 35.3834 112.336V107.136H37.6234V112.016C37.6234 112.72 37.7994 113.264 38.1514 113.648C38.5034 114.021 38.9834 114.208 39.5914 114.208C40.21 114.208 40.6954 114.021 41.0474 113.648C41.3994 113.264 41.5754 112.72 41.5754 112.016V107.136H43.8314ZM45.4655 111.568C45.4655 110.651 45.6522 109.851 46.0255 109.168C46.3988 108.475 46.9162 107.941 47.5775 107.568C48.2388 107.184 48.9962 106.992 49.8495 106.992C50.9482 106.992 51.8548 107.269 52.5695 107.824C53.2948 108.368 53.7802 109.136 54.0255 110.128H51.6095C51.4815 109.744 51.2628 109.445 50.9535 109.232C50.6548 109.008 50.2815 108.896 49.8335 108.896C49.1935 108.896 48.6868 109.131 48.3135 109.6C47.9402 110.059 47.7535 110.715 47.7535 111.568C47.7535 112.411 47.9402 113.067 48.3135 113.536C48.6868 113.995 49.1935 114.224 49.8335 114.224C50.7402 114.224 51.3322 113.819 51.6095 113.008H54.0255C53.7802 113.968 53.2948 114.731 52.5695 115.296C51.8442 115.861 50.9375 116.144 49.8495 116.144C48.9962 116.144 48.2388 115.957 47.5775 115.584C46.9162 115.2 46.3988 114.667 46.0255 113.984C45.6522 113.291 45.4655 112.485 45.4655 111.568ZM55.0905 111.536C55.0905 110.64 55.2665 109.845 55.6185 109.152C55.9812 108.459 56.4665 107.925 57.0745 107.552C57.6932 107.179 58.3812 106.992 59.1385 106.992C59.7998 106.992 60.3758 107.125 60.8665 107.392C61.3678 107.659 61.7678 107.995 62.0665 108.4V107.136H64.3225V116H62.0665V114.704C61.7785 115.12 61.3785 115.467 60.8665 115.744C60.3652 116.011 59.7838 116.144 59.1225 116.144C58.3758 116.144 57.6932 115.952 57.0745 115.568C56.4665 115.184 55.9812 114.645 55.6185 113.952C55.2665 113.248 55.0905 112.443 55.0905 111.536ZM62.0665 111.568C62.0665 111.024 61.9598 110.56 61.7465 110.176C61.5332 109.781 61.2452 109.483 60.8825 109.28C60.5198 109.067 60.1305 108.96 59.7145 108.96C59.2985 108.96 58.9145 109.061 58.5625 109.264C58.2105 109.467 57.9225 109.765 57.6985 110.16C57.4852 110.544 57.3785 111.003 57.3785 111.536C57.3785 112.069 57.4852 112.539 57.6985 112.944C57.9225 113.339 58.2105 113.643 58.5625 113.856C58.9252 114.069 59.3092 114.176 59.7145 114.176C60.1305 114.176 60.5198 114.075 60.8825 113.872C61.2452 113.659 61.5332 113.36 61.7465 112.976C61.9598 112.581 62.0665 112.112 62.0665 111.568ZM69.1183 108.976V113.264C69.1183 113.563 69.1876 113.781 69.3263 113.92C69.4756 114.048 69.7209 114.112 70.0623 114.112H71.1023V116H69.6943C67.8063 116 66.8623 115.083 66.8623 113.248V108.976H65.8063V107.136H66.8623V104.944H69.1183V107.136H71.1023V108.976H69.1183ZM73.8494 106.08C73.4547 106.08 73.124 105.957 72.8574 105.712C72.6014 105.456 72.4734 105.141 72.4734 104.768C72.4734 104.395 72.6014 104.085 72.8574 103.84C73.124 103.584 73.4547 103.456 73.8494 103.456C74.244 103.456 74.5694 103.584 74.8254 103.84C75.092 104.085 75.2254 104.395 75.2254 104.768C75.2254 105.141 75.092 105.456 74.8254 105.712C74.5694 105.957 74.244 106.08 73.8494 106.08ZM74.9534 107.136V116H72.7134V107.136H74.9534ZM81.1025 116.144C80.2492 116.144 79.4812 115.957 78.7985 115.584C78.1158 115.2 77.5772 114.661 77.1825 113.968C76.7985 113.275 76.6065 112.475 76.6065 111.568C76.6065 110.661 76.8038 109.861 77.1985 109.168C77.6038 108.475 78.1532 107.941 78.8465 107.568C79.5398 107.184 80.3132 106.992 81.1665 106.992C82.0198 106.992 82.7932 107.184 83.4865 107.568C84.1798 107.941 84.7238 108.475 85.1185 109.168C85.5238 109.861 85.7265 110.661 85.7265 111.568C85.7265 112.475 85.5185 113.275 85.1025 113.968C84.6972 114.661 84.1425 115.2 83.4385 115.584C82.7452 115.957 81.9665 116.144 81.1025 116.144ZM81.1025 114.192C81.5078 114.192 81.8865 114.096 82.2385 113.904C82.6012 113.701 82.8892 113.403 83.1025 113.008C83.3158 112.613 83.4225 112.133 83.4225 111.568C83.4225 110.725 83.1985 110.08 82.7505 109.632C82.3132 109.173 81.7745 108.944 81.1345 108.944C80.4945 108.944 79.9558 109.173 79.5185 109.632C79.0918 110.08 78.8785 110.725 78.8785 111.568C78.8785 112.411 79.0865 113.061 79.5025 113.52C79.9292 113.968 80.4625 114.192 81.1025 114.192ZM92.2816 107.008C93.3376 107.008 94.191 107.344 94.8416 108.016C95.4923 108.677 95.8176 109.605 95.8176 110.8V116H93.5776V111.104C93.5776 110.4 93.4016 109.861 93.0496 109.488C92.6976 109.104 92.2176 108.912 91.6096 108.912C90.991 108.912 90.5003 109.104 90.1376 109.488C89.7856 109.861 89.6096 110.4 89.6096 111.104V116H87.3696V107.136H89.6096V108.24C89.9083 107.856 90.287 107.557 90.7456 107.344C91.215 107.12 91.727 107.008 92.2816 107.008Z" fill="black"/>
<path d="M17.352 133.242V143H16.078V133.242H17.352ZM20.7973 136.574C21.0213 136.135 21.3386 135.795 21.7493 135.552C22.1693 135.309 22.678 135.188 23.2753 135.188V136.504H22.9393C21.5113 136.504 20.7973 137.279 20.7973 138.828V143H19.5233V135.328H20.7973V136.574ZM26.02 136.574C26.244 136.135 26.5613 135.795 26.972 135.552C27.392 135.309 27.9006 135.188 28.498 135.188V136.504H28.162C26.734 136.504 26.02 137.279 26.02 138.828V143H24.746V135.328H26.02V136.574ZM36.9686 138.87C36.9686 139.113 36.9546 139.369 36.9266 139.64H30.7946C30.8413 140.396 31.098 140.989 31.5646 141.418C32.0406 141.838 32.6146 142.048 33.2866 142.048C33.8373 142.048 34.2946 141.922 34.6586 141.67C35.032 141.409 35.2933 141.063 35.4426 140.634H36.8146C36.6093 141.371 36.1986 141.973 35.5826 142.44C34.9666 142.897 34.2013 143.126 33.2866 143.126C32.5586 143.126 31.9053 142.963 31.3266 142.636C30.7573 142.309 30.3093 141.847 29.9826 141.25C29.656 140.643 29.4926 139.943 29.4926 139.15C29.4926 138.357 29.6513 137.661 29.9686 137.064C30.286 136.467 30.7293 136.009 31.2986 135.692C31.8773 135.365 32.54 135.202 33.2866 135.202C34.0146 135.202 34.6586 135.361 35.2186 135.678C35.7786 135.995 36.208 136.434 36.5066 136.994C36.8146 137.545 36.9686 138.17 36.9686 138.87ZM35.6526 138.604C35.6526 138.119 35.5453 137.703 35.3306 137.358C35.116 137.003 34.822 136.737 34.4486 136.56C34.0846 136.373 33.6786 136.28 33.2306 136.28C32.5866 136.28 32.036 136.485 31.5786 136.896C31.1306 137.307 30.874 137.876 30.8086 138.604H35.6526ZM39.9243 132.64V143H38.6503V132.64H39.9243ZM49.0956 138.87C49.0956 139.113 49.0816 139.369 49.0536 139.64H42.9216C42.9682 140.396 43.2249 140.989 43.6916 141.418C44.1676 141.838 44.7416 142.048 45.4136 142.048C45.9642 142.048 46.4216 141.922 46.7856 141.67C47.1589 141.409 47.4202 141.063 47.5696 140.634H48.9416C48.7362 141.371 48.3256 141.973 47.7096 142.44C47.0936 142.897 46.3282 143.126 45.4136 143.126C44.6856 143.126 44.0322 142.963 43.4536 142.636C42.8842 142.309 42.4362 141.847 42.1096 141.25C41.7829 140.643 41.6196 139.943 41.6196 139.15C41.6196 138.357 41.7782 137.661 42.0956 137.064C42.4129 136.467 42.8562 136.009 43.4256 135.692C44.0042 135.365 44.6669 135.202 45.4136 135.202C46.1416 135.202 46.7856 135.361 47.3456 135.678C47.9056 135.995 48.3349 136.434 48.6336 136.994C48.9416 137.545 49.0956 138.17 49.0956 138.87ZM47.7796 138.604C47.7796 138.119 47.6722 137.703 47.4576 137.358C47.2429 137.003 46.9489 136.737 46.5756 136.56C46.2116 136.373 45.8056 136.28 45.3576 136.28C44.7136 136.28 44.1629 136.485 43.7056 136.896C43.2576 137.307 43.0009 137.876 42.9356 138.604H47.7796ZM53.6332 141.824L56.0132 135.328H57.3712L54.3612 143H52.8772L49.8672 135.328H51.2392L53.6332 141.824ZM58.1489 139.136C58.1489 138.352 58.3075 137.666 58.6249 137.078C58.9422 136.481 59.3762 136.019 59.9269 135.692C60.4869 135.365 61.1075 135.202 61.7889 135.202C62.4609 135.202 63.0442 135.347 63.5389 135.636C64.0335 135.925 64.4022 136.289 64.6449 136.728V135.328H65.9329V143H64.6449V141.572C64.3929 142.02 64.0149 142.393 63.5109 142.692C63.0162 142.981 62.4375 143.126 61.7749 143.126C61.0935 143.126 60.4775 142.958 59.9269 142.622C59.3762 142.286 58.9422 141.815 58.6249 141.208C58.3075 140.601 58.1489 139.911 58.1489 139.136ZM64.6449 139.15C64.6449 138.571 64.5282 138.067 64.2949 137.638C64.0615 137.209 63.7442 136.882 63.3429 136.658C62.9509 136.425 62.5169 136.308 62.0409 136.308C61.5649 136.308 61.1309 136.42 60.7389 136.644C60.3469 136.868 60.0342 137.195 59.8009 137.624C59.5675 138.053 59.4509 138.557 59.4509 139.136C59.4509 139.724 59.5675 140.237 59.8009 140.676C60.0342 141.105 60.3469 141.437 60.7389 141.67C61.1309 141.894 61.5649 142.006 62.0409 142.006C62.5169 142.006 62.9509 141.894 63.3429 141.67C63.7442 141.437 64.0615 141.105 64.2949 140.676C64.5282 140.237 64.6449 139.729 64.6449 139.15ZM71.8238 135.188C72.7571 135.188 73.5131 135.473 74.0918 136.042C74.6705 136.602 74.9598 137.414 74.9598 138.478V143H73.6998V138.66C73.6998 137.895 73.5085 137.311 73.1258 136.91C72.7431 136.499 72.2205 136.294 71.5578 136.294C70.8858 136.294 70.3491 136.504 69.9478 136.924C69.5558 137.344 69.3598 137.955 69.3598 138.758V143H68.0858V135.328H69.3598V136.42C69.6118 136.028 69.9525 135.725 70.3818 135.51C70.8205 135.295 71.3011 135.188 71.8238 135.188ZM78.5949 136.378V140.9C78.5949 141.273 78.6742 141.539 78.8329 141.698C78.9916 141.847 79.2669 141.922 79.6589 141.922H80.5969V143H79.4489C78.7396 143 78.2076 142.837 77.8529 142.51C77.4982 142.183 77.3209 141.647 77.3209 140.9V136.378H76.3269V135.328H77.3209V133.396H78.5949V135.328H80.5969V136.378H78.5949ZM87.1469 134.278V137.54H90.7029V138.59H87.1469V141.95H91.1229V143H85.8729V133.228H91.1229V134.278H87.1469ZM92.5747 139.136C92.5747 138.352 92.7333 137.666 93.0507 137.078C93.368 136.481 93.802 136.019 94.3527 135.692C94.9127 135.365 95.538 135.202 96.2287 135.202C96.826 135.202 97.3813 135.342 97.8947 135.622C98.408 135.893 98.8 136.252 99.0707 136.7V132.64H100.359V143H99.0707V141.558C98.8187 142.015 98.4453 142.393 97.9507 142.692C97.456 142.981 96.8773 143.126 96.2147 143.126C95.5333 143.126 94.9127 142.958 94.3527 142.622C93.802 142.286 93.368 141.815 93.0507 141.208C92.7333 140.601 92.5747 139.911 92.5747 139.136ZM99.0707 139.15C99.0707 138.571 98.954 138.067 98.7207 137.638C98.4873 137.209 98.17 136.882 97.7687 136.658C97.3767 136.425 96.9427 136.308 96.4667 136.308C95.9907 136.308 95.5567 136.42 95.1647 136.644C94.7727 136.868 94.46 137.195 94.2267 137.624C93.9933 138.053 93.8767 138.557 93.8767 139.136C93.8767 139.724 93.9933 140.237 94.2267 140.676C94.46 141.105 94.7727 141.437 95.1647 141.67C95.5567 141.894 95.9907 142.006 96.4667 142.006C96.9427 142.006 97.3767 141.894 97.7687 141.67C98.17 141.437 98.4873 141.105 98.7207 140.676C98.954 140.237 99.0707 139.729 99.0707 139.15ZM109.316 135.328V143H108.042V141.866C107.799 142.258 107.458 142.566 107.02 142.79C106.59 143.005 106.114 143.112 105.592 143.112C104.994 143.112 104.458 142.991 103.982 142.748C103.506 142.496 103.128 142.123 102.848 141.628C102.577 141.133 102.442 140.531 102.442 139.822V135.328H103.702V139.654C103.702 140.41 103.893 140.993 104.276 141.404C104.658 141.805 105.181 142.006 105.844 142.006C106.525 142.006 107.062 141.796 107.454 141.376C107.846 140.956 108.042 140.345 108.042 139.542V135.328H109.316ZM110.991 139.15C110.991 138.357 111.149 137.666 111.467 137.078C111.784 136.481 112.223 136.019 112.783 135.692C113.352 135.365 114.001 135.202 114.729 135.202C115.671 135.202 116.446 135.431 117.053 135.888C117.669 136.345 118.075 136.98 118.271 137.792H116.899C116.768 137.325 116.511 136.957 116.129 136.686C115.755 136.415 115.289 136.28 114.729 136.28C114.001 136.28 113.413 136.532 112.965 137.036C112.517 137.531 112.293 138.235 112.293 139.15C112.293 140.074 112.517 140.788 112.965 141.292C113.413 141.796 114.001 142.048 114.729 142.048C115.289 142.048 115.755 141.917 116.129 141.656C116.502 141.395 116.759 141.021 116.899 140.536H118.271C118.065 141.32 117.655 141.95 117.039 142.426C116.423 142.893 115.653 143.126 114.729 143.126C114.001 143.126 113.352 142.963 112.783 142.636C112.223 142.309 111.784 141.847 111.467 141.25C111.149 140.653 110.991 139.953 110.991 139.15ZM119.495 139.136C119.495 138.352 119.653 137.666 119.971 137.078C120.288 136.481 120.722 136.019 121.273 135.692C121.833 135.365 122.453 135.202 123.135 135.202C123.807 135.202 124.39 135.347 124.885 135.636C125.379 135.925 125.748 136.289 125.991 136.728V135.328H127.279V143H125.991V141.572C125.739 142.02 125.361 142.393 124.857 142.692C124.362 142.981 123.783 143.126 123.121 143.126C122.439 143.126 121.823 142.958 121.273 142.622C120.722 142.286 120.288 141.815 119.971 141.208C119.653 140.601 119.495 139.911 119.495 139.136ZM125.991 139.15C125.991 138.571 125.874 138.067 125.641 137.638C125.407 137.209 125.09 136.882 124.689 136.658C124.297 136.425 123.863 136.308 123.387 136.308C122.911 136.308 122.477 136.42 122.085 136.644C121.693 136.868 121.38 137.195 121.147 137.624C120.913 138.053 120.797 138.557 120.797 139.136C120.797 139.724 120.913 140.237 121.147 140.676C121.38 141.105 121.693 141.437 122.085 141.67C122.477 141.894 122.911 142.006 123.387 142.006C123.863 142.006 124.297 141.894 124.689 141.67C125.09 141.437 125.407 141.105 125.641 140.676C125.874 140.237 125.991 139.729 125.991 139.15ZM130.986 136.378V140.9C130.986 141.273 131.065 141.539 131.224 141.698C131.382 141.847 131.658 141.922 132.05 141.922H132.988V143H131.84C131.13 143 130.598 142.837 130.244 142.51C129.889 142.183 129.712 141.647 129.712 140.9V136.378H128.718V135.328H129.712V133.396H130.986V135.328H132.988V136.378H130.986ZM135.189 134.082C134.946 134.082 134.741 133.998 134.573 133.83C134.405 133.662 134.321 133.457 134.321 133.214C134.321 132.971 134.405 132.766 134.573 132.598C134.741 132.43 134.946 132.346 135.189 132.346C135.422 132.346 135.618 132.43 135.777 132.598C135.945 132.766 136.029 132.971 136.029 133.214C136.029 133.457 135.945 133.662 135.777 133.83C135.618 133.998 135.422 134.082 135.189 134.082ZM135.805 135.328V143H134.531V135.328H135.805ZM141.322 143.126C140.604 143.126 139.95 142.963 139.362 142.636C138.784 142.309 138.326 141.847 137.99 141.25C137.664 140.643 137.5 139.943 137.5 139.15C137.5 138.366 137.668 137.675 138.004 137.078C138.35 136.471 138.816 136.009 139.404 135.692C139.992 135.365 140.65 135.202 141.378 135.202C142.106 135.202 142.764 135.365 143.352 135.692C143.94 136.009 144.402 136.467 144.738 137.064C145.084 137.661 145.256 138.357 145.256 139.15C145.256 139.943 145.079 140.643 144.724 141.25C144.379 141.847 143.908 142.309 143.31 142.636C142.713 142.963 142.05 143.126 141.322 143.126ZM141.322 142.006C141.78 142.006 142.209 141.899 142.61 141.684C143.012 141.469 143.334 141.147 143.576 140.718C143.828 140.289 143.954 139.766 143.954 139.15C143.954 138.534 143.833 138.011 143.59 137.582C143.348 137.153 143.03 136.835 142.638 136.63C142.246 136.415 141.822 136.308 141.364 136.308C140.898 136.308 140.468 136.415 140.076 136.63C139.694 136.835 139.386 137.153 139.152 137.582C138.919 138.011 138.802 138.534 138.802 139.15C138.802 139.775 138.914 140.303 139.138 140.732C139.372 141.161 139.68 141.483 140.062 141.698C140.445 141.903 140.865 142.006 141.322 142.006ZM150.67 135.188C151.603 135.188 152.359 135.473 152.938 136.042C153.516 136.602 153.806 137.414 153.806 138.478V143H152.546V138.66C152.546 137.895 152.354 137.311 151.972 136.91C151.589 136.499 151.066 136.294 150.404 136.294C149.732 136.294 149.195 136.504 148.794 136.924C148.402 137.344 148.206 137.955 148.206 138.758V143H146.932V135.328H148.206V136.42C148.458 136.028 148.798 135.725 149.228 135.51C149.666 135.295 150.147 135.188 150.67 135.188ZM162.895 145.604C161.999 144.727 161.299 143.611 160.795 142.258C160.3 140.905 160.053 139.444 160.053 137.876C160.053 136.271 160.314 134.773 160.837 133.382C161.369 131.982 162.125 130.829 163.105 129.924H164.435V130.05C163.39 131.03 162.601 132.211 162.069 133.592C161.546 134.964 161.285 136.392 161.285 137.876C161.285 139.323 161.532 140.704 162.027 142.02C162.531 143.336 163.264 144.489 164.225 145.478V145.604H162.895ZM165.612 141.978C166.798 141.026 167.726 140.247 168.398 139.64C169.07 139.024 169.635 138.385 170.092 137.722C170.559 137.05 170.792 136.392 170.792 135.748C170.792 135.141 170.643 134.665 170.344 134.32C170.055 133.965 169.584 133.788 168.93 133.788C168.296 133.788 167.801 133.989 167.446 134.39C167.101 134.782 166.914 135.309 166.886 135.972H165.654C165.692 134.927 166.009 134.119 166.606 133.55C167.204 132.981 167.974 132.696 168.916 132.696C169.878 132.696 170.638 132.962 171.198 133.494C171.768 134.026 172.052 134.759 172.052 135.692C172.052 136.467 171.819 137.223 171.352 137.96C170.895 138.688 170.372 139.332 169.784 139.892C169.196 140.443 168.445 141.087 167.53 141.824H172.346V142.888H165.612V141.978ZM173.819 137.834C173.819 136.229 174.081 134.978 174.603 134.082C175.126 133.177 176.041 132.724 177.347 132.724C178.645 132.724 179.555 133.177 180.077 134.082C180.6 134.978 180.861 136.229 180.861 137.834C180.861 139.467 180.6 140.737 180.077 141.642C179.555 142.547 178.645 143 177.347 143C176.041 143 175.126 142.547 174.603 141.642C174.081 140.737 173.819 139.467 173.819 137.834ZM179.601 137.834C179.601 137.022 179.545 136.336 179.433 135.776C179.331 135.207 179.111 134.749 178.775 134.404C178.449 134.059 177.973 133.886 177.347 133.886C176.713 133.886 176.227 134.059 175.891 134.404C175.565 134.749 175.345 135.207 175.233 135.776C175.131 136.336 175.079 137.022 175.079 137.834C175.079 138.674 175.131 139.379 175.233 139.948C175.345 140.517 175.565 140.975 175.891 141.32C176.227 141.665 176.713 141.838 177.347 141.838C177.973 141.838 178.449 141.665 178.775 141.32C179.111 140.975 179.331 140.517 179.433 139.948C179.545 139.379 179.601 138.674 179.601 137.834ZM182.274 134.04V132.878H184.906V143H183.618V134.04H182.274ZM187.095 137.834C187.095 136.229 187.356 134.978 187.879 134.082C188.401 133.177 189.316 132.724 190.623 132.724C191.92 132.724 192.83 133.177 193.353 134.082C193.875 134.978 194.137 136.229 194.137 137.834C194.137 139.467 193.875 140.737 193.353 141.642C192.83 142.547 191.92 143 190.623 143C189.316 143 188.401 142.547 187.879 141.642C187.356 140.737 187.095 139.467 187.095 137.834ZM192.877 137.834C192.877 137.022 192.821 136.336 192.709 135.776C192.606 135.207 192.387 134.749 192.051 134.404C191.724 134.059 191.248 133.886 190.623 133.886C189.988 133.886 189.503 134.059 189.167 134.404C188.84 134.749 188.621 135.207 188.509 135.776C188.406 136.336 188.355 137.022 188.355 137.834C188.355 138.674 188.406 139.379 188.509 139.948C188.621 140.517 188.84 140.975 189.167 141.32C189.503 141.665 189.988 141.838 190.623 141.838C191.248 141.838 191.724 141.665 192.051 141.32C192.387 140.975 192.606 140.517 192.709 139.948C192.821 139.379 192.877 138.674 192.877 137.834ZM201.416 137.33V138.408H195.83V137.33H201.416ZM203.443 141.978C204.628 141.026 205.557 140.247 206.229 139.64C206.901 139.024 207.465 138.385 207.923 137.722C208.389 137.05 208.623 136.392 208.623 135.748C208.623 135.141 208.473 134.665 208.175 134.32C207.885 133.965 207.414 133.788 206.761 133.788C206.126 133.788 205.631 133.989 205.277 134.39C204.931 134.782 204.745 135.309 204.717 135.972H203.485C203.522 134.927 203.839 134.119 204.437 133.55C205.034 132.981 205.804 132.696 206.747 132.696C207.708 132.696 208.469 132.962 209.029 133.494C209.598 134.026 209.883 134.759 209.883 135.692C209.883 136.467 209.649 137.223 209.183 137.96C208.725 138.688 208.203 139.332 207.615 139.892C207.027 140.443 206.275 141.087 205.361 141.824H210.177V142.888H203.443V141.978ZM211.649 137.834C211.649 136.229 211.911 134.978 212.433 134.082C212.956 133.177 213.871 132.724 215.177 132.724C216.475 132.724 217.385 133.177 217.907 134.082C218.43 134.978 218.691 136.229 218.691 137.834C218.691 139.467 218.43 140.737 217.907 141.642C217.385 142.547 216.475 143 215.177 143C213.871 143 212.956 142.547 212.433 141.642C211.911 140.737 211.649 139.467 211.649 137.834ZM217.431 137.834C217.431 137.022 217.375 136.336 217.263 135.776C217.161 135.207 216.941 134.749 216.605 134.404C216.279 134.059 215.803 133.886 215.177 133.886C214.543 133.886 214.057 134.059 213.721 134.404C213.395 134.749 213.175 135.207 213.063 135.776C212.961 136.336 212.909 137.022 212.909 137.834C212.909 138.674 212.961 139.379 213.063 139.948C213.175 140.517 213.395 140.975 213.721 141.32C214.057 141.665 214.543 141.838 215.177 141.838C215.803 141.838 216.279 141.665 216.605 141.32C216.941 140.975 217.161 140.517 217.263 139.948C217.375 139.379 217.431 138.674 217.431 137.834ZM220.104 134.04V132.878H222.736V143H221.448V134.04H220.104ZM226.773 137.736C226.25 137.531 225.849 137.232 225.569 136.84C225.289 136.448 225.149 135.972 225.149 135.412C225.149 134.908 225.275 134.455 225.527 134.054C225.779 133.643 226.152 133.321 226.647 133.088C227.151 132.845 227.757 132.724 228.467 132.724C229.176 132.724 229.778 132.845 230.273 133.088C230.777 133.321 231.155 133.643 231.407 134.054C231.668 134.455 231.799 134.908 231.799 135.412C231.799 135.953 231.654 136.429 231.365 136.84C231.075 137.241 230.679 137.54 230.175 137.736C230.753 137.913 231.211 138.226 231.547 138.674C231.892 139.113 232.065 139.645 232.065 140.27C232.065 140.877 231.915 141.409 231.617 141.866C231.318 142.314 230.893 142.664 230.343 142.916C229.801 143.159 229.176 143.28 228.467 143.28C227.757 143.28 227.132 143.159 226.591 142.916C226.059 142.664 225.643 142.314 225.345 141.866C225.046 141.409 224.897 140.877 224.897 140.27C224.897 139.645 225.065 139.108 225.401 138.66C225.737 138.212 226.194 137.904 226.773 137.736ZM230.567 135.566C230.567 134.997 230.38 134.558 230.007 134.25C229.633 133.942 229.12 133.788 228.467 133.788C227.823 133.788 227.314 133.942 226.941 134.25C226.567 134.558 226.381 135.001 226.381 135.58C226.381 136.103 226.572 136.523 226.955 136.84C227.347 137.157 227.851 137.316 228.467 137.316C229.092 137.316 229.596 137.157 229.979 136.84C230.371 136.513 230.567 136.089 230.567 135.566ZM228.467 138.296C227.776 138.296 227.211 138.459 226.773 138.786C226.334 139.103 226.115 139.584 226.115 140.228C226.115 140.825 226.325 141.306 226.745 141.67C227.174 142.034 227.748 142.216 228.467 142.216C229.185 142.216 229.755 142.034 230.175 141.67C230.595 141.306 230.805 140.825 230.805 140.228C230.805 139.603 230.59 139.127 230.161 138.8C229.731 138.464 229.167 138.296 228.467 138.296ZM233.561 145.604V145.478C234.522 144.489 235.25 143.336 235.745 142.02C236.249 140.704 236.501 139.323 236.501 137.876C236.501 136.392 236.235 134.964 235.703 133.592C235.18 132.211 234.396 131.03 233.351 130.05V129.924H234.681C235.661 130.829 236.412 131.982 236.935 133.382C237.467 134.773 237.733 136.271 237.733 137.876C237.733 139.444 237.481 140.905 236.977 142.258C236.482 143.611 235.787 144.727 234.891 145.604H233.561Z" fill="black"/>
<path d="M18.344 181.64V184.44H22.104V186.216H18.344V189.176H22.584V191H16.104V179.816H22.584V181.64H18.344ZM29.5156 191L27.6916 188.248L26.0756 191H23.6756L26.5716 186.552L23.6436 182.136H26.1716L27.9796 184.872L29.6116 182.136H32.0116L29.0996 186.552L32.0436 191H29.5156ZM35.5003 183.416C35.7883 183.011 36.1829 182.675 36.6843 182.408C37.1963 182.131 37.7776 181.992 38.4283 181.992C39.1856 181.992 39.8683 182.179 40.4763 182.552C41.0949 182.925 41.5803 183.459 41.9323 184.152C42.2949 184.835 42.4763 185.629 42.4763 186.536C42.4763 187.443 42.2949 188.248 41.9323 188.952C41.5803 189.645 41.0949 190.184 40.4763 190.568C39.8683 190.952 39.1856 191.144 38.4283 191.144C37.7776 191.144 37.2016 191.011 36.7003 190.744C36.2096 190.477 35.8096 190.141 35.5003 189.736V195.224H33.2603V182.136H35.5003V183.416ZM40.1883 186.536C40.1883 186.003 40.0763 185.544 39.8523 185.16C39.6389 184.765 39.3509 184.467 38.9883 184.264C38.6363 184.061 38.2523 183.96 37.8363 183.96C37.4309 183.96 37.0469 184.067 36.6843 184.28C36.3323 184.483 36.0443 184.781 35.8203 185.176C35.6069 185.571 35.5003 186.035 35.5003 186.568C35.5003 187.101 35.6069 187.565 35.8203 187.96C36.0443 188.355 36.3323 188.659 36.6843 188.872C37.0469 189.075 37.4309 189.176 37.8363 189.176C38.2523 189.176 38.6363 189.069 38.9883 188.856C39.3509 188.643 39.6389 188.339 39.8523 187.944C40.0763 187.549 40.1883 187.08 40.1883 186.536ZM52.344 186.376C52.344 186.696 52.3227 186.984 52.28 187.24H45.8C45.8533 187.88 46.0773 188.381 46.472 188.744C46.8667 189.107 47.352 189.288 47.928 189.288C48.76 189.288 49.352 188.931 49.704 188.216H52.12C51.864 189.069 51.3733 189.773 50.648 190.328C49.9227 190.872 49.032 191.144 47.976 191.144C47.1227 191.144 46.3547 190.957 45.672 190.584C45 190.2 44.472 189.661 44.088 188.968C43.7147 188.275 43.528 187.475 43.528 186.568C43.528 185.651 43.7147 184.845 44.088 184.152C44.4613 183.459 44.984 182.925 45.656 182.552C46.328 182.179 47.1013 181.992 47.976 181.992C48.8187 181.992 49.5707 182.173 50.232 182.536C50.904 182.899 51.4213 183.416 51.784 184.088C52.1573 184.749 52.344 185.512 52.344 186.376ZM50.024 185.736C50.0133 185.16 49.8053 184.701 49.4 184.36C48.9947 184.008 48.4987 183.832 47.912 183.832C47.3573 183.832 46.888 184.003 46.504 184.344C46.1307 184.675 45.9013 185.139 45.816 185.736H50.024ZM56.219 183.512C56.507 183.043 56.8803 182.675 57.339 182.408C57.8083 182.141 58.3417 182.008 58.939 182.008V184.36H58.347C57.643 184.36 57.1097 184.525 56.747 184.856C56.395 185.187 56.219 185.763 56.219 186.584V191H53.979V182.136H56.219V183.512ZM61.5838 181.08C61.1891 181.08 60.8584 180.957 60.5918 180.712C60.3358 180.456 60.2078 180.141 60.2078 179.768C60.2078 179.395 60.3358 179.085 60.5918 178.84C60.8584 178.584 61.1891 178.456 61.5838 178.456C61.9784 178.456 62.3038 178.584 62.5598 178.84C62.8264 179.085 62.9598 179.395 62.9598 179.768C62.9598 180.141 62.8264 180.456 62.5598 180.712C62.3038 180.957 61.9784 181.08 61.5838 181.08ZM62.6878 182.136V191H60.4478V182.136H62.6878ZM73.1409 186.376C73.1409 186.696 73.1195 186.984 73.0769 187.24H66.5969C66.6502 187.88 66.8742 188.381 67.2689 188.744C67.6635 189.107 68.1489 189.288 68.7249 189.288C69.5569 189.288 70.1489 188.931 70.5009 188.216H72.9169C72.6609 189.069 72.1702 189.773 71.4449 190.328C70.7195 190.872 69.8289 191.144 68.7729 191.144C67.9195 191.144 67.1515 190.957 66.4689 190.584C65.7969 190.2 65.2689 189.661 64.8849 188.968C64.5115 188.275 64.3249 187.475 64.3249 186.568C64.3249 185.651 64.5115 184.845 64.8849 184.152C65.2582 183.459 65.7809 182.925 66.4529 182.552C67.1249 182.179 67.8982 181.992 68.7729 181.992C69.6155 181.992 70.3675 182.173 71.0289 182.536C71.7009 182.899 72.2182 183.416 72.5809 184.088C72.9542 184.749 73.1409 185.512 73.1409 186.376ZM70.8209 185.736C70.8102 185.16 70.6022 184.701 70.1969 184.36C69.7915 184.008 69.2955 183.832 68.7089 183.832C68.1542 183.832 67.6849 184.003 67.3009 184.344C66.9275 184.675 66.6982 185.139 66.6129 185.736H70.8209ZM79.6879 182.008C80.7439 182.008 81.5972 182.344 82.2479 183.016C82.8985 183.677 83.2239 184.605 83.2239 185.8V191H80.9839V186.104C80.9839 185.4 80.8079 184.861 80.4559 184.488C80.1039 184.104 79.6239 183.912 79.0159 183.912C78.3972 183.912 77.9065 184.104 77.5439 184.488C77.1919 184.861 77.0159 185.4 77.0159 186.104V191H74.7759V182.136H77.0159V183.24C77.3145 182.856 77.6932 182.557 78.1519 182.344C78.6212 182.12 79.1332 182.008 79.6879 182.008ZM84.778 186.568C84.778 185.651 84.9647 184.851 85.338 184.168C85.7113 183.475 86.2287 182.941 86.89 182.568C87.5513 182.184 88.3087 181.992 89.162 181.992C90.2607 181.992 91.1673 182.269 91.882 182.824C92.6073 183.368 93.0927 184.136 93.338 185.128H90.922C90.794 184.744 90.5753 184.445 90.266 184.232C89.9673 184.008 89.594 183.896 89.146 183.896C88.506 183.896 87.9993 184.131 87.626 184.6C87.2527 185.059 87.066 185.715 87.066 186.568C87.066 187.411 87.2527 188.067 87.626 188.536C87.9993 188.995 88.506 189.224 89.146 189.224C90.0527 189.224 90.6447 188.819 90.922 188.008H93.338C93.0927 188.968 92.6073 189.731 91.882 190.296C91.1567 190.861 90.25 191.144 89.162 191.144C88.3087 191.144 87.5513 190.957 86.89 190.584C86.2287 190.2 85.7113 189.667 85.338 188.984C84.9647 188.291 84.778 187.485 84.778 186.568ZM103.219 186.376C103.219 186.696 103.198 186.984 103.155 187.24H96.675C96.7283 187.88 96.9523 188.381 97.347 188.744C97.7417 189.107 98.227 189.288 98.803 189.288C99.635 189.288 100.227 188.931 100.579 188.216H102.995C102.739 189.069 102.248 189.773 101.523 190.328C100.798 190.872 99.907 191.144 98.851 191.144C97.9977 191.144 97.2297 190.957 96.547 190.584C95.875 190.2 95.347 189.661 94.963 188.968C94.5897 188.275 94.403 187.475 94.403 186.568C94.403 185.651 94.5897 184.845 94.963 184.152C95.3363 183.459 95.859 182.925 96.531 182.552C97.203 182.179 97.9763 181.992 98.851 181.992C99.6937 181.992 100.446 182.173 101.107 182.536C101.779 182.899 102.296 183.416 102.659 184.088C103.032 184.749 103.219 185.512 103.219 186.376ZM100.899 185.736C100.888 185.16 100.68 184.701 100.275 184.36C99.8697 184.008 99.3737 183.832 98.787 183.832C98.2323 183.832 97.763 184.003 97.379 184.344C97.0057 184.675 96.7763 185.139 96.691 185.736H100.899Z" fill="black"/>
<path d="M25.4852 215.046C25.0092 215.046 24.6032 214.883 24.2672 214.556C23.9406 214.22 23.7772 213.814 23.7772 213.338C23.7772 212.853 23.9406 212.447 24.2672 212.12C24.6032 211.784 25.0092 211.616 25.4852 211.616C25.9706 211.616 26.3812 211.784 26.7172 212.12C27.0532 212.447 27.2212 212.853 27.2212 213.338C27.2212 213.814 27.0532 214.22 26.7172 214.556C26.3812 214.883 25.9706 215.046 25.4852 215.046ZM38.352 208.242V218H37.078V208.242H38.352ZM41.7973 211.574C42.0213 211.135 42.3386 210.795 42.7493 210.552C43.1693 210.309 43.678 210.188 44.2753 210.188V211.504H43.9393C42.5113 211.504 41.7973 212.279 41.7973 213.828V218H40.5233V210.328H41.7973V211.574ZM47.02 211.574C47.244 211.135 47.5613 210.795 47.972 210.552C48.392 210.309 48.9006 210.188 49.498 210.188V211.504H49.162C47.734 211.504 47.02 212.279 47.02 213.828V218H45.746V210.328H47.02V211.574ZM57.9686 213.87C57.9686 214.113 57.9546 214.369 57.9266 214.64H51.7946C51.8413 215.396 52.098 215.989 52.5646 216.418C53.0406 216.838 53.6146 217.048 54.2866 217.048C54.8373 217.048 55.2946 216.922 55.6586 216.67C56.032 216.409 56.2933 216.063 56.4426 215.634H57.8146C57.6093 216.371 57.1986 216.973 56.5826 217.44C55.9666 217.897 55.2013 218.126 54.2866 218.126C53.5586 218.126 52.9053 217.963 52.3266 217.636C51.7573 217.309 51.3093 216.847 50.9826 216.25C50.656 215.643 50.4926 214.943 50.4926 214.15C50.4926 213.357 50.6513 212.661 50.9686 212.064C51.286 211.467 51.7293 211.009 52.2986 210.692C52.8773 210.365 53.54 210.202 54.2866 210.202C55.0146 210.202 55.6586 210.361 56.2186 210.678C56.7786 210.995 57.208 211.434 57.5066 211.994C57.8146 212.545 57.9686 213.17 57.9686 213.87ZM56.6526 213.604C56.6526 213.119 56.5453 212.703 56.3306 212.358C56.116 212.003 55.822 211.737 55.4486 211.56C55.0846 211.373 54.6786 211.28 54.2306 211.28C53.5866 211.28 53.036 211.485 52.5786 211.896C52.1306 212.307 51.874 212.876 51.8086 213.604H56.6526ZM60.9243 207.64V218H59.6503V207.64H60.9243ZM70.0956 213.87C70.0956 214.113 70.0816 214.369 70.0536 214.64H63.9216C63.9682 215.396 64.2249 215.989 64.6916 216.418C65.1676 216.838 65.7416 217.048 66.4136 217.048C66.9642 217.048 67.4216 216.922 67.7856 216.67C68.1589 216.409 68.4202 216.063 68.5696 215.634H69.9416C69.7362 216.371 69.3256 216.973 68.7096 217.44C68.0936 217.897 67.3282 218.126 66.4136 218.126C65.6856 218.126 65.0322 217.963 64.4536 217.636C63.8842 217.309 63.4362 216.847 63.1096 216.25C62.7829 215.643 62.6196 214.943 62.6196 214.15C62.6196 213.357 62.7782 212.661 63.0956 212.064C63.4129 211.467 63.8562 211.009 64.4256 210.692C65.0042 210.365 65.6669 210.202 66.4136 210.202C67.1416 210.202 67.7856 210.361 68.3456 210.678C68.9056 210.995 69.3349 211.434 69.6336 211.994C69.9416 212.545 70.0956 213.17 70.0956 213.87ZM68.7796 213.604C68.7796 213.119 68.6722 212.703 68.4576 212.358C68.2429 212.003 67.9489 211.737 67.5756 211.56C67.2116 211.373 66.8056 211.28 66.3576 211.28C65.7136 211.28 65.1629 211.485 64.7056 211.896C64.2576 212.307 64.0009 212.876 63.9356 213.604H68.7796ZM74.6332 216.824L77.0132 210.328H78.3712L75.3612 218H73.8772L70.8672 210.328H72.2392L74.6332 216.824ZM79.1489 214.136C79.1489 213.352 79.3075 212.666 79.6249 212.078C79.9422 211.481 80.3762 211.019 80.9269 210.692C81.4869 210.365 82.1075 210.202 82.7889 210.202C83.4609 210.202 84.0442 210.347 84.5389 210.636C85.0335 210.925 85.4022 211.289 85.6449 211.728V210.328H86.9329V218H85.6449V216.572C85.3929 217.02 85.0149 217.393 84.5109 217.692C84.0162 217.981 83.4375 218.126 82.7749 218.126C82.0935 218.126 81.4775 217.958 80.9269 217.622C80.3762 217.286 79.9422 216.815 79.6249 216.208C79.3075 215.601 79.1489 214.911 79.1489 214.136ZM85.6449 214.15C85.6449 213.571 85.5282 213.067 85.2949 212.638C85.0615 212.209 84.7442 211.882 84.3429 211.658C83.9509 211.425 83.5169 211.308 83.0409 211.308C82.5649 211.308 82.1309 211.42 81.7389 211.644C81.3469 211.868 81.0342 212.195 80.8009 212.624C80.5675 213.053 80.4509 213.557 80.4509 214.136C80.4509 214.724 80.5675 215.237 80.8009 215.676C81.0342 216.105 81.3469 216.437 81.7389 216.67C82.1309 216.894 82.5649 217.006 83.0409 217.006C83.5169 217.006 83.9509 216.894 84.3429 216.67C84.7442 216.437 85.0615 216.105 85.2949 215.676C85.5282 215.237 85.6449 214.729 85.6449 214.15ZM92.8238 210.188C93.7571 210.188 94.5131 210.473 95.0918 211.042C95.6705 211.602 95.9598 212.414 95.9598 213.478V218H94.6998V213.66C94.6998 212.895 94.5085 212.311 94.1258 211.91C93.7431 211.499 93.2205 211.294 92.5578 211.294C91.8858 211.294 91.3491 211.504 90.9478 211.924C90.5558 212.344 90.3598 212.955 90.3598 213.758V218H89.0858V210.328H90.3598V211.42C90.6118 211.028 90.9525 210.725 91.3818 210.51C91.8205 210.295 92.3011 210.188 92.8238 210.188ZM99.5949 211.378V215.9C99.5949 216.273 99.6742 216.539 99.8329 216.698C99.9916 216.847 100.267 216.922 100.659 216.922H101.597V218H100.449C99.7396 218 99.2076 217.837 98.8529 217.51C98.4982 217.183 98.3209 216.647 98.3209 215.9V211.378H97.3269V210.328H98.3209V208.396H99.5949V210.328H101.597V211.378H99.5949ZM111.787 208.242V215.452C111.787 216.255 111.54 216.899 111.045 217.384C110.55 217.86 109.897 218.098 109.085 218.098C108.264 218.098 107.606 217.855 107.111 217.37C106.616 216.875 106.369 216.203 106.369 215.354H107.643C107.652 215.83 107.774 216.217 108.007 216.516C108.25 216.815 108.609 216.964 109.085 216.964C109.561 216.964 109.916 216.824 110.149 216.544C110.382 216.255 110.499 215.891 110.499 215.452V208.242H111.787ZM117.643 218.126C116.924 218.126 116.271 217.963 115.683 217.636C115.104 217.309 114.647 216.847 114.311 216.25C113.984 215.643 113.821 214.943 113.821 214.15C113.821 213.366 113.989 212.675 114.325 212.078C114.67 211.471 115.137 211.009 115.725 210.692C116.313 210.365 116.971 210.202 117.699 210.202C118.427 210.202 119.085 210.365 119.673 210.692C120.261 211.009 120.723 211.467 121.059 212.064C121.404 212.661 121.577 213.357 121.577 214.15C121.577 214.943 121.399 215.643 121.045 216.25C120.699 216.847 120.228 217.309 119.631 217.636C119.033 217.963 118.371 218.126 117.643 218.126ZM117.643 217.006C118.1 217.006 118.529 216.899 118.931 216.684C119.332 216.469 119.654 216.147 119.897 215.718C120.149 215.289 120.275 214.766 120.275 214.15C120.275 213.534 120.153 213.011 119.911 212.582C119.668 212.153 119.351 211.835 118.959 211.63C118.567 211.415 118.142 211.308 117.685 211.308C117.218 211.308 116.789 211.415 116.397 211.63C116.014 211.835 115.706 212.153 115.473 212.582C115.239 213.011 115.123 213.534 115.123 214.15C115.123 214.775 115.235 215.303 115.459 215.732C115.692 216.161 116 216.483 116.383 216.698C116.765 216.903 117.185 217.006 117.643 217.006ZM124.526 211.756C124.787 211.299 125.17 210.925 125.674 210.636C126.178 210.347 126.752 210.202 127.396 210.202C128.086 210.202 128.707 210.365 129.258 210.692C129.808 211.019 130.242 211.481 130.56 212.078C130.877 212.666 131.036 213.352 131.036 214.136C131.036 214.911 130.877 215.601 130.56 216.208C130.242 216.815 129.804 217.286 129.244 217.622C128.693 217.958 128.077 218.126 127.396 218.126C126.733 218.126 126.15 217.981 125.646 217.692C125.151 217.403 124.778 217.034 124.526 216.586V218H123.252V207.64H124.526V211.756ZM129.734 214.136C129.734 213.557 129.617 213.053 129.384 212.624C129.15 212.195 128.833 211.868 128.432 211.644C128.04 211.42 127.606 211.308 127.13 211.308C126.663 211.308 126.229 211.425 125.828 211.658C125.436 211.882 125.118 212.213 124.876 212.652C124.642 213.081 124.526 213.581 124.526 214.15C124.526 214.729 124.642 215.237 124.876 215.676C125.118 216.105 125.436 216.437 125.828 216.67C126.229 216.894 126.663 217.006 127.13 217.006C127.606 217.006 128.04 216.894 128.432 216.67C128.833 216.437 129.15 216.105 129.384 215.676C129.617 215.237 129.734 214.724 129.734 214.136ZM135.899 209.04V207.878H138.531V218H137.243V209.04H135.899ZM25.4852 236.046C25.0092 236.046 24.6032 235.883 24.2672 235.556C23.9406 235.22 23.7772 234.814 23.7772 234.338C23.7772 233.853 23.9406 233.447 24.2672 233.12C24.6032 232.784 25.0092 232.616 25.4852 232.616C25.9706 232.616 26.3812 232.784 26.7172 233.12C27.0532 233.447 27.2212 233.853 27.2212 234.338C27.2212 234.814 27.0532 235.22 26.7172 235.556C26.3812 235.883 25.9706 236.046 25.4852 236.046ZM38.352 229.242V239H37.078V229.242H38.352ZM41.7973 232.574C42.0213 232.135 42.3386 231.795 42.7493 231.552C43.1693 231.309 43.678 231.188 44.2753 231.188V232.504H43.9393C42.5113 232.504 41.7973 233.279 41.7973 234.828V239H40.5233V231.328H41.7973V232.574ZM47.02 232.574C47.244 232.135 47.5613 231.795 47.972 231.552C48.392 231.309 48.9006 231.188 49.498 231.188V232.504H49.162C47.734 232.504 47.02 233.279 47.02 234.828V239H45.746V231.328H47.02V232.574ZM57.9686 234.87C57.9686 235.113 57.9546 235.369 57.9266 235.64H51.7946C51.8413 236.396 52.098 236.989 52.5646 237.418C53.0406 237.838 53.6146 238.048 54.2866 238.048C54.8373 238.048 55.2946 237.922 55.6586 237.67C56.032 237.409 56.2933 237.063 56.4426 236.634H57.8146C57.6093 237.371 57.1986 237.973 56.5826 238.44C55.9666 238.897 55.2013 239.126 54.2866 239.126C53.5586 239.126 52.9053 238.963 52.3266 238.636C51.7573 238.309 51.3093 237.847 50.9826 237.25C50.656 236.643 50.4926 235.943 50.4926 235.15C50.4926 234.357 50.6513 233.661 50.9686 233.064C51.286 232.467 51.7293 232.009 52.2986 231.692C52.8773 231.365 53.54 231.202 54.2866 231.202C55.0146 231.202 55.6586 231.361 56.2186 231.678C56.7786 231.995 57.208 232.434 57.5066 232.994C57.8146 233.545 57.9686 234.17 57.9686 234.87ZM56.6526 234.604C56.6526 234.119 56.5453 233.703 56.3306 233.358C56.116 233.003 55.822 232.737 55.4486 232.56C55.0846 232.373 54.6786 232.28 54.2306 232.28C53.5866 232.28 53.036 232.485 52.5786 232.896C52.1306 233.307 51.874 233.876 51.8086 234.604H56.6526ZM60.9243 228.64V239H59.6503V228.64H60.9243ZM70.0956 234.87C70.0956 235.113 70.0816 235.369 70.0536 235.64H63.9216C63.9682 236.396 64.2249 236.989 64.6916 237.418C65.1676 237.838 65.7416 238.048 66.4136 238.048C66.9642 238.048 67.4216 237.922 67.7856 237.67C68.1589 237.409 68.4202 237.063 68.5696 236.634H69.9416C69.7362 237.371 69.3256 237.973 68.7096 238.44C68.0936 238.897 67.3282 239.126 66.4136 239.126C65.6856 239.126 65.0322 238.963 64.4536 238.636C63.8842 238.309 63.4362 237.847 63.1096 237.25C62.7829 236.643 62.6196 235.943 62.6196 235.15C62.6196 234.357 62.7782 233.661 63.0956 233.064C63.4129 232.467 63.8562 232.009 64.4256 231.692C65.0042 231.365 65.6669 231.202 66.4136 231.202C67.1416 231.202 67.7856 231.361 68.3456 231.678C68.9056 231.995 69.3349 232.434 69.6336 232.994C69.9416 233.545 70.0956 234.17 70.0956 234.87ZM68.7796 234.604C68.7796 234.119 68.6722 233.703 68.4576 233.358C68.2429 233.003 67.9489 232.737 67.5756 232.56C67.2116 232.373 66.8056 232.28 66.3576 232.28C65.7136 232.28 65.1629 232.485 64.7056 232.896C64.2576 233.307 64.0009 233.876 63.9356 234.604H68.7796ZM74.6332 237.824L77.0132 231.328H78.3712L75.3612 239H73.8772L70.8672 231.328H72.2392L74.6332 237.824ZM79.1489 235.136C79.1489 234.352 79.3075 233.666 79.6249 233.078C79.9422 232.481 80.3762 232.019 80.9269 231.692C81.4869 231.365 82.1075 231.202 82.7889 231.202C83.4609 231.202 84.0442 231.347 84.5389 231.636C85.0335 231.925 85.4022 232.289 85.6449 232.728V231.328H86.9329V239H85.6449V237.572C85.3929 238.02 85.0149 238.393 84.5109 238.692C84.0162 238.981 83.4375 239.126 82.7749 239.126C82.0935 239.126 81.4775 238.958 80.9269 238.622C80.3762 238.286 79.9422 237.815 79.6249 237.208C79.3075 236.601 79.1489 235.911 79.1489 235.136ZM85.6449 235.15C85.6449 234.571 85.5282 234.067 85.2949 233.638C85.0615 233.209 84.7442 232.882 84.3429 232.658C83.9509 232.425 83.5169 232.308 83.0409 232.308C82.5649 232.308 82.1309 232.42 81.7389 232.644C81.3469 232.868 81.0342 233.195 80.8009 233.624C80.5675 234.053 80.4509 234.557 80.4509 235.136C80.4509 235.724 80.5675 236.237 80.8009 236.676C81.0342 237.105 81.3469 237.437 81.7389 237.67C82.1309 237.894 82.5649 238.006 83.0409 238.006C83.5169 238.006 83.9509 237.894 84.3429 237.67C84.7442 237.437 85.0615 237.105 85.2949 236.676C85.5282 236.237 85.6449 235.729 85.6449 235.15ZM92.8238 231.188C93.7571 231.188 94.5131 231.473 95.0918 232.042C95.6705 232.602 95.9598 233.414 95.9598 234.478V239H94.6998V234.66C94.6998 233.895 94.5085 233.311 94.1258 232.91C93.7431 232.499 93.2205 232.294 92.5578 232.294C91.8858 232.294 91.3491 232.504 90.9478 232.924C90.5558 233.344 90.3598 233.955 90.3598 234.758V239H89.0858V231.328H90.3598V232.42C90.6118 232.028 90.9525 231.725 91.3818 231.51C91.8205 231.295 92.3011 231.188 92.8238 231.188ZM99.5949 232.378V236.9C99.5949 237.273 99.6742 237.539 99.8329 237.698C99.9916 237.847 100.267 237.922 100.659 237.922H101.597V239H100.449C99.7396 239 99.2076 238.837 98.8529 238.51C98.4982 238.183 98.3209 237.647 98.3209 236.9V232.378H97.3269V231.328H98.3209V229.396H99.5949V231.328H101.597V232.378H99.5949ZM111.787 229.242V236.452C111.787 237.255 111.54 237.899 111.045 238.384C110.55 238.86 109.897 239.098 109.085 239.098C108.264 239.098 107.606 238.855 107.111 238.37C106.616 237.875 106.369 237.203 106.369 236.354H107.643C107.652 236.83 107.774 237.217 108.007 237.516C108.25 237.815 108.609 237.964 109.085 237.964C109.561 237.964 109.916 237.824 110.149 237.544C110.382 237.255 110.499 236.891 110.499 236.452V229.242H111.787ZM117.643 239.126C116.924 239.126 116.271 238.963 115.683 238.636C115.104 238.309 114.647 237.847 114.311 237.25C113.984 236.643 113.821 235.943 113.821 235.15C113.821 234.366 113.989 233.675 114.325 233.078C114.67 232.471 115.137 232.009 115.725 231.692C116.313 231.365 116.971 231.202 117.699 231.202C118.427 231.202 119.085 231.365 119.673 231.692C120.261 232.009 120.723 232.467 121.059 233.064C121.404 233.661 121.577 234.357 121.577 235.15C121.577 235.943 121.399 236.643 121.045 237.25C120.699 237.847 120.228 238.309 119.631 238.636C119.033 238.963 118.371 239.126 117.643 239.126ZM117.643 238.006C118.1 238.006 118.529 237.899 118.931 237.684C119.332 237.469 119.654 237.147 119.897 236.718C120.149 236.289 120.275 235.766 120.275 235.15C120.275 234.534 120.153 234.011 119.911 233.582C119.668 233.153 119.351 232.835 118.959 232.63C118.567 232.415 118.142 232.308 117.685 232.308C117.218 232.308 116.789 232.415 116.397 232.63C116.014 232.835 115.706 233.153 115.473 233.582C115.239 234.011 115.123 234.534 115.123 235.15C115.123 235.775 115.235 236.303 115.459 236.732C115.692 237.161 116 237.483 116.383 237.698C116.765 237.903 117.185 238.006 117.643 238.006ZM124.526 232.756C124.787 232.299 125.17 231.925 125.674 231.636C126.178 231.347 126.752 231.202 127.396 231.202C128.086 231.202 128.707 231.365 129.258 231.692C129.808 232.019 130.242 232.481 130.56 233.078C130.877 233.666 131.036 234.352 131.036 235.136C131.036 235.911 130.877 236.601 130.56 237.208C130.242 237.815 129.804 238.286 129.244 238.622C128.693 238.958 128.077 239.126 127.396 239.126C126.733 239.126 126.15 238.981 125.646 238.692C125.151 238.403 124.778 238.034 124.526 237.586V239H123.252V228.64H124.526V232.756ZM129.734 235.136C129.734 234.557 129.617 234.053 129.384 233.624C129.15 233.195 128.833 232.868 128.432 232.644C128.04 232.42 127.606 232.308 127.13 232.308C126.663 232.308 126.229 232.425 125.828 232.658C125.436 232.882 125.118 233.213 124.876 233.652C124.642 234.081 124.526 234.581 124.526 235.15C124.526 235.729 124.642 236.237 124.876 236.676C125.118 237.105 125.436 237.437 125.828 237.67C126.229 237.894 126.663 238.006 127.13 238.006C127.606 238.006 128.04 237.894 128.432 237.67C128.833 237.437 129.15 237.105 129.384 236.676C129.617 236.237 129.734 235.724 129.734 235.136ZM136.081 237.978C137.267 237.026 138.195 236.247 138.867 235.64C139.539 235.024 140.104 234.385 140.561 233.722C141.028 233.05 141.261 232.392 141.261 231.748C141.261 231.141 141.112 230.665 140.813 230.32C140.524 229.965 140.053 229.788 139.399 229.788C138.765 229.788 138.27 229.989 137.915 230.39C137.57 230.782 137.383 231.309 137.355 231.972H136.123C136.161 230.927 136.478 230.119 137.075 229.55C137.673 228.981 138.443 228.696 139.385 228.696C140.347 228.696 141.107 228.962 141.667 229.494C142.237 230.026 142.521 230.759 142.521 231.692C142.521 232.467 142.288 233.223 141.821 233.96C141.364 234.688 140.841 235.332 140.253 235.892C139.665 236.443 138.914 237.087 137.999 237.824H142.815V238.888H136.081V237.978Z" fill="black"/>
</svg>
