<svg width="250" height="65" viewBox="0 0 250 65" fill="none" xmlns="http://www.w3.org/2000/svg">
<g filter="url(#filter0_d_23_133)">
<path d="M12 28C12 19.1634 19.1634 12 28 12H222C230.837 12 238 19.1634 238 28V37C238 45.8366 230.837 53 222 53H12V28Z" fill="white"/>
</g>
<path d="M61.04 40C60.8533 40 60.7 39.94 60.58 39.82C60.4733 39.7 60.42 39.56 60.42 39.4V26.66H61.66V39.4C61.66 39.56 61.6 39.7 61.48 39.82C61.36 39.94 61.2133 40 61.04 40ZM56.28 27.14C56.12 27.14 55.98 27.0867 55.86 26.98C55.74 26.8733 55.68 26.7333 55.68 26.56C55.68 26.4 55.74 26.2667 55.86 26.16C55.98 26.0533 56.12 26 56.28 26H65.8C65.96 26 66.1 26.0533 66.22 26.16C66.34 26.2667 66.4 26.4067 66.4 26.58C66.4 26.7533 66.34 26.8933 66.22 27C66.1 27.0933 65.96 27.14 65.8 27.14H56.28ZM73.3103 29.7C74.1503 29.7 74.8303 29.88 75.3503 30.24C75.8703 30.6 76.2503 31.0867 76.4903 31.7C76.7436 32.3133 76.8703 32.9933 76.8703 33.74V39.4C76.8703 39.56 76.8103 39.7 76.6903 39.82C76.5703 39.94 76.4303 40 76.2703 40C76.0836 40 75.937 39.94 75.8303 39.82C75.7236 39.7 75.6703 39.56 75.6703 39.4V33.74C75.6703 33.1933 75.5836 32.7 75.4103 32.26C75.2503 31.82 74.9836 31.4733 74.6103 31.22C74.237 30.9533 73.737 30.82 73.1103 30.82C72.5503 30.82 72.017 30.9533 71.5103 31.22C71.017 31.4733 70.617 31.82 70.3103 32.26C70.0036 32.7 69.8503 33.1933 69.8503 33.74V39.4C69.8503 39.56 69.7903 39.7 69.6703 39.82C69.5503 39.94 69.4103 40 69.2503 40C69.0636 40 68.917 39.94 68.8103 39.82C68.7036 39.7 68.6503 39.56 68.6503 39.4V25.8C68.6503 25.64 68.7036 25.5 68.8103 25.38C68.9303 25.26 69.077 25.2 69.2503 25.2C69.4236 25.2 69.5636 25.26 69.6703 25.38C69.7903 25.5 69.8503 25.64 69.8503 25.8V32.28L69.3903 32.98C69.417 32.5667 69.5436 32.1667 69.7703 31.78C70.0103 31.38 70.317 31.0267 70.6903 30.72C71.0636 30.4 71.477 30.1533 71.9303 29.98C72.3836 29.7933 72.8436 29.7 73.3103 29.7ZM88.3975 29.78C88.5708 29.78 88.7108 29.84 88.8175 29.96C88.9375 30.08 88.9975 30.2267 88.9975 30.4V39.4C88.9975 39.56 88.9375 39.7 88.8175 39.82C88.6975 39.94 88.5575 40 88.3975 40C88.2242 40 88.0775 39.94 87.9575 39.82C87.8508 39.7 87.7975 39.56 87.7975 39.4V37.02L88.1375 36.86C88.1375 37.2333 88.0308 37.6133 87.8175 38C87.6175 38.3867 87.3375 38.7467 86.9775 39.08C86.6175 39.4133 86.1908 39.6867 85.6975 39.9C85.2175 40.1 84.6975 40.2 84.1375 40.2C83.2308 40.2 82.4175 39.9667 81.6975 39.5C80.9908 39.0333 80.4308 38.3933 80.0175 37.58C79.6175 36.7667 79.4175 35.8533 79.4175 34.84C79.4175 33.8 79.6242 32.8867 80.0375 32.1C80.4508 31.3 81.0108 30.6733 81.7175 30.22C82.4242 29.7667 83.2242 29.54 84.1175 29.54C84.6908 29.54 85.2242 29.64 85.7175 29.84C86.2242 30.04 86.6642 30.3133 87.0375 30.66C87.4108 31.0067 87.6975 31.4067 87.8975 31.86C88.1108 32.3 88.2175 32.76 88.2175 33.24L87.7975 32.94V30.4C87.7975 30.2267 87.8508 30.08 87.9575 29.96C88.0775 29.84 88.2242 29.78 88.3975 29.78ZM84.2375 39.08C84.9442 39.08 85.5708 38.9 86.1175 38.54C86.6642 38.1667 87.0908 37.66 87.3975 37.02C87.7175 36.3667 87.8775 35.64 87.8775 34.84C87.8775 34.0533 87.7175 33.3467 87.3975 32.72C87.0908 32.0933 86.6642 31.5933 86.1175 31.22C85.5708 30.8467 84.9442 30.66 84.2375 30.66C83.5442 30.66 82.9175 30.84 82.3575 31.2C81.8108 31.56 81.3775 32.0533 81.0575 32.68C80.7508 33.3067 80.5975 34.0267 80.5975 34.84C80.5975 35.64 80.7508 36.3667 81.0575 37.02C81.3775 37.66 81.8108 38.1667 82.3575 38.54C82.9042 38.9 83.5308 39.08 84.2375 39.08ZM91.4864 29.82H96.1464C96.3064 29.82 96.4397 29.88 96.5464 30C96.6531 30.1067 96.7064 30.24 96.7064 30.4C96.7064 30.5467 96.6531 30.6733 96.5464 30.78C96.4397 30.8867 96.3064 30.94 96.1464 30.94H91.4864C91.3264 30.94 91.1864 30.8867 91.0664 30.78C90.9597 30.66 90.9064 30.5267 90.9064 30.38C90.9064 30.22 90.9597 30.0867 91.0664 29.98C91.1864 29.8733 91.3264 29.82 91.4864 29.82ZM93.5464 27C93.7197 27 93.8597 27.06 93.9664 27.18C94.0864 27.3 94.1464 27.44 94.1464 27.6V37.64C94.1464 38.0133 94.1931 38.2933 94.2864 38.48C94.3931 38.6667 94.5264 38.7933 94.6864 38.86C94.8464 38.9133 95.0064 38.94 95.1664 38.94C95.2731 38.94 95.3664 38.9267 95.4464 38.9C95.5397 38.86 95.6397 38.84 95.7464 38.84C95.8664 38.84 95.9664 38.8867 96.0464 38.98C96.1397 39.0733 96.1864 39.1933 96.1864 39.34C96.1864 39.5267 96.0797 39.6867 95.8664 39.82C95.6531 39.94 95.3997 40 95.1064 40C94.9864 40 94.8064 39.9933 94.5664 39.98C94.3264 39.9533 94.0797 39.88 93.8264 39.76C93.5731 39.6267 93.3597 39.4 93.1864 39.08C93.0264 38.76 92.9464 38.3 92.9464 37.7V27.6C92.9464 27.44 92.9997 27.3 93.1064 27.18C93.2264 27.06 93.3731 27 93.5464 27ZM100.324 27.3C100.324 27.66 100.217 28.0133 100.004 28.36C99.7904 28.6933 99.5304 28.9733 99.2238 29.2C98.9304 29.4133 98.6304 29.52 98.3238 29.52C98.2171 29.52 98.1171 29.4867 98.0238 29.42C97.9304 29.3533 97.8838 29.2333 97.8838 29.06C97.8838 28.8733 97.9438 28.7667 98.0638 28.74C98.1838 28.7133 98.3438 28.6533 98.5438 28.56C98.7571 28.44 98.9238 28.3 99.0438 28.14C99.1638 27.98 99.2238 27.7933 99.2238 27.58C99.2238 27.4067 99.1704 27.2733 99.0638 27.18C98.9704 27.0867 98.8571 27.04 98.7238 27.04C98.6304 27.04 98.5371 27.06 98.4438 27.1C98.3504 27.1267 98.2704 27.1667 98.2038 27.22C98.1238 27.1533 98.0571 27.08 98.0037 27C97.9638 26.9067 97.9438 26.8 97.9438 26.68C97.9704 26.4533 98.0971 26.26 98.3238 26.1C98.5504 25.94 98.8038 25.86 99.0838 25.86C99.4438 25.86 99.7371 26.0067 99.9638 26.3C100.204 26.58 100.324 26.9133 100.324 27.3ZM102.23 38.38C102.124 38.22 102.07 38.0667 102.07 37.92C102.084 37.76 102.17 37.6333 102.33 37.54C102.437 37.4467 102.557 37.4067 102.69 37.42C102.837 37.4333 102.97 37.5 103.09 37.62C103.45 38.0867 103.884 38.4667 104.39 38.76C104.91 39.04 105.524 39.18 106.23 39.18C106.604 39.18 106.97 39.12 107.33 39C107.704 38.8667 108.01 38.6733 108.25 38.42C108.49 38.1533 108.61 37.82 108.61 37.42C108.61 37.0067 108.49 36.6733 108.25 36.42C108.01 36.1667 107.697 35.9667 107.31 35.82C106.937 35.6733 106.537 35.5467 106.11 35.44C105.657 35.32 105.217 35.1867 104.79 35.04C104.364 34.88 103.984 34.6867 103.65 34.46C103.33 34.22 103.07 33.9333 102.87 33.6C102.67 33.2667 102.57 32.86 102.57 32.38C102.57 31.82 102.724 31.3267 103.03 30.9C103.337 30.4733 103.75 30.14 104.27 29.9C104.804 29.66 105.404 29.54 106.07 29.54C106.404 29.54 106.764 29.5867 107.15 29.68C107.537 29.76 107.917 29.9 108.29 30.1C108.664 30.3 108.997 30.5733 109.29 30.92C109.41 31.04 109.47 31.18 109.47 31.34C109.47 31.4867 109.404 31.62 109.27 31.74C109.164 31.82 109.037 31.86 108.89 31.86C108.757 31.86 108.644 31.8067 108.55 31.7C108.23 31.34 107.85 31.0667 107.41 30.88C106.97 30.6933 106.497 30.6 105.99 30.6C105.604 30.6 105.237 30.6667 104.89 30.8C104.557 30.92 104.277 31.1067 104.05 31.36C103.824 31.6133 103.71 31.9467 103.71 32.36C103.737 32.7467 103.87 33.06 104.11 33.3C104.364 33.54 104.69 33.74 105.09 33.9C105.504 34.06 105.964 34.2067 106.47 34.34C106.897 34.4467 107.304 34.5733 107.69 34.72C108.09 34.8667 108.437 35.0533 108.73 35.28C109.037 35.4933 109.277 35.7667 109.45 36.1C109.637 36.4333 109.73 36.8533 109.73 37.36C109.73 37.9467 109.564 38.4533 109.23 38.88C108.91 39.3067 108.477 39.6333 107.93 39.86C107.384 40.0867 106.777 40.2 106.11 40.2C105.39 40.2 104.69 40.06 104.01 39.78C103.344 39.5 102.75 39.0333 102.23 38.38ZM127.174 34.88C127.174 35.8933 126.954 36.8067 126.514 37.62C126.074 38.42 125.474 39.0533 124.714 39.52C123.954 39.9733 123.088 40.2 122.114 40.2C121.168 40.2 120.308 39.9733 119.534 39.52C118.774 39.0533 118.168 38.42 117.714 37.62C117.274 36.8067 117.054 35.8933 117.054 34.88C117.054 33.8533 117.274 32.94 117.714 32.14C118.168 31.34 118.774 30.7067 119.534 30.24C120.308 29.7733 121.168 29.54 122.114 29.54C123.088 29.54 123.954 29.7733 124.714 30.24C125.474 30.7067 126.074 31.34 126.514 32.14C126.954 32.94 127.174 33.8533 127.174 34.88ZM125.974 34.88C125.974 34.0667 125.808 33.3467 125.474 32.72C125.141 32.08 124.681 31.58 124.094 31.22C123.521 30.8467 122.861 30.66 122.114 30.66C121.394 30.66 120.741 30.8467 120.154 31.22C119.568 31.58 119.101 32.08 118.754 32.72C118.421 33.3467 118.254 34.0667 118.254 34.88C118.254 35.6933 118.421 36.4133 118.754 37.04C119.101 37.6667 119.568 38.1667 120.154 38.54C120.741 38.9 121.394 39.08 122.114 39.08C122.861 39.08 123.521 38.9 124.094 38.54C124.681 38.1667 125.141 37.6667 125.474 37.04C125.808 36.4133 125.974 35.6933 125.974 34.88ZM137.365 29.84C137.538 29.84 137.678 29.9 137.785 30.02C137.905 30.14 137.965 30.28 137.965 30.44V36.08C137.965 37.4 137.591 38.4067 136.845 39.1C136.098 39.7933 135.091 40.14 133.825 40.14C132.571 40.14 131.571 39.7933 130.825 39.1C130.091 38.4067 129.725 37.4 129.725 36.08V30.44C129.725 30.28 129.778 30.14 129.885 30.02C130.005 29.9 130.151 29.84 130.325 29.84C130.498 29.84 130.638 29.9 130.745 30.02C130.865 30.14 130.925 30.28 130.925 30.44V36.08C130.925 37.04 131.178 37.7733 131.685 38.28C132.205 38.7733 132.918 39.02 133.825 39.02C134.745 39.02 135.465 38.7733 135.985 38.28C136.505 37.7733 136.765 37.04 136.765 36.08V30.44C136.765 30.28 136.818 30.14 136.925 30.02C137.031 29.9 137.178 29.84 137.365 29.84ZM141.711 40C141.525 40 141.378 39.94 141.271 39.82C141.165 39.7 141.111 39.56 141.111 39.4V30.44C141.111 30.28 141.165 30.14 141.271 30.02C141.391 29.9 141.538 29.84 141.711 29.84C141.885 29.84 142.025 29.9 142.131 30.02C142.251 30.14 142.311 30.28 142.311 30.44V33.44L142.011 33.5C142.051 33.0333 142.165 32.5733 142.351 32.12C142.551 31.6533 142.818 31.2267 143.151 30.84C143.485 30.4533 143.878 30.14 144.331 29.9C144.798 29.66 145.318 29.54 145.891 29.54C146.131 29.54 146.365 29.5933 146.591 29.7C146.818 29.7933 146.931 29.9533 146.931 30.18C146.931 30.38 146.878 30.5333 146.771 30.64C146.665 30.7467 146.538 30.8 146.391 30.8C146.271 30.8 146.138 30.7667 145.991 30.7C145.858 30.6333 145.678 30.6 145.451 30.6C145.078 30.6 144.705 30.7133 144.331 30.94C143.958 31.1533 143.618 31.4467 143.311 31.82C143.005 32.1933 142.758 32.6133 142.571 33.08C142.398 33.5333 142.311 33.9933 142.311 34.46V39.4C142.311 39.56 142.251 39.7 142.131 39.82C142.011 39.94 141.871 40 141.711 40ZM158.535 29.54C159.135 29.54 159.689 29.6467 160.195 29.86C160.702 30.06 161.142 30.3267 161.515 30.66C161.902 30.98 162.202 31.3267 162.415 31.7C162.629 32.06 162.735 32.4067 162.735 32.74L162.395 32.26V30.4C162.395 30.2267 162.449 30.08 162.555 29.96C162.675 29.84 162.822 29.78 162.995 29.78C163.182 29.78 163.329 29.84 163.435 29.96C163.542 30.08 163.595 30.2267 163.595 30.4V39.06C163.595 40.1267 163.375 41.0267 162.935 41.76C162.495 42.4933 161.895 43.0467 161.135 43.42C160.389 43.8067 159.535 44 158.575 44C158.109 44 157.615 43.94 157.095 43.82C156.589 43.7 156.149 43.5467 155.775 43.36C155.415 43.1733 155.215 42.98 155.175 42.78C155.069 42.66 155.015 42.54 155.015 42.42C155.029 42.3133 155.089 42.22 155.195 42.14C155.329 42.0467 155.469 42.0333 155.615 42.1C155.762 42.18 155.982 42.28 156.275 42.4C156.409 42.44 156.589 42.5 156.815 42.58C157.042 42.66 157.309 42.7267 157.615 42.78C157.935 42.8467 158.269 42.88 158.615 42.88C159.815 42.88 160.742 42.5333 161.395 41.84C162.062 41.16 162.395 40.26 162.395 39.14V37.22L162.615 37.28C162.495 37.76 162.295 38.18 162.015 38.54C161.749 38.9 161.429 39.2067 161.055 39.46C160.682 39.7 160.275 39.88 159.835 40C159.409 40.1333 158.982 40.2 158.555 40.2C157.635 40.2 156.809 39.9667 156.075 39.5C155.342 39.0333 154.755 38.4 154.315 37.6C153.889 36.8 153.675 35.8867 153.675 34.86C153.675 33.8467 153.889 32.94 154.315 32.14C154.755 31.3267 155.335 30.6933 156.055 30.24C156.789 29.7733 157.615 29.54 158.535 29.54ZM158.675 30.66C157.942 30.66 157.282 30.8467 156.695 31.22C156.122 31.58 155.669 32.08 155.335 32.72C155.015 33.3467 154.855 34.06 154.855 34.86C154.855 35.66 155.015 36.38 155.335 37.02C155.669 37.66 156.122 38.1667 156.695 38.54C157.282 38.9 157.942 39.08 158.675 39.08C159.409 39.08 160.062 38.9 160.635 38.54C161.209 38.18 161.662 37.6867 161.995 37.06C162.329 36.42 162.495 35.6867 162.495 34.86C162.495 34.0333 162.329 33.3067 161.995 32.68C161.662 32.04 161.209 31.5467 160.635 31.2C160.062 30.84 159.409 30.66 158.675 30.66ZM174.24 29.84C174.413 29.84 174.553 29.9 174.66 30.02C174.78 30.14 174.84 30.28 174.84 30.44V36.08C174.84 37.4 174.466 38.4067 173.72 39.1C172.973 39.7933 171.966 40.14 170.7 40.14C169.446 40.14 168.446 39.7933 167.7 39.1C166.966 38.4067 166.6 37.4 166.6 36.08V30.44C166.6 30.28 166.653 30.14 166.76 30.02C166.88 29.9 167.026 29.84 167.2 29.84C167.373 29.84 167.513 29.9 167.62 30.02C167.74 30.14 167.8 30.28 167.8 30.44V36.08C167.8 37.04 168.053 37.7733 168.56 38.28C169.08 38.7733 169.793 39.02 170.7 39.02C171.62 39.02 172.34 38.7733 172.86 38.28C173.38 37.7733 173.64 37.04 173.64 36.08V30.44C173.64 30.28 173.693 30.14 173.8 30.02C173.906 29.9 174.053 29.84 174.24 29.84ZM185.606 29.6C185.78 29.6 185.92 29.66 186.026 29.78C186.146 29.9 186.206 30.04 186.206 30.2V39.02C186.206 40.1 185.993 41.0067 185.566 41.74C185.14 42.4867 184.566 43.0467 183.846 43.42C183.126 43.8067 182.306 44 181.386 44C180.813 44 180.28 43.9333 179.786 43.8C179.306 43.68 178.913 43.52 178.606 43.32C178.446 43.2267 178.326 43.1133 178.246 42.98C178.166 42.8467 178.16 42.7067 178.226 42.56C178.293 42.3733 178.393 42.2467 178.526 42.18C178.673 42.1267 178.82 42.1333 178.966 42.2C179.193 42.32 179.52 42.4667 179.946 42.64C180.373 42.8133 180.86 42.9 181.406 42.9C182.14 42.9 182.773 42.7467 183.306 42.44C183.853 42.1333 184.273 41.6867 184.566 41.1C184.86 40.5267 185.006 39.84 185.006 39.04V37.6L185.146 38.08C184.946 38.4933 184.66 38.86 184.286 39.18C183.926 39.5 183.506 39.7533 183.026 39.94C182.56 40.1133 182.06 40.2 181.526 40.2C180.726 40.2 180.06 40.04 179.526 39.72C179.006 39.3867 178.62 38.9333 178.366 38.36C178.113 37.7867 177.986 37.1133 177.986 36.34V30.2C177.986 30.04 178.04 29.9 178.146 29.78C178.253 29.66 178.4 29.6 178.586 29.6C178.76 29.6 178.9 29.66 179.006 29.78C179.126 29.9 179.186 30.04 179.186 30.2V36.16C179.186 37.0933 179.386 37.8133 179.786 38.32C180.2 38.8267 180.866 39.08 181.786 39.08C182.36 39.08 182.886 38.9467 183.366 38.68C183.846 38.4 184.24 38.04 184.546 37.6C184.853 37.1467 185.006 36.6667 185.006 36.16V30.2C185.006 30.04 185.06 29.9 185.166 29.78C185.286 29.66 185.433 29.6 185.606 29.6ZM189.633 36.08C189.38 36.08 189.24 35.94 189.213 35.66L188.993 26.82C188.993 26.58 189.04 26.3867 189.133 26.24C189.227 26.08 189.393 26 189.633 26C189.86 26 190.02 26.08 190.113 26.24C190.22 26.3867 190.267 26.58 190.253 26.82L190.033 35.66C190.02 35.94 189.887 36.08 189.633 36.08ZM189.573 40C189.347 40 189.167 39.9333 189.033 39.8C188.913 39.6533 188.853 39.4667 188.853 39.24V38.8C188.853 38.56 188.913 38.3733 189.033 38.24C189.167 38.1067 189.347 38.04 189.573 38.04H189.693C189.933 38.04 190.107 38.1067 190.213 38.24C190.333 38.3733 190.393 38.56 190.393 38.8V39.24C190.393 39.4667 190.333 39.6533 190.213 39.8C190.107 39.9333 189.933 40 189.693 40H189.573Z" fill="black"/>
<defs>
<filter id="filter0_d_23_133" x="0" y="0" width="250" height="65" filterUnits="userSpaceOnUse" color-interpolation-filters="sRGB">
<feFlood flood-opacity="0" result="BackgroundImageFix"/>
<feColorMatrix in="SourceAlpha" type="matrix" values="0 0 0 0 0 0 0 0 0 0 0 0 0 0 0 0 0 0 127 0" result="hardAlpha"/>
<feMorphology radius="2" operator="dilate" in="SourceAlpha" result="effect1_dropShadow_23_133"/>
<feOffset/>
<feGaussianBlur stdDeviation="5"/>
<feComposite in2="hardAlpha" operator="out"/>
<feColorMatrix type="matrix" values="0 0 0 0 0 0 0 0 0 0 0 0 0 0 0 0 0 0 0.1 0"/>
<feBlend mode="normal" in2="BackgroundImageFix" result="effect1_dropShadow_23_133"/>
<feBlend mode="normal" in="SourceGraphic" in2="effect1_dropShadow_23_133" result="shape"/>
</filter>
</defs>
</svg>
