<svg width="443" height="65" viewBox="0 0 443 65" fill="none" xmlns="http://www.w3.org/2000/svg">
<g filter="url(#filter0_d_23_137)">
<path d="M12 28C12 19.1634 19.1634 12 28 12H415C423.837 12 431 19.1634 431 28V37C431 45.8366 423.837 53 415 53H12V28Z" fill="white"/>
</g>
<path d="M80.08 26.96C80.2533 26.96 80.4 27.0133 80.52 27.12C80.6533 27.2133 80.72 27.36 80.72 27.56C80.72 27.6267 80.7067 27.7133 80.68 27.82L76.26 40.62C76.22 40.74 76.1467 40.8333 76.04 40.9C75.9333 40.9667 75.8267 41 75.72 41C75.5867 41 75.4667 40.9733 75.36 40.92C75.2533 40.8533 75.1733 40.7533 75.12 40.62L71.58 31.86L71.74 31.9L68.2 40.62C68.1467 40.7533 68.06 40.8533 67.94 40.92C67.8333 40.9733 67.72 41 67.6 41C67.4933 41 67.3867 40.9667 67.28 40.9C67.1867 40.8333 67.12 40.74 67.08 40.62L62.66 27.82C62.62 27.7133 62.6 27.6333 62.6 27.58C62.6 27.38 62.6733 27.2267 62.82 27.12C62.9667 27.0133 63.1133 26.96 63.26 26.96C63.3933 26.96 63.5133 26.9933 63.62 27.06C63.7267 27.1267 63.8 27.22 63.84 27.34L67.86 39.06L67.64 39.08L71.12 30.4C71.16 30.28 71.2267 30.1867 71.32 30.12C71.4267 30.04 71.5467 30.0067 71.68 30.02C71.8133 30.0067 71.9267 30.04 72.02 30.12C72.1267 30.1867 72.2067 30.28 72.26 30.4L75.7 39.04L75.48 39.12L79.48 27.34C79.52 27.22 79.5933 27.1267 79.7 27.06C79.8067 26.9933 79.9333 26.96 80.08 26.96ZM87.5564 30.7C88.3964 30.7 89.0764 30.88 89.5964 31.24C90.1164 31.6 90.4964 32.0867 90.7364 32.7C90.9897 33.3133 91.1164 33.9933 91.1164 34.74V40.4C91.1164 40.56 91.0564 40.7 90.9364 40.82C90.8164 40.94 90.6764 41 90.5164 41C90.3297 41 90.1831 40.94 90.0764 40.82C89.9697 40.7 89.9164 40.56 89.9164 40.4V34.74C89.9164 34.1933 89.8297 33.7 89.6564 33.26C89.4964 32.82 89.2297 32.4733 88.8564 32.22C88.4831 31.9533 87.9831 31.82 87.3564 31.82C86.7964 31.82 86.2631 31.9533 85.7564 32.22C85.2631 32.4733 84.8631 32.82 84.5564 33.26C84.2497 33.7 84.0964 34.1933 84.0964 34.74V40.4C84.0964 40.56 84.0364 40.7 83.9164 40.82C83.7964 40.94 83.6564 41 83.4964 41C83.3097 41 83.1631 40.94 83.0564 40.82C82.9497 40.7 82.8964 40.56 82.8964 40.4V26.8C82.8964 26.64 82.9497 26.5 83.0564 26.38C83.1764 26.26 83.3231 26.2 83.4964 26.2C83.6697 26.2 83.8097 26.26 83.9164 26.38C84.0364 26.5 84.0964 26.64 84.0964 26.8V33.28L83.6364 33.98C83.6631 33.5667 83.7897 33.1667 84.0164 32.78C84.2564 32.38 84.5631 32.0267 84.9364 31.72C85.3097 31.4 85.7231 31.1533 86.1764 30.98C86.6297 30.7933 87.0897 30.7 87.5564 30.7ZM101.786 30.6C101.959 30.6 102.099 30.66 102.206 30.78C102.326 30.9 102.386 31.04 102.386 31.2V40.02C102.386 41.1 102.173 42.0067 101.746 42.74C101.319 43.4867 100.746 44.0467 100.026 44.42C99.3059 44.8067 98.4859 45 97.5659 45C96.9926 45 96.4593 44.9333 95.9659 44.8C95.4859 44.68 95.0926 44.52 94.7859 44.32C94.6259 44.2267 94.5059 44.1133 94.4259 43.98C94.3459 43.8467 94.3393 43.7067 94.4059 43.56C94.4726 43.3733 94.5726 43.2467 94.7059 43.18C94.8526 43.1267 94.9993 43.1333 95.1459 43.2C95.3726 43.32 95.6993 43.4667 96.1259 43.64C96.5526 43.8133 97.0393 43.9 97.5859 43.9C98.3193 43.9 98.9526 43.7467 99.4859 43.44C100.033 43.1333 100.453 42.6867 100.746 42.1C101.039 41.5267 101.186 40.84 101.186 40.04V38.6L101.326 39.08C101.126 39.4933 100.839 39.86 100.466 40.18C100.106 40.5 99.6859 40.7533 99.2059 40.94C98.7393 41.1133 98.2393 41.2 97.7059 41.2C96.9059 41.2 96.2393 41.04 95.7059 40.72C95.1859 40.3867 94.7993 39.9333 94.5459 39.36C94.2926 38.7867 94.1659 38.1133 94.1659 37.34V31.2C94.1659 31.04 94.2193 30.9 94.3259 30.78C94.4326 30.66 94.5793 30.6 94.7659 30.6C94.9393 30.6 95.0793 30.66 95.1859 30.78C95.3059 30.9 95.3659 31.04 95.3659 31.2V37.16C95.3659 38.0933 95.5659 38.8133 95.9659 39.32C96.3793 39.8267 97.0459 40.08 97.9659 40.08C98.5393 40.08 99.0659 39.9467 99.5459 39.68C100.026 39.4 100.419 39.04 100.726 38.6C101.033 38.1467 101.186 37.6667 101.186 37.16V31.2C101.186 31.04 101.239 30.9 101.346 30.78C101.466 30.66 101.613 30.6 101.786 30.6ZM119.382 26.2C119.555 26.2 119.695 26.26 119.802 26.38C119.922 26.4867 119.982 26.6267 119.982 26.8V40.4C119.982 40.56 119.922 40.7 119.802 40.82C119.682 40.94 119.542 41 119.382 41C119.209 41 119.062 40.94 118.942 40.82C118.835 40.7 118.782 40.56 118.782 40.4V38.02L119.122 37.74C119.122 38.1133 119.022 38.5067 118.822 38.92C118.622 39.32 118.335 39.6933 117.962 40.04C117.602 40.3867 117.175 40.6667 116.682 40.88C116.202 41.0933 115.682 41.2 115.122 41.2C114.229 41.2 113.422 40.9667 112.702 40.5C111.995 40.0333 111.435 39.4 111.022 38.6C110.609 37.8 110.402 36.8867 110.402 35.86C110.402 34.8467 110.609 33.94 111.022 33.14C111.435 32.3267 111.995 31.6933 112.702 31.24C113.409 30.7733 114.209 30.54 115.102 30.54C115.649 30.54 116.169 30.64 116.662 30.84C117.155 31.04 117.589 31.3133 117.962 31.66C118.349 32.0067 118.649 32.4067 118.862 32.86C119.089 33.3 119.202 33.76 119.202 34.24L118.782 33.94V26.8C118.782 26.64 118.835 26.5 118.942 26.38C119.062 26.26 119.209 26.2 119.382 26.2ZM115.222 40.08C115.942 40.08 116.569 39.9 117.102 39.54C117.649 39.1667 118.075 38.6667 118.382 38.04C118.702 37.4 118.862 36.6733 118.862 35.86C118.862 35.06 118.702 34.3467 118.382 33.72C118.075 33.08 117.649 32.58 117.102 32.22C116.555 31.8467 115.929 31.66 115.222 31.66C114.529 31.66 113.902 31.8467 113.342 32.22C112.795 32.58 112.362 33.08 112.042 33.72C111.735 34.3467 111.582 35.06 111.582 35.86C111.582 36.66 111.735 37.38 112.042 38.02C112.362 38.66 112.795 39.1667 113.342 39.54C113.902 39.9 114.529 40.08 115.222 40.08ZM124.291 40.4C124.291 40.56 124.231 40.7 124.111 40.82C123.991 40.94 123.851 41 123.691 41C123.517 41 123.371 40.94 123.251 40.82C123.144 40.7 123.091 40.56 123.091 40.4V31.2C123.091 31.04 123.144 30.9 123.251 30.78C123.371 30.66 123.517 30.6 123.691 30.6C123.864 30.6 124.004 30.66 124.111 30.78C124.231 30.9 124.291 31.04 124.291 31.2V40.4ZM123.691 29.26C123.411 29.26 123.197 29.2 123.051 29.08C122.917 28.9467 122.851 28.76 122.851 28.52V28.32C122.851 28.08 122.924 27.9 123.071 27.78C123.231 27.6467 123.444 27.58 123.711 27.58C123.964 27.58 124.157 27.6467 124.291 27.78C124.437 27.9 124.511 28.08 124.511 28.32V28.52C124.511 28.76 124.437 28.9467 124.291 29.08C124.157 29.2 123.957 29.26 123.691 29.26ZM135.788 26.2C135.961 26.2 136.101 26.26 136.208 26.38C136.328 26.4867 136.388 26.6267 136.388 26.8V40.4C136.388 40.56 136.328 40.7 136.208 40.82C136.088 40.94 135.948 41 135.788 41C135.615 41 135.468 40.94 135.348 40.82C135.241 40.7 135.188 40.56 135.188 40.4V38.02L135.528 37.74C135.528 38.1133 135.428 38.5067 135.228 38.92C135.028 39.32 134.741 39.6933 134.368 40.04C134.008 40.3867 133.581 40.6667 133.088 40.88C132.608 41.0933 132.088 41.2 131.528 41.2C130.635 41.2 129.828 40.9667 129.108 40.5C128.401 40.0333 127.841 39.4 127.428 38.6C127.015 37.8 126.808 36.8867 126.808 35.86C126.808 34.8467 127.015 33.94 127.428 33.14C127.841 32.3267 128.401 31.6933 129.108 31.24C129.815 30.7733 130.615 30.54 131.508 30.54C132.055 30.54 132.575 30.64 133.068 30.84C133.561 31.04 133.995 31.3133 134.368 31.66C134.755 32.0067 135.055 32.4067 135.268 32.86C135.495 33.3 135.608 33.76 135.608 34.24L135.188 33.94V26.8C135.188 26.64 135.241 26.5 135.348 26.38C135.468 26.26 135.615 26.2 135.788 26.2ZM131.628 40.08C132.348 40.08 132.975 39.9 133.508 39.54C134.055 39.1667 134.481 38.6667 134.788 38.04C135.108 37.4 135.268 36.6733 135.268 35.86C135.268 35.06 135.108 34.3467 134.788 33.72C134.481 33.08 134.055 32.58 133.508 32.22C132.961 31.8467 132.335 31.66 131.628 31.66C130.935 31.66 130.308 31.8467 129.748 32.22C129.201 32.58 128.768 33.08 128.448 33.72C128.141 34.3467 127.988 35.06 127.988 35.86C127.988 36.66 128.141 37.38 128.448 38.02C128.768 38.66 129.201 39.1667 129.748 39.54C130.308 39.9 130.935 40.08 131.628 40.08ZM149.666 30.7C150.506 30.7 151.186 30.88 151.706 31.24C152.226 31.6 152.606 32.0867 152.846 32.7C153.099 33.3133 153.226 33.9933 153.226 34.74V40.4C153.226 40.56 153.166 40.7 153.046 40.82C152.926 40.94 152.786 41 152.626 41C152.439 41 152.292 40.94 152.186 40.82C152.079 40.7 152.026 40.56 152.026 40.4V34.74C152.026 34.1933 151.939 33.7 151.766 33.26C151.606 32.82 151.339 32.4733 150.966 32.22C150.592 31.9533 150.092 31.82 149.466 31.82C148.906 31.82 148.372 31.9533 147.866 32.22C147.372 32.4733 146.972 32.82 146.666 33.26C146.359 33.7 146.206 34.1933 146.206 34.74V40.4C146.206 40.56 146.146 40.7 146.026 40.82C145.906 40.94 145.766 41 145.606 41C145.419 41 145.272 40.94 145.166 40.82C145.059 40.7 145.006 40.56 145.006 40.4V26.8C145.006 26.64 145.059 26.5 145.166 26.38C145.286 26.26 145.432 26.2 145.606 26.2C145.779 26.2 145.919 26.26 146.026 26.38C146.146 26.5 146.206 26.64 146.206 26.8V33.28L145.746 33.98C145.772 33.5667 145.899 33.1667 146.126 32.78C146.366 32.38 146.672 32.0267 147.046 31.72C147.419 31.4 147.832 31.1533 148.286 30.98C148.739 30.7933 149.199 30.7 149.666 30.7ZM160.993 41.2C159.966 41.2 159.06 40.98 158.273 40.54C157.486 40.1 156.873 39.4867 156.433 38.7C155.993 37.9133 155.773 36.9933 155.773 35.94C155.773 34.8067 155.993 33.84 156.433 33.04C156.886 32.24 157.466 31.6267 158.173 31.2C158.893 30.76 159.653 30.54 160.453 30.54C161.04 30.54 161.606 30.6467 162.153 30.86C162.713 31.06 163.206 31.3667 163.633 31.78C164.073 32.18 164.42 32.6733 164.673 33.26C164.94 33.8467 165.086 34.5267 165.113 35.3C165.1 35.46 165.033 35.6 164.913 35.72C164.793 35.8267 164.653 35.88 164.493 35.88H156.473L156.233 34.8H164.113L163.853 35.04V34.64C163.8 34.0133 163.6 33.48 163.253 33.04C162.906 32.6 162.486 32.2667 161.993 32.04C161.5 31.8133 160.986 31.7 160.453 31.7C160.053 31.7 159.64 31.78 159.213 31.94C158.8 32.1 158.42 32.3533 158.073 32.7C157.74 33.0333 157.466 33.4667 157.253 34C157.04 34.52 156.933 35.14 156.933 35.86C156.933 36.6467 157.093 37.36 157.413 38C157.733 38.64 158.193 39.1467 158.793 39.52C159.406 39.8933 160.133 40.08 160.973 40.08C161.44 40.08 161.86 40.0133 162.233 39.88C162.606 39.7467 162.933 39.5733 163.213 39.36C163.493 39.1333 163.726 38.9 163.913 38.66C164.06 38.54 164.206 38.48 164.353 38.48C164.486 38.48 164.6 38.5333 164.693 38.64C164.8 38.7467 164.853 38.8667 164.853 39C164.853 39.16 164.786 39.3 164.653 39.42C164.253 39.9 163.733 40.32 163.093 40.68C162.453 41.0267 161.753 41.2 160.993 41.2ZM177.77 41.2C176.744 41.2 175.837 40.98 175.05 40.54C174.264 40.1 173.65 39.4867 173.21 38.7C172.77 37.9133 172.55 36.9933 172.55 35.94C172.55 34.8067 172.77 33.84 173.21 33.04C173.664 32.24 174.244 31.6267 174.95 31.2C175.67 30.76 176.43 30.54 177.23 30.54C177.817 30.54 178.384 30.6467 178.93 30.86C179.49 31.06 179.984 31.3667 180.41 31.78C180.85 32.18 181.197 32.6733 181.45 33.26C181.717 33.8467 181.864 34.5267 181.89 35.3C181.877 35.46 181.81 35.6 181.69 35.72C181.57 35.8267 181.43 35.88 181.27 35.88H173.25L173.01 34.8H180.89L180.63 35.04V34.64C180.577 34.0133 180.377 33.48 180.03 33.04C179.684 32.6 179.264 32.2667 178.77 32.04C178.277 31.8133 177.764 31.7 177.23 31.7C176.83 31.7 176.417 31.78 175.99 31.94C175.577 32.1 175.197 32.3533 174.85 32.7C174.517 33.0333 174.244 33.4667 174.03 34C173.817 34.52 173.71 35.14 173.71 35.86C173.71 36.6467 173.87 37.36 174.19 38C174.51 38.64 174.97 39.1467 175.57 39.52C176.184 39.8933 176.91 40.08 177.75 40.08C178.217 40.08 178.637 40.0133 179.01 39.88C179.384 39.7467 179.71 39.5733 179.99 39.36C180.27 39.1333 180.504 38.9 180.69 38.66C180.837 38.54 180.984 38.48 181.13 38.48C181.264 38.48 181.377 38.5333 181.47 38.64C181.577 38.7467 181.63 38.8667 181.63 39C181.63 39.16 181.564 39.3 181.43 39.42C181.03 39.9 180.51 40.32 179.87 40.68C179.23 41.0267 178.53 41.2 177.77 41.2ZM184.121 30.56C184.228 30.56 184.335 30.5933 184.441 30.66C184.548 30.7267 184.628 30.8267 184.681 30.96L188.181 39.28L187.921 39.44L191.501 30.96C191.608 30.6933 191.801 30.5667 192.081 30.58C192.215 30.58 192.341 30.6267 192.461 30.72C192.581 30.8 192.641 30.92 192.641 31.08C192.641 31.16 192.628 31.2267 192.601 31.28C192.588 31.32 192.575 31.3667 192.561 31.42L188.641 40.62C188.535 40.86 188.355 40.9867 188.101 41C187.981 41.0133 187.861 40.9867 187.741 40.92C187.635 40.84 187.555 40.74 187.501 40.62L183.561 31.42C183.548 31.3933 183.535 31.3533 183.521 31.3C183.508 31.2467 183.501 31.1933 183.501 31.14C183.501 30.9933 183.555 30.86 183.661 30.74C183.768 30.62 183.921 30.56 184.121 30.56ZM199.47 41.2C198.443 41.2 197.536 40.98 196.75 40.54C195.963 40.1 195.35 39.4867 194.91 38.7C194.47 37.9133 194.25 36.9933 194.25 35.94C194.25 34.8067 194.47 33.84 194.91 33.04C195.363 32.24 195.943 31.6267 196.65 31.2C197.37 30.76 198.13 30.54 198.93 30.54C199.516 30.54 200.083 30.6467 200.63 30.86C201.19 31.06 201.683 31.3667 202.11 31.78C202.55 32.18 202.896 32.6733 203.15 33.26C203.416 33.8467 203.563 34.5267 203.59 35.3C203.576 35.46 203.51 35.6 203.39 35.72C203.27 35.8267 203.13 35.88 202.97 35.88H194.95L194.71 34.8H202.59L202.33 35.04V34.64C202.276 34.0133 202.076 33.48 201.73 33.04C201.383 32.6 200.963 32.2667 200.47 32.04C199.976 31.8133 199.463 31.7 198.93 31.7C198.53 31.7 198.116 31.78 197.69 31.94C197.276 32.1 196.896 32.3533 196.55 32.7C196.216 33.0333 195.943 33.4667 195.73 34C195.516 34.52 195.41 35.14 195.41 35.86C195.41 36.6467 195.57 37.36 195.89 38C196.21 38.64 196.67 39.1467 197.27 39.52C197.883 39.8933 198.61 40.08 199.45 40.08C199.916 40.08 200.336 40.0133 200.71 39.88C201.083 39.7467 201.41 39.5733 201.69 39.36C201.97 39.1333 202.203 38.9 202.39 38.66C202.536 38.54 202.683 38.48 202.83 38.48C202.963 38.48 203.076 38.5333 203.17 38.64C203.276 38.7467 203.33 38.8667 203.33 39C203.33 39.16 203.263 39.3 203.13 39.42C202.73 39.9 202.21 40.32 201.57 40.68C200.93 41.0267 200.23 41.2 199.47 41.2ZM210.978 30.54C211.858 30.54 212.558 30.72 213.078 31.08C213.611 31.4267 213.991 31.9067 214.218 32.52C214.458 33.12 214.578 33.7867 214.578 34.52V40.4C214.578 40.56 214.518 40.7 214.398 40.82C214.278 40.94 214.138 41 213.978 41C213.791 41 213.645 40.94 213.538 40.82C213.431 40.7 213.378 40.56 213.378 40.4V34.58C213.378 34.0467 213.291 33.56 213.118 33.12C212.945 32.68 212.658 32.3267 212.258 32.06C211.871 31.7933 211.358 31.66 210.718 31.66C210.145 31.66 209.598 31.7933 209.078 32.06C208.571 32.3267 208.158 32.68 207.838 33.12C207.518 33.56 207.358 34.0467 207.358 34.58V40.4C207.358 40.56 207.298 40.7 207.178 40.82C207.058 40.94 206.918 41 206.758 41C206.571 41 206.425 40.94 206.318 40.82C206.211 40.7 206.158 40.56 206.158 40.4V31.44C206.158 31.28 206.211 31.14 206.318 31.02C206.438 30.9 206.585 30.84 206.758 30.84C206.931 30.84 207.071 30.9 207.178 31.02C207.298 31.14 207.358 31.28 207.358 31.44V33.12L206.898 33.84C206.925 33.4133 207.058 33.0067 207.298 32.62C207.551 32.22 207.871 31.8667 208.258 31.56C208.645 31.24 209.071 30.9933 209.538 30.82C210.018 30.6333 210.498 30.54 210.978 30.54ZM222.609 39.38C222.503 39.22 222.449 39.0667 222.449 38.92C222.463 38.76 222.549 38.6333 222.709 38.54C222.816 38.4467 222.936 38.4067 223.069 38.42C223.216 38.4333 223.349 38.5 223.469 38.62C223.829 39.0867 224.263 39.4667 224.769 39.76C225.289 40.04 225.903 40.18 226.609 40.18C226.983 40.18 227.349 40.12 227.709 40C228.083 39.8667 228.389 39.6733 228.629 39.42C228.869 39.1533 228.989 38.82 228.989 38.42C228.989 38.0067 228.869 37.6733 228.629 37.42C228.389 37.1667 228.076 36.9667 227.689 36.82C227.316 36.6733 226.916 36.5467 226.489 36.44C226.036 36.32 225.596 36.1867 225.169 36.04C224.743 35.88 224.363 35.6867 224.029 35.46C223.709 35.22 223.449 34.9333 223.249 34.6C223.049 34.2667 222.949 33.86 222.949 33.38C222.949 32.82 223.103 32.3267 223.409 31.9C223.716 31.4733 224.129 31.14 224.649 30.9C225.183 30.66 225.783 30.54 226.449 30.54C226.783 30.54 227.143 30.5867 227.529 30.68C227.916 30.76 228.296 30.9 228.669 31.1C229.043 31.3 229.376 31.5733 229.669 31.92C229.789 32.04 229.849 32.18 229.849 32.34C229.849 32.4867 229.783 32.62 229.649 32.74C229.543 32.82 229.416 32.86 229.269 32.86C229.136 32.86 229.023 32.8067 228.929 32.7C228.609 32.34 228.229 32.0667 227.789 31.88C227.349 31.6933 226.876 31.6 226.369 31.6C225.983 31.6 225.616 31.6667 225.269 31.8C224.936 31.92 224.656 32.1067 224.429 32.36C224.203 32.6133 224.089 32.9467 224.089 33.36C224.116 33.7467 224.249 34.06 224.489 34.3C224.743 34.54 225.069 34.74 225.469 34.9C225.883 35.06 226.343 35.2067 226.849 35.34C227.276 35.4467 227.683 35.5733 228.069 35.72C228.469 35.8667 228.816 36.0533 229.109 36.28C229.416 36.4933 229.656 36.7667 229.829 37.1C230.016 37.4333 230.109 37.8533 230.109 38.36C230.109 38.9467 229.943 39.4533 229.609 39.88C229.289 40.3067 228.856 40.6333 228.309 40.86C227.763 41.0867 227.156 41.2 226.489 41.2C225.769 41.2 225.069 41.06 224.389 40.78C223.723 40.5 223.129 40.0333 222.609 39.38ZM237.184 41.2C236.158 41.2 235.251 40.98 234.464 40.54C233.678 40.1 233.064 39.4867 232.624 38.7C232.184 37.9133 231.964 36.9933 231.964 35.94C231.964 34.8067 232.184 33.84 232.624 33.04C233.078 32.24 233.658 31.6267 234.364 31.2C235.084 30.76 235.844 30.54 236.644 30.54C237.231 30.54 237.798 30.6467 238.344 30.86C238.904 31.06 239.398 31.3667 239.824 31.78C240.264 32.18 240.611 32.6733 240.864 33.26C241.131 33.8467 241.278 34.5267 241.304 35.3C241.291 35.46 241.224 35.6 241.104 35.72C240.984 35.8267 240.844 35.88 240.684 35.88H232.664L232.424 34.8H240.304L240.044 35.04V34.64C239.991 34.0133 239.791 33.48 239.444 33.04C239.098 32.6 238.678 32.2667 238.184 32.04C237.691 31.8133 237.178 31.7 236.644 31.7C236.244 31.7 235.831 31.78 235.404 31.94C234.991 32.1 234.611 32.3533 234.264 32.7C233.931 33.0333 233.658 33.4667 233.444 34C233.231 34.52 233.124 35.14 233.124 35.86C233.124 36.6467 233.284 37.36 233.604 38C233.924 38.64 234.384 39.1467 234.984 39.52C235.598 39.8933 236.324 40.08 237.164 40.08C237.631 40.08 238.051 40.0133 238.424 39.88C238.798 39.7467 239.124 39.5733 239.404 39.36C239.684 39.1333 239.918 38.9 240.104 38.66C240.251 38.54 240.398 38.48 240.544 38.48C240.678 38.48 240.791 38.5333 240.884 38.64C240.991 38.7467 241.044 38.8667 241.044 39C241.044 39.16 240.978 39.3 240.844 39.42C240.444 39.9 239.924 40.32 239.284 40.68C238.644 41.0267 237.944 41.2 237.184 41.2ZM248.693 30.54C249.573 30.54 250.273 30.72 250.793 31.08C251.326 31.4267 251.706 31.9067 251.933 32.52C252.173 33.12 252.293 33.7867 252.293 34.52V40.4C252.293 40.56 252.233 40.7 252.113 40.82C251.993 40.94 251.853 41 251.693 41C251.506 41 251.36 40.94 251.253 40.82C251.146 40.7 251.093 40.56 251.093 40.4V34.58C251.093 34.0467 251.006 33.56 250.833 33.12C250.66 32.68 250.373 32.3267 249.973 32.06C249.586 31.7933 249.073 31.66 248.433 31.66C247.86 31.66 247.313 31.7933 246.793 32.06C246.286 32.3267 245.873 32.68 245.553 33.12C245.233 33.56 245.073 34.0467 245.073 34.58V40.4C245.073 40.56 245.013 40.7 244.893 40.82C244.773 40.94 244.633 41 244.473 41C244.286 41 244.14 40.94 244.033 40.82C243.926 40.7 243.873 40.56 243.873 40.4V31.44C243.873 31.28 243.926 31.14 244.033 31.02C244.153 30.9 244.3 30.84 244.473 30.84C244.646 30.84 244.786 30.9 244.893 31.02C245.013 31.14 245.073 31.28 245.073 31.44V33.12L244.613 33.84C244.64 33.4133 244.773 33.0067 245.013 32.62C245.266 32.22 245.586 31.8667 245.973 31.56C246.36 31.24 246.786 30.9933 247.253 30.82C247.733 30.6333 248.213 30.54 248.693 30.54ZM263.815 26.2C263.989 26.2 264.129 26.26 264.235 26.38C264.355 26.4867 264.415 26.6267 264.415 26.8V40.4C264.415 40.56 264.355 40.7 264.235 40.82C264.115 40.94 263.975 41 263.815 41C263.642 41 263.495 40.94 263.375 40.82C263.269 40.7 263.215 40.56 263.215 40.4V38.02L263.555 37.74C263.555 38.1133 263.455 38.5067 263.255 38.92C263.055 39.32 262.769 39.6933 262.395 40.04C262.035 40.3867 261.609 40.6667 261.115 40.88C260.635 41.0933 260.115 41.2 259.555 41.2C258.662 41.2 257.855 40.9667 257.135 40.5C256.429 40.0333 255.869 39.4 255.455 38.6C255.042 37.8 254.835 36.8867 254.835 35.86C254.835 34.8467 255.042 33.94 255.455 33.14C255.869 32.3267 256.429 31.6933 257.135 31.24C257.842 30.7733 258.642 30.54 259.535 30.54C260.082 30.54 260.602 30.64 261.095 30.84C261.589 31.04 262.022 31.3133 262.395 31.66C262.782 32.0067 263.082 32.4067 263.295 32.86C263.522 33.3 263.635 33.76 263.635 34.24L263.215 33.94V26.8C263.215 26.64 263.269 26.5 263.375 26.38C263.495 26.26 263.642 26.2 263.815 26.2ZM259.655 40.08C260.375 40.08 261.002 39.9 261.535 39.54C262.082 39.1667 262.509 38.6667 262.815 38.04C263.135 37.4 263.295 36.6733 263.295 35.86C263.295 35.06 263.135 34.3467 262.815 33.72C262.509 33.08 262.082 32.58 261.535 32.22C260.989 31.8467 260.362 31.66 259.655 31.66C258.962 31.66 258.335 31.8467 257.775 32.22C257.229 32.58 256.795 33.08 256.475 33.72C256.169 34.3467 256.015 35.06 256.015 35.86C256.015 36.66 256.169 37.38 256.475 38.02C256.795 38.66 257.229 39.1667 257.775 39.54C258.335 39.9 258.962 40.08 259.655 40.08ZM277.693 30.7C278.533 30.7 279.213 30.88 279.733 31.24C280.253 31.6 280.633 32.0867 280.873 32.7C281.126 33.3133 281.253 33.9933 281.253 34.74V40.4C281.253 40.56 281.193 40.7 281.073 40.82C280.953 40.94 280.813 41 280.653 41C280.466 41 280.32 40.94 280.213 40.82C280.106 40.7 280.053 40.56 280.053 40.4V34.74C280.053 34.1933 279.966 33.7 279.793 33.26C279.633 32.82 279.366 32.4733 278.993 32.22C278.62 31.9533 278.12 31.82 277.493 31.82C276.933 31.82 276.4 31.9533 275.893 32.22C275.4 32.4733 275 32.82 274.693 33.26C274.386 33.7 274.233 34.1933 274.233 34.74V40.4C274.233 40.56 274.173 40.7 274.053 40.82C273.933 40.94 273.793 41 273.633 41C273.446 41 273.3 40.94 273.193 40.82C273.086 40.7 273.033 40.56 273.033 40.4V26.8C273.033 26.64 273.086 26.5 273.193 26.38C273.313 26.26 273.46 26.2 273.633 26.2C273.806 26.2 273.946 26.26 274.053 26.38C274.173 26.5 274.233 26.64 274.233 26.8V33.28L273.773 33.98C273.8 33.5667 273.926 33.1667 274.153 32.78C274.393 32.38 274.7 32.0267 275.073 31.72C275.446 31.4 275.86 31.1533 276.313 30.98C276.766 30.7933 277.226 30.7 277.693 30.7ZM285.56 40.4C285.56 40.56 285.5 40.7 285.38 40.82C285.26 40.94 285.12 41 284.96 41C284.787 41 284.64 40.94 284.52 40.82C284.414 40.7 284.36 40.56 284.36 40.4V31.2C284.36 31.04 284.414 30.9 284.52 30.78C284.64 30.66 284.787 30.6 284.96 30.6C285.134 30.6 285.274 30.66 285.38 30.78C285.5 30.9 285.56 31.04 285.56 31.2V40.4ZM284.96 29.26C284.68 29.26 284.467 29.2 284.32 29.08C284.187 28.9467 284.12 28.76 284.12 28.52V28.32C284.12 28.08 284.194 27.9 284.34 27.78C284.5 27.6467 284.714 27.58 284.98 27.58C285.234 27.58 285.427 27.6467 285.56 27.78C285.707 27.9 285.78 28.08 285.78 28.32V28.52C285.78 28.76 285.707 28.9467 285.56 29.08C285.427 29.2 285.227 29.26 284.96 29.26ZM288.098 39.38C287.991 39.22 287.938 39.0667 287.938 38.92C287.951 38.76 288.038 38.6333 288.198 38.54C288.304 38.4467 288.424 38.4067 288.558 38.42C288.704 38.4333 288.838 38.5 288.958 38.62C289.318 39.0867 289.751 39.4667 290.258 39.76C290.778 40.04 291.391 40.18 292.098 40.18C292.471 40.18 292.838 40.12 293.198 40C293.571 39.8667 293.878 39.6733 294.118 39.42C294.358 39.1533 294.478 38.82 294.478 38.42C294.478 38.0067 294.358 37.6733 294.118 37.42C293.878 37.1667 293.564 36.9667 293.178 36.82C292.804 36.6733 292.404 36.5467 291.978 36.44C291.524 36.32 291.084 36.1867 290.658 36.04C290.231 35.88 289.851 35.6867 289.518 35.46C289.198 35.22 288.938 34.9333 288.738 34.6C288.538 34.2667 288.438 33.86 288.438 33.38C288.438 32.82 288.591 32.3267 288.898 31.9C289.204 31.4733 289.618 31.14 290.138 30.9C290.671 30.66 291.271 30.54 291.938 30.54C292.271 30.54 292.631 30.5867 293.018 30.68C293.404 30.76 293.784 30.9 294.158 31.1C294.531 31.3 294.864 31.5733 295.158 31.92C295.278 32.04 295.338 32.18 295.338 32.34C295.338 32.4867 295.271 32.62 295.138 32.74C295.031 32.82 294.904 32.86 294.758 32.86C294.624 32.86 294.511 32.8067 294.418 32.7C294.098 32.34 293.718 32.0667 293.278 31.88C292.838 31.6933 292.364 31.6 291.858 31.6C291.471 31.6 291.104 31.6667 290.758 31.8C290.424 31.92 290.144 32.1067 289.918 32.36C289.691 32.6133 289.578 32.9467 289.578 33.36C289.604 33.7467 289.738 34.06 289.978 34.3C290.231 34.54 290.558 34.74 290.958 34.9C291.371 35.06 291.831 35.2067 292.338 35.34C292.764 35.4467 293.171 35.5733 293.558 35.72C293.958 35.8667 294.304 36.0533 294.598 36.28C294.904 36.4933 295.144 36.7667 295.318 37.1C295.504 37.4333 295.598 37.8533 295.598 38.36C295.598 38.9467 295.431 39.4533 295.098 39.88C294.778 40.3067 294.344 40.6333 293.798 40.86C293.251 41.0867 292.644 41.2 291.978 41.2C291.258 41.2 290.558 41.06 289.878 40.78C289.211 40.5 288.618 40.0333 288.098 39.38ZM304.121 41C303.935 41 303.788 40.94 303.681 40.82C303.575 40.7 303.521 40.56 303.521 40.4V31.44C303.521 31.28 303.575 31.14 303.681 31.02C303.801 30.9 303.948 30.84 304.121 30.84C304.295 30.84 304.435 30.9 304.541 31.02C304.661 31.14 304.721 31.28 304.721 31.44V34.44L304.421 34.5C304.461 34.0333 304.575 33.5733 304.761 33.12C304.961 32.6533 305.228 32.2267 305.561 31.84C305.895 31.4533 306.288 31.14 306.741 30.9C307.208 30.66 307.728 30.54 308.301 30.54C308.541 30.54 308.775 30.5933 309.001 30.7C309.228 30.7933 309.341 30.9533 309.341 31.18C309.341 31.38 309.288 31.5333 309.181 31.64C309.075 31.7467 308.948 31.8 308.801 31.8C308.681 31.8 308.548 31.7667 308.401 31.7C308.268 31.6333 308.088 31.6 307.861 31.6C307.488 31.6 307.115 31.7133 306.741 31.94C306.368 32.1533 306.028 32.4467 305.721 32.82C305.415 33.1933 305.168 33.6133 304.981 34.08C304.808 34.5333 304.721 34.9933 304.721 35.46V40.4C304.721 40.56 304.661 40.7 304.541 40.82C304.421 40.94 304.281 41 304.121 41ZM315.388 41.2C314.361 41.2 313.454 40.98 312.668 40.54C311.881 40.1 311.268 39.4867 310.828 38.7C310.388 37.9133 310.168 36.9933 310.168 35.94C310.168 34.8067 310.388 33.84 310.828 33.04C311.281 32.24 311.861 31.6267 312.568 31.2C313.288 30.76 314.048 30.54 314.848 30.54C315.434 30.54 316.001 30.6467 316.548 30.86C317.108 31.06 317.601 31.3667 318.028 31.78C318.468 32.18 318.814 32.6733 319.068 33.26C319.334 33.8467 319.481 34.5267 319.508 35.3C319.494 35.46 319.428 35.6 319.308 35.72C319.188 35.8267 319.048 35.88 318.888 35.88H310.868L310.628 34.8H318.508L318.248 35.04V34.64C318.194 34.0133 317.994 33.48 317.648 33.04C317.301 32.6 316.881 32.2667 316.388 32.04C315.894 31.8133 315.381 31.7 314.848 31.7C314.448 31.7 314.034 31.78 313.608 31.94C313.194 32.1 312.814 32.3533 312.468 32.7C312.134 33.0333 311.861 33.4667 311.648 34C311.434 34.52 311.328 35.14 311.328 35.86C311.328 36.6467 311.488 37.36 311.808 38C312.128 38.64 312.588 39.1467 313.188 39.52C313.801 39.8933 314.528 40.08 315.368 40.08C315.834 40.08 316.254 40.0133 316.628 39.88C317.001 39.7467 317.328 39.5733 317.608 39.36C317.888 39.1333 318.121 38.9 318.308 38.66C318.454 38.54 318.601 38.48 318.748 38.48C318.881 38.48 318.994 38.5333 319.088 38.64C319.194 38.7467 319.248 38.8667 319.248 39C319.248 39.16 319.181 39.3 319.048 39.42C318.648 39.9 318.128 40.32 317.488 40.68C316.848 41.0267 316.148 41.2 315.388 41.2ZM321.496 39.38C321.389 39.22 321.336 39.0667 321.336 38.92C321.349 38.76 321.436 38.6333 321.596 38.54C321.703 38.4467 321.823 38.4067 321.956 38.42C322.103 38.4333 322.236 38.5 322.356 38.62C322.716 39.0867 323.149 39.4667 323.656 39.76C324.176 40.04 324.789 40.18 325.496 40.18C325.869 40.18 326.236 40.12 326.596 40C326.969 39.8667 327.276 39.6733 327.516 39.42C327.756 39.1533 327.876 38.82 327.876 38.42C327.876 38.0067 327.756 37.6733 327.516 37.42C327.276 37.1667 326.963 36.9667 326.576 36.82C326.203 36.6733 325.803 36.5467 325.376 36.44C324.923 36.32 324.483 36.1867 324.056 36.04C323.629 35.88 323.249 35.6867 322.916 35.46C322.596 35.22 322.336 34.9333 322.136 34.6C321.936 34.2667 321.836 33.86 321.836 33.38C321.836 32.82 321.989 32.3267 322.296 31.9C322.603 31.4733 323.016 31.14 323.536 30.9C324.069 30.66 324.669 30.54 325.336 30.54C325.669 30.54 326.029 30.5867 326.416 30.68C326.803 30.76 327.183 30.9 327.556 31.1C327.929 31.3 328.263 31.5733 328.556 31.92C328.676 32.04 328.736 32.18 328.736 32.34C328.736 32.4867 328.669 32.62 328.536 32.74C328.429 32.82 328.303 32.86 328.156 32.86C328.023 32.86 327.909 32.8067 327.816 32.7C327.496 32.34 327.116 32.0667 326.676 31.88C326.236 31.6933 325.763 31.6 325.256 31.6C324.869 31.6 324.503 31.6667 324.156 31.8C323.823 31.92 323.543 32.1067 323.316 32.36C323.089 32.6133 322.976 32.9467 322.976 33.36C323.003 33.7467 323.136 34.06 323.376 34.3C323.629 34.54 323.956 34.74 324.356 34.9C324.769 35.06 325.229 35.2067 325.736 35.34C326.163 35.4467 326.569 35.5733 326.956 35.72C327.356 35.8667 327.703 36.0533 327.996 36.28C328.303 36.4933 328.543 36.7667 328.716 37.1C328.903 37.4333 328.996 37.8533 328.996 38.36C328.996 38.9467 328.829 39.4533 328.496 39.88C328.176 40.3067 327.743 40.6333 327.196 40.86C326.649 41.0867 326.043 41.2 325.376 41.2C324.656 41.2 323.956 41.06 323.276 40.78C322.609 40.5 322.016 40.0333 321.496 39.38ZM339.091 30.84C339.264 30.84 339.404 30.9 339.511 31.02C339.631 31.14 339.691 31.28 339.691 31.44V37.08C339.691 38.4 339.318 39.4067 338.571 40.1C337.824 40.7933 336.818 41.14 335.551 41.14C334.298 41.14 333.298 40.7933 332.551 40.1C331.818 39.4067 331.451 38.4 331.451 37.08V31.44C331.451 31.28 331.504 31.14 331.611 31.02C331.731 30.9 331.878 30.84 332.051 30.84C332.224 30.84 332.364 30.9 332.471 31.02C332.591 31.14 332.651 31.28 332.651 31.44V37.08C332.651 38.04 332.904 38.7733 333.411 39.28C333.931 39.7733 334.644 40.02 335.551 40.02C336.471 40.02 337.191 39.7733 337.711 39.28C338.231 38.7733 338.491 38.04 338.491 37.08V31.44C338.491 31.28 338.544 31.14 338.651 31.02C338.758 30.9 338.904 30.84 339.091 30.84ZM347.438 30.7C348.264 30.7 348.971 30.92 349.558 31.36C350.144 31.7867 350.544 32.4267 350.758 33.28L350.478 33.36L350.598 33C350.771 32.6 351.058 32.2267 351.458 31.88C351.871 31.52 352.338 31.2333 352.858 31.02C353.378 30.8067 353.904 30.7 354.438 30.7C355.278 30.7 355.951 30.88 356.458 31.24C356.978 31.6 357.351 32.0867 357.578 32.7C357.818 33.3 357.938 33.98 357.938 34.74V40.4C357.938 40.56 357.878 40.7 357.758 40.82C357.651 40.94 357.511 41 357.338 41C357.164 41 357.018 40.94 356.898 40.82C356.791 40.7 356.738 40.56 356.738 40.4V34.8C356.738 34.2533 356.651 33.7533 356.478 33.3C356.304 32.8467 356.031 32.4867 355.658 32.22C355.284 31.9533 354.784 31.82 354.158 31.82C353.611 31.82 353.084 31.9533 352.578 32.22C352.084 32.4867 351.678 32.8467 351.358 33.3C351.051 33.7533 350.898 34.2533 350.898 34.8V40.4C350.898 40.56 350.838 40.7 350.718 40.82C350.611 40.94 350.471 41 350.298 41C350.124 41 349.978 40.94 349.858 40.82C349.751 40.7 349.698 40.56 349.698 40.4V34.74C349.698 34.1933 349.618 33.7 349.458 33.26C349.298 32.82 349.038 32.4733 348.678 32.22C348.318 31.9533 347.831 31.82 347.218 31.82C346.671 31.82 346.151 31.9533 345.658 32.22C345.178 32.4733 344.784 32.82 344.478 33.26C344.184 33.7 344.038 34.1933 344.038 34.74V40.4C344.038 40.56 343.978 40.7 343.858 40.82C343.738 40.94 343.598 41 343.438 41C343.251 41 343.104 40.94 342.998 40.82C342.891 40.7 342.838 40.56 342.838 40.4V31.44C342.838 31.28 342.891 31.14 342.998 31.02C343.118 30.9 343.264 30.84 343.438 30.84C343.611 30.84 343.751 30.9 343.858 31.02C343.978 31.14 344.038 31.28 344.038 31.44V33.3L343.498 34.04C343.538 33.64 343.664 33.24 343.878 32.84C344.104 32.44 344.398 32.08 344.758 31.76C345.118 31.44 345.524 31.1867 345.978 31C346.444 30.8 346.931 30.7 347.438 30.7ZM365.7 41.2C364.673 41.2 363.767 40.98 362.98 40.54C362.193 40.1 361.58 39.4867 361.14 38.7C360.7 37.9133 360.48 36.9933 360.48 35.94C360.48 34.8067 360.7 33.84 361.14 33.04C361.593 32.24 362.173 31.6267 362.88 31.2C363.6 30.76 364.36 30.54 365.16 30.54C365.747 30.54 366.313 30.6467 366.86 30.86C367.42 31.06 367.913 31.3667 368.34 31.78C368.78 32.18 369.127 32.6733 369.38 33.26C369.647 33.8467 369.793 34.5267 369.82 35.3C369.807 35.46 369.74 35.6 369.62 35.72C369.5 35.8267 369.36 35.88 369.2 35.88H361.18L360.94 34.8H368.82L368.56 35.04V34.64C368.507 34.0133 368.307 33.48 367.96 33.04C367.613 32.6 367.193 32.2667 366.7 32.04C366.207 31.8133 365.693 31.7 365.16 31.7C364.76 31.7 364.347 31.78 363.92 31.94C363.507 32.1 363.127 32.3533 362.78 32.7C362.447 33.0333 362.173 33.4667 361.96 34C361.747 34.52 361.64 35.14 361.64 35.86C361.64 36.6467 361.8 37.36 362.12 38C362.44 38.64 362.9 39.1467 363.5 39.52C364.113 39.8933 364.84 40.08 365.68 40.08C366.147 40.08 366.567 40.0133 366.94 39.88C367.313 39.7467 367.64 39.5733 367.92 39.36C368.2 39.1333 368.433 38.9 368.62 38.66C368.767 38.54 368.913 38.48 369.06 38.48C369.193 38.48 369.307 38.5333 369.4 38.64C369.507 38.7467 369.56 38.8667 369.56 39C369.56 39.16 369.493 39.3 369.36 39.42C368.96 39.9 368.44 40.32 367.8 40.68C367.16 41.0267 366.46 41.2 365.7 41.2ZM372.549 41C372.322 41 372.149 40.9267 372.029 40.78C371.909 40.6333 371.849 40.4467 371.849 40.22V39.8C371.849 39.56 371.909 39.3733 372.029 39.24C372.149 39.1067 372.322 39.04 372.549 39.04H372.689C372.915 39.04 373.089 39.1067 373.209 39.24C373.329 39.3733 373.389 39.56 373.389 39.8V40.22C373.389 40.4467 373.329 40.6333 373.209 40.78C373.089 40.9267 372.915 41 372.689 41H372.549ZM376.162 41C375.935 41 375.762 40.9267 375.642 40.78C375.522 40.6333 375.462 40.4467 375.462 40.22V39.8C375.462 39.56 375.522 39.3733 375.642 39.24C375.762 39.1067 375.935 39.04 376.162 39.04H376.302C376.529 39.04 376.702 39.1067 376.822 39.24C376.942 39.3733 377.002 39.56 377.002 39.8V40.22C377.002 40.4467 376.942 40.6333 376.822 40.78C376.702 40.9267 376.529 41 376.302 41H376.162ZM379.775 41C379.548 41 379.375 40.9267 379.255 40.78C379.135 40.6333 379.075 40.4467 379.075 40.22V39.8C379.075 39.56 379.135 39.3733 379.255 39.24C379.375 39.1067 379.548 39.04 379.775 39.04H379.915C380.142 39.04 380.315 39.1067 380.435 39.24C380.555 39.3733 380.615 39.56 380.615 39.8V40.22C380.615 40.4467 380.555 40.6333 380.435 40.78C380.315 40.9267 380.142 41 379.915 41H379.775Z" fill="black"/>
<defs>
<filter id="filter0_d_23_137" x="0" y="0" width="443" height="65" filterUnits="userSpaceOnUse" color-interpolation-filters="sRGB">
<feFlood flood-opacity="0" result="BackgroundImageFix"/>
<feColorMatrix in="SourceAlpha" type="matrix" values="0 0 0 0 0 0 0 0 0 0 0 0 0 0 0 0 0 0 127 0" result="hardAlpha"/>
<feMorphology radius="2" operator="dilate" in="SourceAlpha" result="effect1_dropShadow_23_137"/>
<feOffset/>
<feGaussianBlur stdDeviation="5"/>
<feComposite in2="hardAlpha" operator="out"/>
<feColorMatrix type="matrix" values="0 0 0 0 0 0 0 0 0 0 0 0 0 0 0 0 0 0 0.1 0"/>
<feBlend mode="normal" in2="BackgroundImageFix" result="effect1_dropShadow_23_137"/>
<feBlend mode="normal" in="SourceGraphic" in2="effect1_dropShadow_23_137" result="shape"/>
</filter>
</defs>
</svg>
