<?xml version="1.0" standalone="no"?>
<!DOCTYPE svg PUBLIC "-//W3C//DTD SVG 20010904//EN"
 "http://www.w3.org/TR/2001/REC-SVG-20010904/DTD/svg10.dtd">
<svg version="1.0" xmlns="http://www.w3.org/2000/svg"
 width="110.000000pt" height="108.000000pt" viewBox="0 0 110.000000 108.000000"
 preserveAspectRatio="xMidYMid meet">

<g transform="translate(0.000000,108.000000) scale(0.100000,-0.100000)"
fill="#000000" stroke="none">
<path d="M267 996 c-85 -31 -153 -101 -177 -181 -8 -28 -10 -120 -8 -295 3
-223 5 -260 21 -292 25 -49 79 -103 130 -131 40 -21 55 -22 295 -25 285 -4
318 2 390 64 22 19 53 60 69 92 l28 57 0 260 c0 251 -1 262 -23 302 -33 63
-74 106 -129 133 -47 24 -54 25 -303 27 -197 2 -264 0 -293 -11z m309 -212
c35 -45 44 -126 20 -172 -9 -18 -18 -32 -20 -32 -2 0 -3 27 -2 61 1 60 0 62
-41 99 -55 49 -58 80 -7 80 15 0 33 -13 50 -36z m112 -31 c10 -32 11 -50 2
-84 -11 -41 -66 -109 -89 -109 -17 0 -13 15 9 35 33 30 43 87 24 134 -19 49
-13 74 18 69 17 -2 26 -14 36 -45z m-232 8 c49 -22 80 -60 95 -114 14 -52 -4
-74 -20 -24 -16 49 -52 78 -103 84 -50 6 -72 27 -57 54 12 24 33 24 85 0z
m322 -81 c5 -65 -61 -137 -136 -147 -48 -6 -59 12 -13 22 47 10 91 69 91 123
0 35 8 44 35 40 15 -2 21 -12 23 -38z m-342 0 c33 -13 96 -78 88 -91 -3 -5
-19 2 -36 16 -43 36 -74 41 -131 21 -44 -16 -51 -16 -65 -3 -44 45 63 87 144
57z m45 -91 c33 -17 21 -24 -42 -24 -60 0 -62 -1 -100 -45 -32 -37 -42 -43
-56 -34 -9 6 -18 15 -20 21 -6 18 57 82 91 93 34 10 98 5 127 -11z m344 0 c23
-36 -43 -101 -115 -114 -35 -6 -120 18 -120 34 0 4 25 6 56 3 55 -5 55 -4 97
41 41 45 70 57 82 36z m-335 -47 c0 -4 -16 -14 -35 -21 -43 -15 -70 -52 -82
-111 -7 -39 -12 -45 -33 -45 -23 0 -25 4 -24 42 1 50 36 102 86 126 35 17 88
23 88 9z m10 -29 c0 -4 -10 -17 -21 -29 -29 -31 -36 -101 -15 -142 20 -38 12
-62 -20 -62 -17 0 -27 8 -34 26 -13 33 -13 96 0 130 16 40 90 105 90 77z m19
-49 c-15 -42 6 -98 52 -136 29 -24 38 -39 33 -51 -9 -26 -47 -21 -76 11 -49
50 -60 113 -33 178 17 41 40 38 24 -2z m147 -20 c24 -4 47 -1 74 11 46 21 73
14 68 -17 -7 -48 -106 -64 -168 -27 -39 23 -69 57 -70 77 0 9 11 4 30 -12 17
-14 46 -28 66 -32z m-106 20 c0 -43 64 -94 118 -94 33 0 57 -22 48 -45 -9 -25
-34 -28 -82 -10 -59 22 -104 82 -104 137 0 24 4 37 10 33 6 -3 10 -13 10 -21z"/>
</g>
</svg>
