<svg width="659" height="399" viewBox="0 0 659 399" fill="none" xmlns="http://www.w3.org/2000/svg">
<rect y="104" width="80" height="80" rx="9" fill="white" fill-opacity="0.4"/>
<path d="M19 153.5L32.5 140L44 148L57.5 134.5" stroke="black" stroke-width="2"/>
<path d="M50 134.5L58.5 133.5L58 141" stroke="black" stroke-width="2"/>
<rect x="112" y="104" width="437" height="295" rx="8" fill="white" fill-opacity="0.4"/>
<g filter="url(#filter0_d_13_54)">
<path d="M158.176 209.719L158.328 208.985L158.176 209.719ZM381.615 159.544L381.713 158.8L381.615 159.544ZM496.481 209.719L495.81 209.384L496.481 209.719ZM525 147C525 149.209 526.791 151 529 151C531.209 151 533 149.209 533 147C533 144.791 531.209 143 529 143C526.791 143 525 144.791 525 147ZM158.024 210.454C166.551 212.221 171.663 217.903 174.971 225.581C178.294 233.294 179.753 242.93 180.987 252.432C182.212 261.874 183.217 271.221 185.676 278.148C186.909 281.622 188.533 284.564 190.796 286.62C193.081 288.696 195.972 289.826 199.628 289.746L199.595 288.246C196.302 288.319 193.791 287.314 191.805 285.51C189.798 283.687 188.281 281.003 187.09 277.646C184.699 270.911 183.712 261.775 182.474 252.239C181.244 242.761 179.767 232.922 176.349 224.988C172.916 217.02 167.483 210.883 158.328 208.985L158.024 210.454ZM270.42 178.859C276.734 178.859 282.057 183.118 286.943 189.839C291.818 196.546 296.116 205.509 300.43 214.558C304.727 223.57 309.04 232.669 313.921 239.507C318.789 246.327 324.37 251.111 331.262 251.111V249.611C325.134 249.611 319.944 245.363 315.142 238.636C310.354 231.927 306.099 222.963 301.784 213.912C297.486 204.898 293.128 195.798 288.156 188.957C283.195 182.131 277.481 177.359 270.42 177.359V178.859ZM381.516 160.287C387.933 161.139 392.618 165.502 396.473 171.794C400.333 178.095 403.271 186.183 406.252 194.261C409.217 202.296 412.226 210.328 416.223 216.345C420.234 222.383 425.332 226.525 432.491 226.525V225.025C426.037 225.025 421.34 221.336 417.473 215.515C413.591 209.673 410.64 201.818 407.66 193.742C404.696 185.71 401.706 177.464 397.752 171.011C393.793 164.549 388.78 159.738 381.713 158.8L381.516 160.287ZM432.491 226.525C444.492 226.525 458.211 227.266 470.073 225.619C481.936 223.972 492.228 219.903 497.152 210.055L495.81 209.384C491.229 218.547 481.59 222.506 469.866 224.134C458.141 225.762 444.618 225.025 432.491 225.025V226.525ZM497.152 210.055C508.688 186.978 516.816 171.304 522.058 161.4C524.679 156.448 526.578 152.939 527.822 150.669C528.444 149.534 528.902 148.708 529.204 148.167C529.355 147.897 529.467 147.697 529.542 147.566C529.579 147.5 529.606 147.451 529.625 147.419C529.634 147.403 529.641 147.391 529.645 147.383C529.647 147.379 529.649 147.376 529.65 147.374C529.651 147.373 529.651 147.373 529.651 147.372C529.651 147.372 529.651 147.372 529.651 147.372C529.652 147.372 529.652 147.371 529 147C528.348 146.629 528.348 146.629 528.348 146.629C528.348 146.629 528.348 146.629 528.348 146.629C528.348 146.63 528.347 146.631 528.347 146.632C528.345 146.634 528.343 146.637 528.341 146.641C528.336 146.65 528.329 146.662 528.32 146.679C528.301 146.712 528.273 146.762 528.235 146.829C528.16 146.962 528.047 147.164 527.894 147.436C527.59 147.981 527.13 148.81 526.506 149.948C525.259 152.225 523.356 155.74 520.732 160.698C515.484 170.614 507.351 186.299 495.81 209.384L497.152 210.055ZM270.42 177.359C266.802 177.359 263.443 179.226 260.311 182.314C257.178 185.404 254.199 189.786 251.324 194.986C245.575 205.387 240.147 219.243 234.711 233.049C229.264 246.887 223.809 260.676 217.988 271.046C215.077 276.231 212.098 280.518 209.015 283.519C205.932 286.521 202.809 288.176 199.595 288.246L199.628 289.746C203.365 289.664 206.831 287.74 210.062 284.594C213.293 281.448 216.354 277.02 219.296 271.78C225.177 261.302 230.671 247.407 236.107 233.599C241.555 219.76 246.945 206.008 252.637 195.712C255.482 190.564 258.38 186.326 261.364 183.382C264.35 180.438 267.351 178.859 270.42 178.859V177.359ZM331.262 251.111C334.773 251.111 337.764 249.511 340.337 246.832C342.898 244.165 345.078 240.4 347.01 235.967C350.874 227.106 353.841 215.35 356.816 203.797C359.803 192.201 362.796 180.813 366.709 172.545C368.665 168.412 370.822 165.124 373.27 162.983C375.694 160.863 378.392 159.873 381.516 160.287L381.713 158.8C378.095 158.32 374.977 159.497 372.282 161.854C369.611 164.19 367.348 167.69 365.354 171.903C361.366 180.327 358.34 191.868 355.364 203.423C352.377 215.022 349.44 226.642 345.636 235.368C343.734 239.729 341.639 243.311 339.255 245.793C336.884 248.261 334.261 249.611 331.262 249.611V251.111ZM158.328 208.985C153.426 207.968 147.052 207.974 141.948 208.223C139.387 208.348 137.129 208.536 135.51 208.693C134.701 208.771 134.051 208.841 133.603 208.892C133.379 208.918 133.205 208.938 133.087 208.953C133.028 208.96 132.983 208.965 132.952 208.969C132.937 208.971 132.925 208.973 132.917 208.974C132.913 208.974 132.91 208.975 132.908 208.975C132.907 208.975 132.906 208.975 132.906 208.975C132.906 208.975 132.905 208.975 132.905 208.975C132.905 208.975 132.905 208.975 133 209.719C133.095 210.463 133.095 210.463 133.095 210.463C133.095 210.463 133.095 210.463 133.096 210.463C133.096 210.463 133.097 210.463 133.097 210.463C133.099 210.463 133.102 210.462 133.105 210.462C133.112 210.461 133.123 210.46 133.138 210.458C133.167 210.454 133.21 210.449 133.267 210.442C133.382 210.428 133.552 210.408 133.772 210.383C134.213 210.333 134.855 210.263 135.655 210.186C137.255 210.031 139.489 209.845 142.021 209.721C147.104 209.473 153.318 209.478 158.024 210.454L158.328 208.985Z" fill="black"/>
</g>
<path d="M141.057 370.273H142.318L145.284 377.517H145.386L148.352 370.273H149.614V379H148.625V372.369H148.54L145.812 379H144.858L142.131 372.369H142.045V379H141.057V370.273ZM154.255 379.136C153.664 379.136 153.146 378.996 152.7 378.714C152.257 378.433 151.91 378.04 151.66 377.534C151.413 377.028 151.289 376.437 151.289 375.761C151.289 375.08 151.413 374.484 151.66 373.976C151.91 373.467 152.257 373.072 152.7 372.791C153.146 372.51 153.664 372.369 154.255 372.369C154.846 372.369 155.363 372.51 155.806 372.791C156.252 373.072 156.599 373.467 156.846 373.976C157.096 374.484 157.221 375.08 157.221 375.761C157.221 376.437 157.096 377.028 156.846 377.534C156.599 378.04 156.252 378.433 155.806 378.714C155.363 378.996 154.846 379.136 154.255 379.136ZM154.255 378.233C154.704 378.233 155.074 378.118 155.363 377.888C155.653 377.658 155.868 377.355 156.007 376.98C156.146 376.605 156.216 376.199 156.216 375.761C156.216 375.324 156.146 374.916 156.007 374.538C155.868 374.161 155.653 373.855 155.363 373.622C155.074 373.389 154.704 373.273 154.255 373.273C153.806 373.273 153.437 373.389 153.147 373.622C152.858 373.855 152.643 374.161 152.504 374.538C152.365 374.916 152.295 375.324 152.295 375.761C152.295 376.199 152.365 376.605 152.504 376.98C152.643 377.355 152.858 377.658 153.147 377.888C153.437 378.118 153.806 378.233 154.255 378.233ZM159.762 375.062V379H158.756V372.455H159.728V373.477H159.813C159.967 373.145 160.2 372.878 160.512 372.676C160.825 372.472 161.228 372.369 161.722 372.369C162.165 372.369 162.553 372.46 162.886 372.642C163.218 372.821 163.477 373.094 163.661 373.46C163.846 373.824 163.938 374.284 163.938 374.841V379H162.933V374.909C162.933 374.395 162.799 373.994 162.532 373.707C162.265 373.418 161.898 373.273 161.433 373.273C161.112 373.273 160.825 373.342 160.572 373.482C160.322 373.621 160.124 373.824 159.979 374.091C159.835 374.358 159.762 374.682 159.762 375.062Z" fill="#889096"/>
<path d="M505.057 379V370.273H510.29V371.21H506.114V374.159H509.898V375.097H506.114V379H505.057ZM511.893 379V372.455H512.865V373.443H512.933C513.052 373.119 513.268 372.857 513.581 372.655C513.893 372.453 514.245 372.352 514.637 372.352C514.711 372.352 514.804 372.354 514.914 372.357C515.025 372.359 515.109 372.364 515.166 372.369V373.392C515.132 373.384 515.054 373.371 514.931 373.354C514.812 373.334 514.686 373.324 514.552 373.324C514.234 373.324 513.95 373.391 513.7 373.524C513.453 373.655 513.257 373.837 513.112 374.07C512.97 374.3 512.899 374.562 512.899 374.858V379H511.893ZM516.358 379V372.455H517.364V379H516.358ZM516.869 371.364C516.673 371.364 516.504 371.297 516.362 371.163C516.223 371.03 516.153 370.869 516.153 370.682C516.153 370.494 516.223 370.334 516.362 370.2C516.504 370.067 516.673 370 516.869 370C517.065 370 517.233 370.067 517.372 370.2C517.514 370.334 517.585 370.494 517.585 370.682C517.585 370.869 517.514 371.03 517.372 371.163C517.233 371.297 517.065 371.364 516.869 371.364Z" fill="#889096"/>
<path d="M413.58 371.21V370.273H420.125V371.21H417.381V379H416.324V371.21H413.58ZM422.625 375.062V379H421.62V370.273H422.625V373.477H422.711C422.864 373.139 423.094 372.871 423.401 372.672C423.711 372.47 424.123 372.369 424.637 372.369C425.083 372.369 425.473 372.459 425.809 372.638C426.144 372.814 426.404 373.085 426.588 373.452C426.776 373.815 426.87 374.278 426.87 374.841V379H425.864V374.909C425.864 374.389 425.729 373.987 425.459 373.703C425.192 373.416 424.821 373.273 424.347 373.273C424.017 373.273 423.722 373.342 423.461 373.482C423.202 373.621 422.998 373.824 422.847 374.091C422.699 374.358 422.625 374.682 422.625 375.062ZM432.835 376.324V372.455H433.84V379H432.835V377.892H432.766C432.613 378.224 432.374 378.507 432.05 378.74C431.727 378.97 431.317 379.085 430.823 379.085C430.414 379.085 430.05 378.996 429.732 378.817C429.414 378.635 429.164 378.362 428.982 377.999C428.8 377.632 428.71 377.17 428.71 376.614V372.455H429.715V376.545C429.715 377.023 429.849 377.403 430.116 377.688C430.386 377.972 430.729 378.114 431.147 378.114C431.397 378.114 431.651 378.05 431.91 377.922C432.171 377.794 432.39 377.598 432.566 377.334C432.745 377.07 432.835 376.733 432.835 376.324Z" fill="#889096"/>
<path d="M323.642 379L321.256 370.273H322.33L324.153 377.381H324.239L326.097 370.273H327.29L329.148 377.381H329.233L331.057 370.273H332.131L329.744 379H328.653L326.727 372.045H326.659L324.733 379H323.642ZM335.446 379.136C334.815 379.136 334.271 378.997 333.814 378.719C333.359 378.438 333.009 378.045 332.761 377.543C332.517 377.037 332.395 376.449 332.395 375.778C332.395 375.108 332.517 374.517 332.761 374.006C333.009 373.491 333.352 373.091 333.793 372.804C334.236 372.514 334.753 372.369 335.344 372.369C335.685 372.369 336.021 372.426 336.354 372.54C336.686 372.653 336.989 372.838 337.261 373.094C337.534 373.347 337.751 373.682 337.913 374.099C338.075 374.517 338.156 375.031 338.156 375.642V376.068H333.111V375.199H337.134C337.134 374.83 337.06 374.5 336.912 374.21C336.767 373.92 336.56 373.692 336.29 373.524C336.023 373.357 335.707 373.273 335.344 373.273C334.943 373.273 334.597 373.372 334.304 373.571C334.014 373.767 333.791 374.023 333.635 374.338C333.479 374.653 333.401 374.991 333.401 375.352V375.932C333.401 376.426 333.486 376.845 333.656 377.189C333.83 377.53 334.07 377.79 334.376 377.969C334.683 378.145 335.04 378.233 335.446 378.233C335.71 378.233 335.949 378.196 336.162 378.122C336.378 378.045 336.564 377.932 336.72 377.781C336.876 377.628 336.997 377.437 337.082 377.21L338.054 377.483C337.952 377.812 337.78 378.102 337.538 378.352C337.297 378.599 336.999 378.793 336.643 378.932C336.288 379.068 335.889 379.136 335.446 379.136ZM342.158 379.136C341.612 379.136 341.131 378.999 340.713 378.723C340.295 378.445 339.969 378.053 339.733 377.547C339.497 377.038 339.379 376.438 339.379 375.744C339.379 375.057 339.497 374.46 339.733 373.955C339.969 373.449 340.297 373.058 340.717 372.783C341.138 372.507 341.624 372.369 342.175 372.369C342.601 372.369 342.938 372.44 343.185 372.582C343.435 372.722 343.625 372.881 343.756 373.06C343.889 373.236 343.993 373.381 344.067 373.494H344.152V370.273H345.158V379H344.186V377.994H344.067C343.993 378.114 343.888 378.264 343.751 378.446C343.615 378.625 343.42 378.786 343.168 378.928C342.915 379.067 342.578 379.136 342.158 379.136ZM342.294 378.233C342.697 378.233 343.038 378.128 343.317 377.918C343.595 377.705 343.807 377.411 343.952 377.036C344.097 376.658 344.169 376.222 344.169 375.727C344.169 375.239 344.098 374.811 343.956 374.445C343.814 374.075 343.604 373.788 343.325 373.584C343.047 373.376 342.703 373.273 342.294 373.273C341.868 373.273 341.513 373.382 341.229 373.601C340.947 373.817 340.736 374.111 340.594 374.483C340.455 374.852 340.385 375.267 340.385 375.727C340.385 376.193 340.456 376.616 340.598 376.997C340.743 377.375 340.956 377.676 341.237 377.901C341.521 378.122 341.874 378.233 342.294 378.233Z" fill="#889096"/>
<path d="M233.58 371.21V370.273H240.125V371.21H237.381V379H236.324V371.21H233.58ZM244.854 376.324V372.455H245.86V379H244.854V377.892H244.786C244.632 378.224 244.394 378.507 244.07 378.74C243.746 378.97 243.337 379.085 242.843 379.085C242.434 379.085 242.07 378.996 241.752 378.817C241.434 378.635 241.184 378.362 241.002 377.999C240.82 377.632 240.729 377.17 240.729 376.614V372.455H241.735V376.545C241.735 377.023 241.868 377.403 242.135 377.688C242.405 377.972 242.749 378.114 243.167 378.114C243.417 378.114 243.671 378.05 243.929 377.922C244.191 377.794 244.409 377.598 244.586 377.334C244.765 377.07 244.854 376.733 244.854 376.324ZM250.446 379.136C249.815 379.136 249.271 378.997 248.814 378.719C248.359 378.438 248.009 378.045 247.761 377.543C247.517 377.037 247.395 376.449 247.395 375.778C247.395 375.108 247.517 374.517 247.761 374.006C248.009 373.491 248.352 373.091 248.793 372.804C249.236 372.514 249.753 372.369 250.344 372.369C250.685 372.369 251.021 372.426 251.354 372.54C251.686 372.653 251.989 372.838 252.261 373.094C252.534 373.347 252.751 373.682 252.913 374.099C253.075 374.517 253.156 375.031 253.156 375.642V376.068H248.111V375.199H252.134C252.134 374.83 252.06 374.5 251.912 374.21C251.767 373.92 251.56 373.692 251.29 373.524C251.023 373.357 250.707 373.273 250.344 373.273C249.943 373.273 249.597 373.372 249.304 373.571C249.014 373.767 248.791 374.023 248.635 374.338C248.479 374.653 248.401 374.991 248.401 375.352V375.932C248.401 376.426 248.486 376.845 248.656 377.189C248.83 377.53 249.07 377.79 249.376 377.969C249.683 378.145 250.04 378.233 250.446 378.233C250.71 378.233 250.949 378.196 251.162 378.122C251.378 378.045 251.564 377.932 251.72 377.781C251.876 377.628 251.997 377.437 252.082 377.21L253.054 377.483C252.952 377.812 252.78 378.102 252.538 378.352C252.297 378.599 251.999 378.793 251.643 378.932C251.288 379.068 250.889 379.136 250.446 379.136Z" fill="#889096"/>
<rect x="112" width="437" height="79" rx="8" fill="white" fill-opacity="0.4"/>
<circle cx="160.5" cy="39.5" r="26.5" fill="black"/>
<path d="M154.005 41.1972L153.242 40.4044C152.919 40.0687 152.919 39.5259 153.242 39.1938L159.918 32.2518C160.241 31.9161 160.763 31.9161 161.082 32.2518L167.758 39.1903C168.081 39.5259 168.081 40.0687 167.758 40.4008L166.995 41.1936C166.669 41.5329 166.136 41.5257 165.817 41.1793L161.876 36.8798V47.143C161.876 47.6179 161.508 48 161.051 48H159.952C159.495 48 159.127 47.6179 159.127 47.143V36.8798L155.183 41.1829C154.864 41.5329 154.331 41.54 154.005 41.1972Z" fill="white"/>
<path d="M217.74 35.2C216.727 35.2133 215.847 35.0533 215.1 34.72C214.353 34.3867 213.64 33.8867 212.96 33.22C212.893 33.1667 212.833 33.1 212.78 33.02C212.74 32.94 212.72 32.8467 212.72 32.74C212.72 32.58 212.78 32.4333 212.9 32.3C213.033 32.1667 213.18 32.1 213.34 32.1C213.5 32.1 213.647 32.1667 213.78 32.3C214.3 32.86 214.887 33.2867 215.54 33.58C216.207 33.8733 216.92 34.02 217.68 34.02C218.32 34.02 218.887 33.92 219.38 33.72C219.887 33.52 220.287 33.2333 220.58 32.86C220.873 32.4867 221.02 32.0533 221.02 31.56C221.02 30.9467 220.853 30.4533 220.52 30.08C220.187 29.6933 219.747 29.38 219.2 29.14C218.653 28.8867 218.047 28.66 217.38 28.46C216.833 28.3 216.313 28.12 215.82 27.92C215.327 27.7067 214.887 27.4533 214.5 27.16C214.113 26.8533 213.813 26.48 213.6 26.04C213.387 25.6 213.28 25.0667 213.28 24.44C213.28 23.7333 213.467 23.1067 213.84 22.56C214.213 22.0133 214.74 21.5867 215.42 21.28C216.113 20.96 216.913 20.8 217.82 20.8C218.607 20.8 219.36 20.9333 220.08 21.2C220.813 21.4667 221.393 21.86 221.82 22.38C222.02 22.5933 222.12 22.7867 222.12 22.96C222.12 23.0933 222.053 23.2267 221.92 23.36C221.787 23.4933 221.64 23.56 221.48 23.56C221.347 23.56 221.233 23.5133 221.14 23.42C220.913 23.14 220.627 22.8933 220.28 22.68C219.933 22.4533 219.547 22.28 219.12 22.16C218.707 22.04 218.273 21.98 217.82 21.98C217.193 21.98 216.627 22.08 216.12 22.28C215.627 22.4667 215.233 22.74 214.94 23.1C214.66 23.46 214.52 23.8933 214.52 24.4C214.52 24.96 214.68 25.42 215 25.78C215.32 26.14 215.74 26.44 216.26 26.68C216.78 26.9067 217.333 27.12 217.92 27.32C218.493 27.48 219.04 27.6667 219.56 27.88C220.093 28.08 220.56 28.3333 220.96 28.64C221.373 28.9467 221.693 29.3333 221.92 29.8C222.16 30.2667 222.28 30.8533 222.28 31.56C222.28 32.24 222.087 32.8533 221.7 33.4C221.313 33.9467 220.78 34.38 220.1 34.7C219.433 35.02 218.647 35.1867 217.74 35.2ZM225.53 35C225.357 35 225.21 34.94 225.09 34.82C224.984 34.7 224.93 34.56 224.93 34.4V20.8C224.93 20.64 224.984 20.5 225.09 20.38C225.21 20.26 225.357 20.2 225.53 20.2C225.704 20.2 225.844 20.26 225.95 20.38C226.07 20.5 226.13 20.64 226.13 20.8V34.4C226.13 34.56 226.07 34.7 225.95 34.82C225.844 34.94 225.704 35 225.53 35ZM232.33 24.74C232.477 24.74 232.61 24.8067 232.73 24.94C232.85 25.06 232.91 25.1933 232.91 25.34C232.91 25.5133 232.837 25.6667 232.69 25.8L225.97 31.52L225.91 30.1L231.91 24.94C232.03 24.8067 232.17 24.74 232.33 24.74ZM232.49 35C232.317 35 232.17 34.9267 232.05 34.78L227.49 29.94L228.39 29.12L232.91 33.94C233.03 34.0733 233.09 34.2267 233.09 34.4C233.09 34.5867 233.017 34.7333 232.87 34.84C232.724 34.9467 232.597 35 232.49 35ZM243.134 24.6C243.307 24.6 243.447 24.66 243.554 24.78C243.674 24.9 243.734 25.04 243.734 25.2V34.02C243.734 35.1 243.52 36.0067 243.094 36.74C242.667 37.4867 242.094 38.0467 241.374 38.42C240.654 38.8067 239.834 39 238.914 39C238.34 39 237.807 38.9333 237.314 38.8C236.834 38.68 236.44 38.52 236.134 38.32C235.974 38.2267 235.854 38.1133 235.774 37.98C235.694 37.8467 235.687 37.7067 235.754 37.56C235.82 37.3733 235.92 37.2467 236.054 37.18C236.2 37.1267 236.347 37.1333 236.494 37.2C236.72 37.32 237.047 37.4667 237.474 37.64C237.9 37.8133 238.387 37.9 238.934 37.9C239.667 37.9 240.3 37.7467 240.834 37.44C241.38 37.1333 241.8 36.6867 242.094 36.1C242.387 35.5267 242.534 34.84 242.534 34.04V32.6L242.674 33.08C242.474 33.4933 242.187 33.86 241.814 34.18C241.454 34.5 241.034 34.7533 240.554 34.94C240.087 35.1133 239.587 35.2 239.054 35.2C238.254 35.2 237.587 35.04 237.054 34.72C236.534 34.3867 236.147 33.9333 235.894 33.36C235.64 32.7867 235.514 32.1133 235.514 31.34V25.2C235.514 25.04 235.567 24.9 235.674 24.78C235.78 24.66 235.927 24.6 236.114 24.6C236.287 24.6 236.427 24.66 236.534 24.78C236.654 24.9 236.714 25.04 236.714 25.2V31.16C236.714 32.0933 236.914 32.8133 237.314 33.32C237.727 33.8267 238.394 34.08 239.314 34.08C239.887 34.08 240.414 33.9467 240.894 33.68C241.374 33.4 241.767 33.04 242.074 32.6C242.38 32.1467 242.534 31.6667 242.534 31.16V25.2C242.534 25.04 242.587 24.9 242.694 24.78C242.814 24.66 242.96 24.6 243.134 24.6ZM247.481 35C247.294 35 247.147 34.94 247.041 34.82C246.934 34.7 246.881 34.56 246.881 34.4V25.44C246.881 25.28 246.934 25.14 247.041 25.02C247.161 24.9 247.307 24.84 247.481 24.84C247.654 24.84 247.794 24.9 247.901 25.02C248.021 25.14 248.081 25.28 248.081 25.44V28.44L247.781 28.5C247.821 28.0333 247.934 27.5733 248.121 27.12C248.321 26.6533 248.587 26.2267 248.921 25.84C249.254 25.4533 249.647 25.14 250.101 24.9C250.567 24.66 251.087 24.54 251.661 24.54C251.901 24.54 252.134 24.5933 252.361 24.7C252.587 24.7933 252.701 24.9533 252.701 25.18C252.701 25.38 252.647 25.5333 252.541 25.64C252.434 25.7467 252.307 25.8 252.161 25.8C252.041 25.8 251.907 25.7667 251.761 25.7C251.627 25.6333 251.447 25.6 251.221 25.6C250.847 25.6 250.474 25.7133 250.101 25.94C249.727 26.1533 249.387 26.4467 249.081 26.82C248.774 27.1933 248.527 27.6133 248.341 28.08C248.167 28.5333 248.081 28.9933 248.081 29.46V34.4C248.081 34.56 248.021 34.7 247.901 34.82C247.781 34.94 247.641 35 247.481 35ZM263.647 29.88C263.647 30.8933 263.427 31.8067 262.987 32.62C262.547 33.42 261.947 34.0533 261.187 34.52C260.427 34.9733 259.56 35.2 258.587 35.2C257.64 35.2 256.78 34.9733 256.007 34.52C255.247 34.0533 254.64 33.42 254.187 32.62C253.747 31.8067 253.527 30.8933 253.527 29.88C253.527 28.8533 253.747 27.94 254.187 27.14C254.64 26.34 255.247 25.7067 256.007 25.24C256.78 24.7733 257.64 24.54 258.587 24.54C259.56 24.54 260.427 24.7733 261.187 25.24C261.947 25.7067 262.547 26.34 262.987 27.14C263.427 27.94 263.647 28.8533 263.647 29.88ZM262.447 29.88C262.447 29.0667 262.28 28.3467 261.947 27.72C261.614 27.08 261.154 26.58 260.567 26.22C259.994 25.8467 259.334 25.66 258.587 25.66C257.867 25.66 257.214 25.8467 256.627 26.22C256.04 26.58 255.574 27.08 255.227 27.72C254.894 28.3467 254.727 29.0667 254.727 29.88C254.727 30.6933 254.894 31.4133 255.227 32.04C255.574 32.6667 256.04 33.1667 256.627 33.54C257.214 33.9 257.867 34.08 258.587 34.08C259.334 34.08 259.994 33.9 260.567 33.54C261.154 33.1667 261.614 32.6667 261.947 32.04C262.28 31.4133 262.447 30.6933 262.447 29.88ZM270.697 24.54C271.337 24.54 271.924 24.6133 272.457 24.76C272.991 24.8933 273.417 25.08 273.737 25.32C274.071 25.56 274.237 25.82 274.237 26.1C274.237 26.2333 274.191 26.3667 274.097 26.5C274.004 26.62 273.877 26.68 273.717 26.68C273.557 26.68 273.424 26.64 273.317 26.56C273.224 26.48 273.124 26.3867 273.017 26.28C272.924 26.1733 272.784 26.0733 272.597 25.98C272.424 25.9 272.177 25.8267 271.857 25.76C271.537 25.6933 271.171 25.66 270.757 25.66C270.011 25.66 269.337 25.8467 268.737 26.22C268.137 26.5933 267.664 27.1 267.317 27.74C266.971 28.3667 266.797 29.0733 266.797 29.86C266.797 30.66 266.964 31.38 267.297 32.02C267.631 32.66 268.091 33.1667 268.677 33.54C269.264 33.9 269.951 34.08 270.737 34.08C271.271 34.08 271.684 34.0333 271.977 33.94C272.271 33.8467 272.524 33.74 272.737 33.62C272.991 33.4733 273.171 33.3333 273.277 33.2C273.397 33.0533 273.551 32.98 273.737 32.98C273.911 32.98 274.037 33.0333 274.117 33.14C274.211 33.2333 274.257 33.36 274.257 33.52C274.257 33.7333 274.097 33.9733 273.777 34.24C273.471 34.4933 273.044 34.72 272.497 34.92C271.951 35.1067 271.324 35.2 270.617 35.2C269.617 35.2 268.737 34.9667 267.977 34.5C267.231 34.0333 266.644 33.4 266.217 32.6C265.804 31.7867 265.597 30.8733 265.597 29.86C265.597 28.8867 265.811 28 266.237 27.2C266.664 26.4 267.257 25.76 268.017 25.28C268.791 24.7867 269.684 24.54 270.697 24.54ZM277.269 35C277.095 35 276.949 34.94 276.829 34.82C276.722 34.7 276.669 34.56 276.669 34.4V20.8C276.669 20.64 276.722 20.5 276.829 20.38C276.949 20.26 277.095 20.2 277.269 20.2C277.442 20.2 277.582 20.26 277.689 20.38C277.809 20.5 277.869 20.64 277.869 20.8V34.4C277.869 34.56 277.809 34.7 277.689 34.82C277.582 34.94 277.442 35 277.269 35ZM284.069 24.74C284.215 24.74 284.349 24.8067 284.469 24.94C284.589 25.06 284.649 25.1933 284.649 25.34C284.649 25.5133 284.575 25.6667 284.429 25.8L277.709 31.52L277.649 30.1L283.649 24.94C283.769 24.8067 283.909 24.74 284.069 24.74ZM284.229 35C284.055 35 283.909 34.9267 283.789 34.78L279.229 29.94L280.129 29.12L284.649 33.94C284.769 34.0733 284.829 34.2267 284.829 34.4C284.829 34.5867 284.755 34.7333 284.609 34.84C284.462 34.9467 284.335 35 284.229 35ZM291.423 35.2C290.396 35.2 289.489 34.98 288.703 34.54C287.916 34.1 287.303 33.4867 286.863 32.7C286.423 31.9133 286.203 30.9933 286.203 29.94C286.203 28.8067 286.423 27.84 286.863 27.04C287.316 26.24 287.896 25.6267 288.603 25.2C289.323 24.76 290.083 24.54 290.883 24.54C291.469 24.54 292.036 24.6467 292.583 24.86C293.143 25.06 293.636 25.3667 294.063 25.78C294.503 26.18 294.849 26.6733 295.103 27.26C295.369 27.8467 295.516 28.5267 295.543 29.3C295.529 29.46 295.463 29.6 295.343 29.72C295.223 29.8267 295.083 29.88 294.923 29.88H286.903L286.663 28.8H294.543L294.283 29.04V28.64C294.229 28.0133 294.029 27.48 293.683 27.04C293.336 26.6 292.916 26.2667 292.423 26.04C291.929 25.8133 291.416 25.7 290.883 25.7C290.483 25.7 290.069 25.78 289.643 25.94C289.229 26.1 288.849 26.3533 288.503 26.7C288.169 27.0333 287.896 27.4667 287.683 28C287.469 28.52 287.363 29.14 287.363 29.86C287.363 30.6467 287.523 31.36 287.843 32C288.163 32.64 288.623 33.1467 289.223 33.52C289.836 33.8933 290.563 34.08 291.403 34.08C291.869 34.08 292.289 34.0133 292.663 33.88C293.036 33.7467 293.363 33.5733 293.643 33.36C293.923 33.1333 294.156 32.9 294.343 32.66C294.489 32.54 294.636 32.48 294.783 32.48C294.916 32.48 295.029 32.5333 295.123 32.64C295.229 32.7467 295.283 32.8667 295.283 33C295.283 33.16 295.216 33.3 295.083 33.42C294.683 33.9 294.163 34.32 293.523 34.68C292.883 35.0267 292.183 35.2 291.423 35.2ZM297.451 24.82H302.111C302.271 24.82 302.405 24.88 302.511 25C302.618 25.1067 302.671 25.24 302.671 25.4C302.671 25.5467 302.618 25.6733 302.511 25.78C302.405 25.8867 302.271 25.94 302.111 25.94H297.451C297.291 25.94 297.151 25.8867 297.031 25.78C296.925 25.66 296.871 25.5267 296.871 25.38C296.871 25.22 296.925 25.0867 297.031 24.98C297.151 24.8733 297.291 24.82 297.451 24.82ZM299.511 22C299.685 22 299.825 22.06 299.931 22.18C300.051 22.3 300.111 22.44 300.111 22.6V32.64C300.111 33.0133 300.158 33.2933 300.251 33.48C300.358 33.6667 300.491 33.7933 300.651 33.86C300.811 33.9133 300.971 33.94 301.131 33.94C301.238 33.94 301.331 33.9267 301.411 33.9C301.505 33.86 301.605 33.84 301.711 33.84C301.831 33.84 301.931 33.8867 302.011 33.98C302.105 34.0733 302.151 34.1933 302.151 34.34C302.151 34.5267 302.045 34.6867 301.831 34.82C301.618 34.94 301.365 35 301.071 35C300.951 35 300.771 34.9933 300.531 34.98C300.291 34.9533 300.045 34.88 299.791 34.76C299.538 34.6267 299.325 34.4 299.151 34.08C298.991 33.76 298.911 33.3 298.911 32.7V22.6C298.911 22.44 298.965 22.3 299.071 22.18C299.191 22.06 299.338 22 299.511 22ZM311.257 21H318.597C318.757 21 318.897 21.06 319.017 21.18C319.137 21.2867 319.197 21.4267 319.197 21.6C319.197 21.7733 319.137 21.9133 319.017 22.02C318.897 22.1267 318.757 22.18 318.597 22.18H311.717L311.917 21.84V27.46L311.697 27.2H317.697C317.857 27.2 317.997 27.26 318.117 27.38C318.237 27.5 318.297 27.64 318.297 27.8C318.297 27.9733 318.237 28.1133 318.117 28.22C317.997 28.3267 317.857 28.38 317.697 28.38H311.737L311.917 28.18V33.94L311.817 33.82H318.597C318.757 33.82 318.897 33.88 319.017 34C319.137 34.12 319.197 34.26 319.197 34.42C319.197 34.5933 319.137 34.7333 319.017 34.84C318.897 34.9467 318.757 35 318.597 35H311.257C311.097 35 310.957 34.94 310.837 34.82C310.717 34.7 310.657 34.56 310.657 34.4V21.6C310.657 21.44 310.717 21.3 310.837 21.18C310.957 21.06 311.097 21 311.257 21ZM325.425 20.28C325.625 20.28 325.838 20.3 326.065 20.34C326.305 20.38 326.511 20.4533 326.685 20.56C326.858 20.6533 326.945 20.8 326.945 21C326.945 21.1467 326.891 21.28 326.785 21.4C326.678 21.5067 326.558 21.56 326.425 21.56C326.291 21.56 326.125 21.5267 325.925 21.46C325.725 21.38 325.511 21.34 325.285 21.34C325.005 21.34 324.765 21.4067 324.565 21.54C324.365 21.66 324.211 21.84 324.105 22.08C323.998 22.3067 323.945 22.5867 323.945 22.92V34.4C323.945 34.56 323.885 34.7 323.765 34.82C323.658 34.94 323.518 35 323.345 35C323.171 35 323.025 34.94 322.905 34.82C322.798 34.7 322.745 34.56 322.745 34.4V22.92C322.745 22.0667 322.991 21.4133 323.485 20.96C323.991 20.5067 324.638 20.28 325.425 20.28ZM326.185 24.98C326.345 24.98 326.478 25.0333 326.585 25.14C326.691 25.2467 326.745 25.38 326.745 25.54C326.745 25.7 326.691 25.8333 326.585 25.94C326.478 26.0467 326.345 26.1 326.185 26.1H321.285C321.138 26.1 321.005 26.0467 320.885 25.94C320.778 25.82 320.725 25.6867 320.725 25.54C320.725 25.3667 320.778 25.2333 320.885 25.14C321.005 25.0333 321.138 24.98 321.285 24.98H326.185ZM332.625 20.28C332.825 20.28 333.038 20.3 333.265 20.34C333.505 20.38 333.711 20.4533 333.885 20.56C334.058 20.6533 334.145 20.8 334.145 21C334.145 21.1467 334.091 21.28 333.985 21.4C333.878 21.5067 333.758 21.56 333.625 21.56C333.491 21.56 333.325 21.5267 333.125 21.46C332.925 21.38 332.711 21.34 332.485 21.34C332.205 21.34 331.965 21.4067 331.765 21.54C331.565 21.66 331.411 21.84 331.305 22.08C331.198 22.3067 331.145 22.5867 331.145 22.92V34.4C331.145 34.56 331.085 34.7 330.965 34.82C330.858 34.94 330.718 35 330.545 35C330.371 35 330.225 34.94 330.105 34.82C329.998 34.7 329.945 34.56 329.945 34.4V22.92C329.945 22.0667 330.191 21.4133 330.685 20.96C331.191 20.5067 331.838 20.28 332.625 20.28ZM333.385 24.98C333.545 24.98 333.678 25.0333 333.785 25.14C333.891 25.2467 333.945 25.38 333.945 25.54C333.945 25.7 333.891 25.8333 333.785 25.94C333.678 26.0467 333.545 26.1 333.385 26.1H328.485C328.338 26.1 328.205 26.0467 328.085 25.94C327.978 25.82 327.925 25.6867 327.925 25.54C327.925 25.3667 327.978 25.2333 328.085 25.14C328.205 25.0333 328.338 24.98 328.485 24.98H333.385ZM337.285 34.4C337.285 34.56 337.225 34.7 337.105 34.82C336.985 34.94 336.845 35 336.685 35C336.511 35 336.365 34.94 336.245 34.82C336.138 34.7 336.085 34.56 336.085 34.4V25.2C336.085 25.04 336.138 24.9 336.245 24.78C336.365 24.66 336.511 24.6 336.685 24.6C336.858 24.6 336.998 24.66 337.105 24.78C337.225 24.9 337.285 25.04 337.285 25.2V34.4ZM336.665 23.26C336.385 23.26 336.171 23.2 336.025 23.08C335.891 22.9467 335.825 22.76 335.825 22.52V22.32C335.825 22.08 335.898 21.9 336.045 21.78C336.205 21.6467 336.418 21.58 336.685 21.58C336.938 21.58 337.131 21.6467 337.265 21.78C337.411 21.9 337.485 22.08 337.485 22.32V22.52C337.485 22.76 337.411 22.9467 337.265 23.08C337.131 23.2 336.931 23.26 336.665 23.26ZM344.877 24.54C345.517 24.54 346.104 24.6133 346.637 24.76C347.17 24.8933 347.597 25.08 347.917 25.32C348.25 25.56 348.417 25.82 348.417 26.1C348.417 26.2333 348.37 26.3667 348.277 26.5C348.184 26.62 348.057 26.68 347.897 26.68C347.737 26.68 347.604 26.64 347.497 26.56C347.404 26.48 347.304 26.3867 347.197 26.28C347.104 26.1733 346.964 26.0733 346.777 25.98C346.604 25.9 346.357 25.8267 346.037 25.76C345.717 25.6933 345.35 25.66 344.937 25.66C344.19 25.66 343.517 25.8467 342.917 26.22C342.317 26.5933 341.844 27.1 341.497 27.74C341.15 28.3667 340.977 29.0733 340.977 29.86C340.977 30.66 341.144 31.38 341.477 32.02C341.81 32.66 342.27 33.1667 342.857 33.54C343.444 33.9 344.13 34.08 344.917 34.08C345.45 34.08 345.864 34.0333 346.157 33.94C346.45 33.8467 346.704 33.74 346.917 33.62C347.17 33.4733 347.35 33.3333 347.457 33.2C347.577 33.0533 347.73 32.98 347.917 32.98C348.09 32.98 348.217 33.0333 348.297 33.14C348.39 33.2333 348.437 33.36 348.437 33.52C348.437 33.7333 348.277 33.9733 347.957 34.24C347.65 34.4933 347.224 34.72 346.677 34.92C346.13 35.1067 345.504 35.2 344.797 35.2C343.797 35.2 342.917 34.9667 342.157 34.5C341.41 34.0333 340.824 33.4 340.397 32.6C339.984 31.7867 339.777 30.8733 339.777 29.86C339.777 28.8867 339.99 28 340.417 27.2C340.844 26.4 341.437 25.76 342.197 25.28C342.97 24.7867 343.864 24.54 344.877 24.54ZM351.888 34.4C351.888 34.56 351.828 34.7 351.708 34.82C351.588 34.94 351.448 35 351.288 35C351.115 35 350.968 34.94 350.848 34.82C350.742 34.7 350.688 34.56 350.688 34.4V25.2C350.688 25.04 350.742 24.9 350.848 24.78C350.968 24.66 351.115 24.6 351.288 24.6C351.462 24.6 351.602 24.66 351.708 24.78C351.828 24.9 351.888 25.04 351.888 25.2V34.4ZM351.288 23.26C351.008 23.26 350.795 23.2 350.648 23.08C350.515 22.9467 350.448 22.76 350.448 22.52V22.32C350.448 22.08 350.522 21.9 350.668 21.78C350.828 21.6467 351.042 21.58 351.308 21.58C351.562 21.58 351.755 21.6467 351.888 21.78C352.035 21.9 352.108 22.08 352.108 22.32V22.52C352.108 22.76 352.035 22.9467 351.888 23.08C351.755 23.2 351.555 23.26 351.288 23.26ZM359.626 35.2C358.599 35.2 357.692 34.98 356.906 34.54C356.119 34.1 355.506 33.4867 355.066 32.7C354.626 31.9133 354.406 30.9933 354.406 29.94C354.406 28.8067 354.626 27.84 355.066 27.04C355.519 26.24 356.099 25.6267 356.806 25.2C357.526 24.76 358.286 24.54 359.086 24.54C359.672 24.54 360.239 24.6467 360.786 24.86C361.346 25.06 361.839 25.3667 362.266 25.78C362.706 26.18 363.052 26.6733 363.306 27.26C363.572 27.8467 363.719 28.5267 363.746 29.3C363.732 29.46 363.666 29.6 363.546 29.72C363.426 29.8267 363.286 29.88 363.126 29.88H355.106L354.866 28.8H362.746L362.486 29.04V28.64C362.432 28.0133 362.232 27.48 361.886 27.04C361.539 26.6 361.119 26.2667 360.626 26.04C360.132 25.8133 359.619 25.7 359.086 25.7C358.686 25.7 358.272 25.78 357.846 25.94C357.432 26.1 357.052 26.3533 356.706 26.7C356.372 27.0333 356.099 27.4667 355.886 28C355.672 28.52 355.566 29.14 355.566 29.86C355.566 30.6467 355.726 31.36 356.046 32C356.366 32.64 356.826 33.1467 357.426 33.52C358.039 33.8933 358.766 34.08 359.606 34.08C360.072 34.08 360.492 34.0133 360.866 33.88C361.239 33.7467 361.566 33.5733 361.846 33.36C362.126 33.1333 362.359 32.9 362.546 32.66C362.692 32.54 362.839 32.48 362.986 32.48C363.119 32.48 363.232 32.5333 363.326 32.64C363.432 32.7467 363.486 32.8667 363.486 33C363.486 33.16 363.419 33.3 363.286 33.42C362.886 33.9 362.366 34.32 361.726 34.68C361.086 35.0267 360.386 35.2 359.626 35.2ZM371.134 24.54C372.014 24.54 372.714 24.72 373.234 25.08C373.768 25.4267 374.148 25.9067 374.374 26.52C374.614 27.12 374.734 27.7867 374.734 28.52V34.4C374.734 34.56 374.674 34.7 374.554 34.82C374.434 34.94 374.294 35 374.134 35C373.948 35 373.801 34.94 373.694 34.82C373.588 34.7 373.534 34.56 373.534 34.4V28.58C373.534 28.0467 373.448 27.56 373.274 27.12C373.101 26.68 372.814 26.3267 372.414 26.06C372.028 25.7933 371.514 25.66 370.874 25.66C370.301 25.66 369.754 25.7933 369.234 26.06C368.728 26.3267 368.314 26.68 367.994 27.12C367.674 27.56 367.514 28.0467 367.514 28.58V34.4C367.514 34.56 367.454 34.7 367.334 34.82C367.214 34.94 367.074 35 366.914 35C366.728 35 366.581 34.94 366.474 34.82C366.368 34.7 366.314 34.56 366.314 34.4V25.44C366.314 25.28 366.368 25.14 366.474 25.02C366.594 24.9 366.741 24.84 366.914 24.84C367.088 24.84 367.228 24.9 367.334 25.02C367.454 25.14 367.514 25.28 367.514 25.44V27.12L367.054 27.84C367.081 27.4133 367.214 27.0067 367.454 26.62C367.708 26.22 368.028 25.8667 368.414 25.56C368.801 25.24 369.228 24.9933 369.694 24.82C370.174 24.6333 370.654 24.54 371.134 24.54ZM382.377 24.54C383.017 24.54 383.604 24.6133 384.137 24.76C384.67 24.8933 385.097 25.08 385.417 25.32C385.75 25.56 385.917 25.82 385.917 26.1C385.917 26.2333 385.87 26.3667 385.777 26.5C385.684 26.62 385.557 26.68 385.397 26.68C385.237 26.68 385.104 26.64 384.997 26.56C384.904 26.48 384.804 26.3867 384.697 26.28C384.604 26.1733 384.464 26.0733 384.277 25.98C384.104 25.9 383.857 25.8267 383.537 25.76C383.217 25.6933 382.85 25.66 382.437 25.66C381.69 25.66 381.017 25.8467 380.417 26.22C379.817 26.5933 379.344 27.1 378.997 27.74C378.65 28.3667 378.477 29.0733 378.477 29.86C378.477 30.66 378.644 31.38 378.977 32.02C379.31 32.66 379.77 33.1667 380.357 33.54C380.944 33.9 381.63 34.08 382.417 34.08C382.95 34.08 383.364 34.0333 383.657 33.94C383.95 33.8467 384.204 33.74 384.417 33.62C384.67 33.4733 384.85 33.3333 384.957 33.2C385.077 33.0533 385.23 32.98 385.417 32.98C385.59 32.98 385.717 33.0333 385.797 33.14C385.89 33.2333 385.937 33.36 385.937 33.52C385.937 33.7333 385.777 33.9733 385.457 34.24C385.15 34.4933 384.724 34.72 384.177 34.92C383.63 35.1067 383.004 35.2 382.297 35.2C381.297 35.2 380.417 34.9667 379.657 34.5C378.91 34.0333 378.324 33.4 377.897 32.6C377.484 31.7867 377.277 30.8733 377.277 29.86C377.277 28.8867 377.49 28 377.917 27.2C378.344 26.4 378.937 25.76 379.697 25.28C380.47 24.7867 381.364 24.54 382.377 24.54ZM395.848 24.6C396.022 24.6 396.162 24.66 396.268 24.78C396.388 24.9 396.448 25.04 396.448 25.2V34.02C396.448 35.1 396.235 36.0067 395.808 36.74C395.382 37.4867 394.808 38.0467 394.088 38.42C393.368 38.8067 392.548 39 391.628 39C391.055 39 390.522 38.9333 390.028 38.8C389.548 38.68 389.155 38.52 388.848 38.32C388.688 38.2267 388.568 38.1133 388.488 37.98C388.408 37.8467 388.402 37.7067 388.468 37.56C388.535 37.3733 388.635 37.2467 388.768 37.18C388.915 37.1267 389.062 37.1333 389.208 37.2C389.435 37.32 389.762 37.4667 390.188 37.64C390.615 37.8133 391.102 37.9 391.648 37.9C392.382 37.9 393.015 37.7467 393.548 37.44C394.095 37.1333 394.515 36.6867 394.808 36.1C395.102 35.5267 395.248 34.84 395.248 34.04V32.6L395.388 33.08C395.188 33.4933 394.902 33.86 394.528 34.18C394.168 34.5 393.748 34.7533 393.268 34.94C392.802 35.1133 392.302 35.2 391.768 35.2C390.968 35.2 390.302 35.04 389.768 34.72C389.248 34.3867 388.862 33.9333 388.608 33.36C388.355 32.7867 388.228 32.1133 388.228 31.34V25.2C388.228 25.04 388.282 24.9 388.388 24.78C388.495 24.66 388.642 24.6 388.828 24.6C389.002 24.6 389.142 24.66 389.248 24.78C389.368 24.9 389.428 25.04 389.428 25.2V31.16C389.428 32.0933 389.628 32.8133 390.028 33.32C390.442 33.8267 391.108 34.08 392.028 34.08C392.602 34.08 393.128 33.9467 393.608 33.68C394.088 33.4 394.482 33.04 394.788 32.6C395.095 32.1467 395.248 31.6667 395.248 31.16V25.2C395.248 25.04 395.302 24.9 395.408 24.78C395.528 24.66 395.675 24.6 395.848 24.6Z" fill="black"/>
<path d="M221.696 50.8C221.835 50.8 221.941 50.8427 222.016 50.928C222.101 51.0133 222.144 51.12 222.144 51.248V61.488C222.144 61.648 222.091 61.776 221.984 61.872C221.888 61.9573 221.776 62 221.648 62C221.584 62 221.515 61.9893 221.44 61.968C221.365 61.936 221.307 61.8933 221.264 61.84L214.128 52.224L214.4 52.08V61.568C214.4 61.6853 214.357 61.7867 214.272 61.872C214.187 61.9573 214.08 62 213.952 62C213.813 62 213.701 61.9573 213.616 61.872C213.541 61.7867 213.504 61.6853 213.504 61.568V51.28C213.504 51.12 213.552 51.0027 213.648 50.928C213.744 50.8427 213.851 50.8 213.968 50.8C214.032 50.8 214.101 50.816 214.176 50.848C214.251 50.8693 214.309 50.912 214.352 50.976L221.408 60.48L221.248 60.768V51.248C221.248 51.12 221.291 51.0133 221.376 50.928C221.472 50.8427 221.579 50.8 221.696 50.8ZM232.521 57.904C232.521 58.7147 232.345 59.4453 231.993 60.096C231.641 60.736 231.161 61.2427 230.553 61.616C229.945 61.9787 229.251 62.16 228.473 62.16C227.715 62.16 227.027 61.9787 226.409 61.616C225.801 61.2427 225.315 60.736 224.953 60.096C224.601 59.4453 224.425 58.7147 224.425 57.904C224.425 57.0827 224.601 56.352 224.953 55.712C225.315 55.072 225.801 54.5653 226.409 54.192C227.027 53.8187 227.715 53.632 228.473 53.632C229.251 53.632 229.945 53.8187 230.553 54.192C231.161 54.5653 231.641 55.072 231.993 55.712C232.345 56.352 232.521 57.0827 232.521 57.904ZM231.561 57.904C231.561 57.2533 231.427 56.6773 231.161 56.176C230.894 55.664 230.526 55.264 230.057 54.976C229.598 54.6773 229.07 54.528 228.473 54.528C227.897 54.528 227.374 54.6773 226.905 54.976C226.435 55.264 226.062 55.664 225.785 56.176C225.518 56.6773 225.385 57.2533 225.385 57.904C225.385 58.5547 225.518 59.1307 225.785 59.632C226.062 60.1333 226.435 60.5333 226.905 60.832C227.374 61.12 227.897 61.264 228.473 61.264C229.07 61.264 229.598 61.12 230.057 60.832C230.526 60.5333 230.894 60.1333 231.161 59.632C231.427 59.1307 231.561 58.5547 231.561 57.904ZM242.616 53.76C243.277 53.76 243.843 53.936 244.312 54.288C244.781 54.6293 245.101 55.1413 245.272 55.824L245.048 55.888L245.144 55.6C245.283 55.28 245.512 54.9813 245.832 54.704C246.163 54.416 246.536 54.1867 246.952 54.016C247.368 53.8453 247.789 53.76 248.216 53.76C248.888 53.76 249.427 53.904 249.832 54.192C250.248 54.48 250.547 54.8693 250.728 55.36C250.92 55.84 251.016 56.384 251.016 56.992V61.52C251.016 61.648 250.968 61.76 250.872 61.856C250.787 61.952 250.675 62 250.536 62C250.397 62 250.28 61.952 250.184 61.856C250.099 61.76 250.056 61.648 250.056 61.52V57.04C250.056 56.6027 249.987 56.2027 249.848 55.84C249.709 55.4773 249.491 55.1893 249.192 54.976C248.893 54.7627 248.493 54.656 247.992 54.656C247.555 54.656 247.133 54.7627 246.728 54.976C246.333 55.1893 246.008 55.4773 245.752 55.84C245.507 56.2027 245.384 56.6027 245.384 57.04V61.52C245.384 61.648 245.336 61.76 245.24 61.856C245.155 61.952 245.043 62 244.904 62C244.765 62 244.648 61.952 244.552 61.856C244.467 61.76 244.424 61.648 244.424 61.52V56.992C244.424 56.5547 244.36 56.16 244.232 55.808C244.104 55.456 243.896 55.1787 243.608 54.976C243.32 54.7627 242.931 54.656 242.44 54.656C242.003 54.656 241.587 54.7627 241.192 54.976C240.808 55.1787 240.493 55.456 240.248 55.808C240.013 56.16 239.896 56.5547 239.896 56.992V61.52C239.896 61.648 239.848 61.76 239.752 61.856C239.656 61.952 239.544 62 239.416 62C239.267 62 239.149 61.952 239.064 61.856C238.979 61.76 238.936 61.648 238.936 61.52V54.352C238.936 54.224 238.979 54.112 239.064 54.016C239.16 53.92 239.277 53.872 239.416 53.872C239.555 53.872 239.667 53.92 239.752 54.016C239.848 54.112 239.896 54.224 239.896 54.352V55.84L239.464 56.432C239.496 56.112 239.597 55.792 239.768 55.472C239.949 55.152 240.184 54.864 240.472 54.608C240.76 54.352 241.085 54.1493 241.448 54C241.821 53.84 242.211 53.76 242.616 53.76ZM261.146 57.904C261.146 58.7147 260.97 59.4453 260.618 60.096C260.266 60.736 259.786 61.2427 259.178 61.616C258.57 61.9787 257.876 62.16 257.098 62.16C256.34 62.16 255.652 61.9787 255.034 61.616C254.426 61.2427 253.94 60.736 253.578 60.096C253.226 59.4453 253.05 58.7147 253.05 57.904C253.05 57.0827 253.226 56.352 253.578 55.712C253.94 55.072 254.426 54.5653 255.034 54.192C255.652 53.8187 256.34 53.632 257.098 53.632C257.876 53.632 258.57 53.8187 259.178 54.192C259.786 54.5653 260.266 55.072 260.618 55.712C260.97 56.352 261.146 57.0827 261.146 57.904ZM260.186 57.904C260.186 57.2533 260.052 56.6773 259.786 56.176C259.519 55.664 259.151 55.264 258.682 54.976C258.223 54.6773 257.695 54.528 257.098 54.528C256.522 54.528 255.999 54.6773 255.53 54.976C255.06 55.264 254.687 55.664 254.41 56.176C254.143 56.6773 254.01 57.2533 254.01 57.904C254.01 58.5547 254.143 59.1307 254.41 59.632C254.687 60.1333 255.06 60.5333 255.53 60.832C255.999 61.12 256.522 61.264 257.098 61.264C257.695 61.264 258.223 61.12 258.682 60.832C259.151 60.5333 259.519 60.1333 259.786 59.632C260.052 59.1307 260.186 58.5547 260.186 57.904ZM263.666 62C263.517 62 263.399 61.952 263.314 61.856C263.229 61.76 263.186 61.648 263.186 61.52V54.352C263.186 54.224 263.229 54.112 263.314 54.016C263.41 53.92 263.527 53.872 263.666 53.872C263.805 53.872 263.917 53.92 264.002 54.016C264.098 54.112 264.146 54.224 264.146 54.352V56.752L263.906 56.8C263.938 56.4267 264.029 56.0587 264.178 55.696C264.338 55.3227 264.551 54.9813 264.818 54.672C265.085 54.3627 265.399 54.112 265.762 53.92C266.135 53.728 266.551 53.632 267.01 53.632C267.202 53.632 267.389 53.6747 267.57 53.76C267.751 53.8347 267.842 53.9627 267.842 54.144C267.842 54.304 267.799 54.4267 267.714 54.512C267.629 54.5973 267.527 54.64 267.41 54.64C267.314 54.64 267.207 54.6133 267.09 54.56C266.983 54.5067 266.839 54.48 266.658 54.48C266.359 54.48 266.061 54.5707 265.762 54.752C265.463 54.9227 265.191 55.1573 264.946 55.456C264.701 55.7547 264.503 56.0907 264.354 56.464C264.215 56.8267 264.146 57.1947 264.146 57.568V61.52C264.146 61.648 264.098 61.76 264.002 61.856C263.906 61.952 263.794 62 263.666 62ZM272.679 62.16C271.857 62.16 271.132 61.984 270.503 61.632C269.873 61.28 269.383 60.7893 269.031 60.16C268.679 59.5307 268.503 58.7947 268.503 57.952C268.503 57.0453 268.679 56.272 269.031 55.632C269.393 54.992 269.857 54.5013 270.423 54.16C270.999 53.808 271.607 53.632 272.247 53.632C272.716 53.632 273.169 53.7173 273.607 53.888C274.055 54.048 274.449 54.2933 274.791 54.624C275.143 54.944 275.42 55.3387 275.623 55.808C275.836 56.2773 275.953 56.8213 275.975 57.44C275.964 57.568 275.911 57.68 275.815 57.776C275.719 57.8613 275.607 57.904 275.479 57.904H269.063L268.871 57.04H275.175L274.967 57.232V56.912C274.924 56.4107 274.764 55.984 274.487 55.632C274.209 55.28 273.873 55.0133 273.479 54.832C273.084 54.6507 272.673 54.56 272.247 54.56C271.927 54.56 271.596 54.624 271.255 54.752C270.924 54.88 270.62 55.0827 270.343 55.36C270.076 55.6267 269.857 55.9733 269.687 56.4C269.516 56.816 269.431 57.312 269.431 57.888C269.431 58.5173 269.559 59.088 269.815 59.6C270.071 60.112 270.439 60.5173 270.919 60.816C271.409 61.1147 271.991 61.264 272.663 61.264C273.036 61.264 273.372 61.2107 273.671 61.104C273.969 60.9973 274.231 60.8587 274.455 60.688C274.679 60.5067 274.865 60.32 275.015 60.128C275.132 60.032 275.249 59.984 275.367 59.984C275.473 59.984 275.564 60.0267 275.639 60.112C275.724 60.1973 275.767 60.2933 275.767 60.4C275.767 60.528 275.713 60.64 275.607 60.736C275.287 61.12 274.871 61.456 274.359 61.744C273.847 62.0213 273.287 62.16 272.679 62.16ZM292.117 53.648C292.234 53.648 292.341 53.6907 292.437 53.776C292.543 53.8613 292.597 53.9787 292.597 54.128C292.597 54.16 292.591 54.1973 292.581 54.24C292.57 54.2827 292.559 54.3147 292.549 54.336L290.085 61.696C290.042 61.792 289.973 61.872 289.877 61.936C289.791 61.9893 289.701 62.0107 289.605 62C289.413 61.9893 289.269 61.888 289.173 61.696L286.917 56.384L287.205 56.448L285.205 61.696C285.119 61.888 284.975 61.9893 284.773 62C284.677 62.0107 284.581 61.9893 284.485 61.936C284.389 61.872 284.325 61.792 284.293 61.696L281.765 54.336C281.733 54.2613 281.717 54.192 281.717 54.128C281.717 53.9893 281.759 53.8773 281.845 53.792C281.941 53.696 282.063 53.648 282.213 53.648C282.309 53.648 282.394 53.6747 282.469 53.728C282.554 53.7813 282.613 53.8613 282.645 53.968L284.917 60.784L284.613 60.768L286.677 55.568C286.762 55.3653 286.911 55.264 287.125 55.264C287.231 55.264 287.322 55.2907 287.397 55.344C287.471 55.3973 287.53 55.472 287.573 55.568L289.765 60.784L289.413 60.8L291.669 53.968C291.733 53.7547 291.882 53.648 292.117 53.648ZM301.202 53.824C301.341 53.824 301.453 53.872 301.538 53.968C301.634 54.064 301.682 54.1813 301.682 54.32V61.52C301.682 61.648 301.634 61.76 301.538 61.856C301.442 61.952 301.33 62 301.202 62C301.064 62 300.946 61.952 300.85 61.856C300.765 61.76 300.722 61.648 300.722 61.52V59.616L300.994 59.488C300.994 59.7867 300.909 60.0907 300.738 60.4C300.578 60.7093 300.354 60.9973 300.066 61.264C299.778 61.5307 299.437 61.7493 299.042 61.92C298.658 62.08 298.242 62.16 297.794 62.16C297.069 62.16 296.418 61.9733 295.842 61.6C295.277 61.2267 294.829 60.7147 294.498 60.064C294.178 59.4133 294.018 58.6827 294.018 57.872C294.018 57.04 294.184 56.3093 294.514 55.68C294.845 55.04 295.293 54.5387 295.858 54.176C296.424 53.8133 297.064 53.632 297.778 53.632C298.237 53.632 298.664 53.712 299.058 53.872C299.464 54.032 299.816 54.2507 300.114 54.528C300.413 54.8053 300.642 55.1253 300.802 55.488C300.973 55.84 301.058 56.208 301.058 56.592L300.722 56.352V54.32C300.722 54.1813 300.765 54.064 300.85 53.968C300.946 53.872 301.064 53.824 301.202 53.824ZM297.874 61.264C298.44 61.264 298.941 61.12 299.378 60.832C299.816 60.5333 300.157 60.128 300.402 59.616C300.658 59.0933 300.786 58.512 300.786 57.872C300.786 57.2427 300.658 56.6773 300.402 56.176C300.157 55.6747 299.816 55.2747 299.378 54.976C298.941 54.6773 298.44 54.528 297.874 54.528C297.32 54.528 296.818 54.672 296.37 54.96C295.933 55.248 295.586 55.6427 295.33 56.144C295.085 56.6453 294.962 57.2213 294.962 57.872C294.962 58.512 295.085 59.0933 295.33 59.616C295.586 60.128 295.933 60.5333 296.37 60.832C296.808 61.12 297.309 61.264 297.874 61.264ZM303.738 60.704C303.652 60.576 303.61 60.4533 303.61 60.336C303.62 60.208 303.69 60.1067 303.818 60.032C303.903 59.9573 303.999 59.9253 304.106 59.936C304.223 59.9467 304.33 60 304.426 60.096C304.714 60.4693 305.06 60.7733 305.466 61.008C305.882 61.232 306.372 61.344 306.938 61.344C307.236 61.344 307.53 61.296 307.818 61.2C308.116 61.0933 308.362 60.9387 308.554 60.736C308.746 60.5227 308.842 60.256 308.842 59.936C308.842 59.6053 308.746 59.3387 308.554 59.136C308.362 58.9333 308.111 58.7733 307.802 58.656C307.503 58.5387 307.183 58.4373 306.842 58.352C306.479 58.256 306.127 58.1493 305.786 58.032C305.444 57.904 305.14 57.7493 304.874 57.568C304.618 57.376 304.41 57.1467 304.25 56.88C304.09 56.6133 304.01 56.288 304.01 55.904C304.01 55.456 304.132 55.0613 304.378 54.72C304.623 54.3787 304.954 54.112 305.37 53.92C305.796 53.728 306.276 53.632 306.81 53.632C307.076 53.632 307.364 53.6693 307.674 53.744C307.983 53.808 308.287 53.92 308.586 54.08C308.884 54.24 309.151 54.4587 309.386 54.736C309.482 54.832 309.53 54.944 309.53 55.072C309.53 55.1893 309.476 55.296 309.37 55.392C309.284 55.456 309.183 55.488 309.066 55.488C308.959 55.488 308.868 55.4453 308.794 55.36C308.538 55.072 308.234 54.8533 307.882 54.704C307.53 54.5547 307.151 54.48 306.746 54.48C306.436 54.48 306.143 54.5333 305.866 54.64C305.599 54.736 305.375 54.8853 305.194 55.088C305.012 55.2907 304.922 55.5573 304.922 55.888C304.943 56.1973 305.05 56.448 305.242 56.64C305.444 56.832 305.706 56.992 306.026 57.12C306.356 57.248 306.724 57.3653 307.13 57.472C307.471 57.5573 307.796 57.6587 308.106 57.776C308.426 57.8933 308.703 58.0427 308.938 58.224C309.183 58.3947 309.375 58.6133 309.514 58.88C309.663 59.1467 309.738 59.4827 309.738 59.888C309.738 60.3573 309.604 60.7627 309.338 61.104C309.082 61.4453 308.735 61.7067 308.298 61.888C307.86 62.0693 307.375 62.16 306.842 62.16C306.266 62.16 305.706 62.048 305.162 61.824C304.628 61.6 304.154 61.2267 303.738 60.704ZM311.174 53.856H314.902C315.03 53.856 315.136 53.904 315.222 54C315.307 54.0853 315.35 54.192 315.35 54.32C315.35 54.4373 315.307 54.5387 315.222 54.624C315.136 54.7093 315.03 54.752 314.902 54.752H311.174C311.046 54.752 310.934 54.7093 310.838 54.624C310.752 54.528 310.71 54.4213 310.71 54.304C310.71 54.176 310.752 54.0693 310.838 53.984C310.934 53.8987 311.046 53.856 311.174 53.856ZM312.822 51.6C312.96 51.6 313.072 51.648 313.158 51.744C313.254 51.84 313.302 51.952 313.302 52.08V60.112C313.302 60.4107 313.339 60.6347 313.414 60.784C313.499 60.9333 313.606 61.0347 313.734 61.088C313.862 61.1307 313.99 61.152 314.118 61.152C314.203 61.152 314.278 61.1413 314.342 61.12C314.416 61.088 314.496 61.072 314.582 61.072C314.678 61.072 314.758 61.1093 314.822 61.184C314.896 61.2587 314.934 61.3547 314.934 61.472C314.934 61.6213 314.848 61.7493 314.678 61.856C314.507 61.952 314.304 62 314.07 62C313.974 62 313.83 61.9947 313.638 61.984C313.446 61.9627 313.248 61.904 313.046 61.808C312.843 61.7013 312.672 61.52 312.534 61.264C312.406 61.008 312.342 60.64 312.342 60.16V52.08C312.342 51.952 312.384 51.84 312.47 51.744C312.566 51.648 312.683 51.6 312.822 51.6ZM320.741 62.16C319.92 62.16 319.195 61.984 318.565 61.632C317.936 61.28 317.445 60.7893 317.093 60.16C316.741 59.5307 316.565 58.7947 316.565 57.952C316.565 57.0453 316.741 56.272 317.093 55.632C317.456 54.992 317.92 54.5013 318.485 54.16C319.061 53.808 319.669 53.632 320.309 53.632C320.779 53.632 321.232 53.7173 321.669 53.888C322.117 54.048 322.512 54.2933 322.853 54.624C323.205 54.944 323.483 55.3387 323.685 55.808C323.899 56.2773 324.016 56.8213 324.037 57.44C324.027 57.568 323.973 57.68 323.877 57.776C323.781 57.8613 323.669 57.904 323.541 57.904H317.125L316.933 57.04H323.237L323.029 57.232V56.912C322.987 56.4107 322.827 55.984 322.549 55.632C322.272 55.28 321.936 55.0133 321.541 54.832C321.147 54.6507 320.736 54.56 320.309 54.56C319.989 54.56 319.659 54.624 319.317 54.752C318.987 54.88 318.683 55.0827 318.405 55.36C318.139 55.6267 317.92 55.9733 317.749 56.4C317.579 56.816 317.493 57.312 317.493 57.888C317.493 58.5173 317.621 59.088 317.877 59.6C318.133 60.112 318.501 60.5173 318.981 60.816C319.472 61.1147 320.053 61.264 320.725 61.264C321.099 61.264 321.435 61.2107 321.733 61.104C322.032 60.9973 322.293 60.8587 322.517 60.688C322.741 60.5067 322.928 60.32 323.077 60.128C323.195 60.032 323.312 59.984 323.429 59.984C323.536 59.984 323.627 60.0267 323.701 60.112C323.787 60.1973 323.829 60.2933 323.829 60.4C323.829 60.528 323.776 60.64 323.669 60.736C323.349 61.12 322.933 61.456 322.421 61.744C321.909 62.0213 321.349 62.16 320.741 62.16ZM332.796 50.16C332.935 50.16 333.047 50.208 333.132 50.304C333.228 50.3893 333.276 50.5013 333.276 50.64V61.52C333.276 61.648 333.228 61.76 333.132 61.856C333.036 61.952 332.924 62 332.796 62C332.657 62 332.54 61.952 332.444 61.856C332.359 61.76 332.316 61.648 332.316 61.52V59.616L332.588 59.392C332.588 59.6907 332.508 60.0053 332.348 60.336C332.188 60.656 331.959 60.9547 331.66 61.232C331.372 61.5093 331.031 61.7333 330.636 61.904C330.252 62.0747 329.836 62.16 329.388 62.16C328.673 62.16 328.028 61.9733 327.452 61.6C326.887 61.2267 326.439 60.72 326.108 60.08C325.777 59.44 325.612 58.7093 325.612 57.888C325.612 57.0773 325.777 56.352 326.108 55.712C326.439 55.0613 326.887 54.5547 327.452 54.192C328.017 53.8187 328.657 53.632 329.372 53.632C329.809 53.632 330.225 53.712 330.62 53.872C331.015 54.032 331.361 54.2507 331.66 54.528C331.969 54.8053 332.209 55.1253 332.38 55.488C332.561 55.84 332.652 56.208 332.652 56.592L332.316 56.352V50.64C332.316 50.512 332.359 50.4 332.444 50.304C332.54 50.208 332.657 50.16 332.796 50.16ZM329.468 61.264C330.044 61.264 330.545 61.12 330.972 60.832C331.409 60.5333 331.751 60.1333 331.996 59.632C332.252 59.12 332.38 58.5387 332.38 57.888C332.38 57.248 332.252 56.6773 331.996 56.176C331.751 55.664 331.409 55.264 330.972 54.976C330.535 54.6773 330.033 54.528 329.468 54.528C328.913 54.528 328.412 54.6773 327.964 54.976C327.527 55.264 327.18 55.664 326.924 56.176C326.679 56.6773 326.556 57.248 326.556 57.888C326.556 58.528 326.679 59.104 326.924 59.616C327.18 60.128 327.527 60.5333 327.964 60.832C328.412 61.12 328.913 61.264 329.468 61.264ZM339.642 53.856H343.37C343.498 53.856 343.605 53.904 343.69 54C343.776 54.0853 343.818 54.192 343.818 54.32C343.818 54.4373 343.776 54.5387 343.69 54.624C343.605 54.7093 343.498 54.752 343.37 54.752H339.642C339.514 54.752 339.402 54.7093 339.306 54.624C339.221 54.528 339.178 54.4213 339.178 54.304C339.178 54.176 339.221 54.0693 339.306 53.984C339.402 53.8987 339.514 53.856 339.642 53.856ZM341.29 51.6C341.429 51.6 341.541 51.648 341.626 51.744C341.722 51.84 341.77 51.952 341.77 52.08V60.112C341.77 60.4107 341.808 60.6347 341.882 60.784C341.968 60.9333 342.074 61.0347 342.202 61.088C342.33 61.1307 342.458 61.152 342.586 61.152C342.672 61.152 342.746 61.1413 342.81 61.12C342.885 61.088 342.965 61.072 343.05 61.072C343.146 61.072 343.226 61.1093 343.29 61.184C343.365 61.2587 343.402 61.3547 343.402 61.472C343.402 61.6213 343.317 61.7493 343.146 61.856C342.976 61.952 342.773 62 342.538 62C342.442 62 342.298 61.9947 342.106 61.984C341.914 61.9627 341.717 61.904 341.514 61.808C341.312 61.7013 341.141 61.52 341.002 61.264C340.874 61.008 340.81 60.64 340.81 60.16V52.08C340.81 51.952 340.853 51.84 340.938 51.744C341.034 51.648 341.152 51.6 341.29 51.6ZM346.52 61.52C346.52 61.648 346.472 61.76 346.376 61.856C346.28 61.952 346.168 62 346.04 62C345.901 62 345.784 61.952 345.688 61.856C345.603 61.76 345.56 61.648 345.56 61.52V54.16C345.56 54.032 345.603 53.92 345.688 53.824C345.784 53.728 345.901 53.68 346.04 53.68C346.179 53.68 346.291 53.728 346.376 53.824C346.472 53.92 346.52 54.032 346.52 54.16V61.52ZM346.04 52.608C345.816 52.608 345.645 52.56 345.528 52.464C345.421 52.3573 345.368 52.208 345.368 52.016V51.856C345.368 51.664 345.427 51.52 345.544 51.424C345.672 51.3173 345.843 51.264 346.056 51.264C346.259 51.264 346.413 51.3173 346.52 51.424C346.637 51.52 346.696 51.664 346.696 51.856V52.016C346.696 52.208 346.637 52.3573 346.52 52.464C346.413 52.56 346.253 52.608 346.04 52.608ZM352.694 53.76C353.355 53.76 353.921 53.936 354.39 54.288C354.859 54.6293 355.179 55.1413 355.35 55.824L355.126 55.888L355.222 55.6C355.361 55.28 355.59 54.9813 355.91 54.704C356.241 54.416 356.614 54.1867 357.03 54.016C357.446 53.8453 357.867 53.76 358.294 53.76C358.966 53.76 359.505 53.904 359.91 54.192C360.326 54.48 360.625 54.8693 360.806 55.36C360.998 55.84 361.094 56.384 361.094 56.992V61.52C361.094 61.648 361.046 61.76 360.95 61.856C360.865 61.952 360.753 62 360.614 62C360.475 62 360.358 61.952 360.262 61.856C360.177 61.76 360.134 61.648 360.134 61.52V57.04C360.134 56.6027 360.065 56.2027 359.926 55.84C359.787 55.4773 359.569 55.1893 359.27 54.976C358.971 54.7627 358.571 54.656 358.07 54.656C357.633 54.656 357.211 54.7627 356.806 54.976C356.411 55.1893 356.086 55.4773 355.83 55.84C355.585 56.2027 355.462 56.6027 355.462 57.04V61.52C355.462 61.648 355.414 61.76 355.318 61.856C355.233 61.952 355.121 62 354.982 62C354.843 62 354.726 61.952 354.63 61.856C354.545 61.76 354.502 61.648 354.502 61.52V56.992C354.502 56.5547 354.438 56.16 354.31 55.808C354.182 55.456 353.974 55.1787 353.686 54.976C353.398 54.7627 353.009 54.656 352.518 54.656C352.081 54.656 351.665 54.7627 351.27 54.976C350.886 55.1787 350.571 55.456 350.326 55.808C350.091 56.16 349.974 56.5547 349.974 56.992V61.52C349.974 61.648 349.926 61.76 349.83 61.856C349.734 61.952 349.622 62 349.494 62C349.345 62 349.227 61.952 349.142 61.856C349.057 61.76 349.014 61.648 349.014 61.52V54.352C349.014 54.224 349.057 54.112 349.142 54.016C349.238 53.92 349.355 53.872 349.494 53.872C349.633 53.872 349.745 53.92 349.83 54.016C349.926 54.112 349.974 54.224 349.974 54.352V55.84L349.542 56.432C349.574 56.112 349.675 55.792 349.846 55.472C350.027 55.152 350.262 54.864 350.55 54.608C350.838 54.352 351.163 54.1493 351.526 54C351.899 53.84 352.289 53.76 352.694 53.76ZM367.304 62.16C366.482 62.16 365.757 61.984 365.128 61.632C364.498 61.28 364.008 60.7893 363.656 60.16C363.304 59.5307 363.128 58.7947 363.128 57.952C363.128 57.0453 363.304 56.272 363.656 55.632C364.018 54.992 364.482 54.5013 365.048 54.16C365.624 53.808 366.232 53.632 366.872 53.632C367.341 53.632 367.794 53.7173 368.232 53.888C368.68 54.048 369.074 54.2933 369.416 54.624C369.768 54.944 370.045 55.3387 370.248 55.808C370.461 56.2773 370.578 56.8213 370.6 57.44C370.589 57.568 370.536 57.68 370.44 57.776C370.344 57.8613 370.232 57.904 370.104 57.904H363.688L363.496 57.04H369.8L369.592 57.232V56.912C369.549 56.4107 369.389 55.984 369.112 55.632C368.834 55.28 368.498 55.0133 368.104 54.832C367.709 54.6507 367.298 54.56 366.872 54.56C366.552 54.56 366.221 54.624 365.88 54.752C365.549 54.88 365.245 55.0827 364.968 55.36C364.701 55.6267 364.482 55.9733 364.312 56.4C364.141 56.816 364.056 57.312 364.056 57.888C364.056 58.5173 364.184 59.088 364.44 59.6C364.696 60.112 365.064 60.5173 365.544 60.816C366.034 61.1147 366.616 61.264 367.288 61.264C367.661 61.264 367.997 61.2107 368.296 61.104C368.594 60.9973 368.856 60.8587 369.08 60.688C369.304 60.5067 369.49 60.32 369.64 60.128C369.757 60.032 369.874 59.984 369.992 59.984C370.098 59.984 370.189 60.0267 370.264 60.112C370.349 60.1973 370.392 60.2933 370.392 60.4C370.392 60.528 370.338 60.64 370.232 60.736C369.912 61.12 369.496 61.456 368.984 61.744C368.472 62.0213 367.912 62.16 367.304 62.16Z" fill="#889096"/>
<path d="M464.816 36.1641V39.7383H468.391V39.8359L467.6 41.5156H464.816V44.2988L463.137 45.0898H463.039V41.5156H459.465V41.418L460.256 39.7383H463.039V36.9551L464.719 36.1641H464.816ZM480.246 48.3906V35.5781L477.863 36.8867V34.8848L482.102 32.8633H482.199V47.5117L480.344 48.3906H480.246ZM486.105 48V47.9023L486.896 46.2227L491.574 41.6914C493.228 40.168 494.055 38.8757 494.055 37.8145C494.055 37.0072 493.84 36.3431 493.41 35.8223C492.857 35.1517 492.098 34.8164 491.135 34.8164C490.223 34.8164 489.465 35.1517 488.859 35.8223C488.391 36.3431 488.156 36.9941 488.156 37.7754C488.156 38.2116 488.283 38.6445 488.537 39.0742L486.896 39.8652H486.799C486.402 39.1621 486.203 38.3906 486.203 37.5508C486.203 36.431 486.643 35.4056 487.521 34.4746C488.413 33.5306 489.618 33.0586 491.135 33.0586C492.652 33.0586 493.856 33.5306 494.748 34.4746C495.62 35.3991 496.057 36.5319 496.057 37.873C496.05 39.3379 495.171 40.8776 493.42 42.4922L489.25 46.2227H496.096V46.3203L495.305 48H486.105ZM501.574 43.3125C501.574 44.1849 501.809 44.8913 502.277 45.4316C502.857 46.1022 503.615 46.4375 504.553 46.4375C505.49 46.4375 506.249 46.1022 506.828 45.4316C507.297 44.8913 507.531 44.1849 507.531 43.3125V37.9414C507.531 37.069 507.297 36.3626 506.828 35.8223C506.249 35.1517 505.49 34.8164 504.553 34.8164C503.615 34.8164 502.857 35.1517 502.277 35.8223C501.809 36.3626 501.574 37.069 501.574 37.9414V43.3125ZM499.621 43.3125V37.9414C499.621 36.5286 500.061 35.373 500.939 34.4746C501.864 33.5306 503.068 33.0586 504.553 33.0586C506.037 33.0586 507.242 33.5306 508.166 34.4746C509.045 35.3665 509.484 36.5221 509.484 37.9414V43.3125C509.484 44.7253 509.045 45.8809 508.166 46.7793C507.242 47.7233 506.037 48.1953 504.553 48.1953C503.068 48.1953 501.864 47.7233 500.939 46.7793C500.061 45.8809 499.621 44.7253 499.621 43.3125ZM522.805 44.2891C522.805 43.2148 523.208 42.2806 524.016 41.4863C524.771 40.7507 525.718 40.3828 526.857 40.3828C527.984 40.3828 528.931 40.7507 529.699 41.4863C530.507 42.2676 530.91 43.2018 530.91 44.2891C530.91 45.3633 530.507 46.2975 529.699 47.0918C528.944 47.8275 527.997 48.1953 526.857 48.1953C525.731 48.1953 524.784 47.8275 524.016 47.0918C523.208 46.3105 522.805 45.3763 522.805 44.2891ZM528.342 45.9395C528.752 45.5879 528.957 45.0378 528.957 44.2891C528.957 43.5404 528.752 42.9935 528.342 42.6484C527.938 42.2969 527.443 42.1211 526.857 42.1211C526.271 42.1211 525.773 42.2969 525.363 42.6484C524.96 42.9935 524.758 43.5404 524.758 44.2891C524.758 45.0378 524.96 45.5879 525.363 45.9395C525.773 46.2845 526.271 46.457 526.857 46.457C527.443 46.457 527.938 46.2845 528.342 45.9395ZM512.902 36.9648C512.902 35.8906 513.306 34.9564 514.113 34.1621C514.868 33.4264 515.816 33.0586 516.955 33.0586C518.081 33.0586 519.029 33.4264 519.797 34.1621C520.604 34.9434 521.008 35.8776 521.008 36.9648C521.008 38.0391 520.604 38.9733 519.797 39.7676C519.042 40.5033 518.094 40.8711 516.955 40.8711C515.829 40.8711 514.882 40.5033 514.113 39.7676C513.306 38.9863 512.902 38.0521 512.902 36.9648ZM518.439 38.6152C518.85 38.2637 519.055 37.7135 519.055 36.9648C519.055 36.2161 518.85 35.6693 518.439 35.3242C518.036 34.9727 517.541 34.7969 516.955 34.7969C516.369 34.7969 515.871 34.9727 515.461 35.3242C515.057 35.6693 514.855 36.2161 514.855 36.9648C514.855 37.7135 515.057 38.2637 515.461 38.6152C515.871 38.9603 516.369 39.1328 516.955 39.1328C517.541 39.1328 518.036 38.9603 518.439 38.6152ZM519.133 48.3906L517.756 47.7266L524.68 32.8633H524.777L526.154 33.5273L519.23 48.3906H519.133Z" fill="black"/>
<rect x="579" y="316" width="80" height="80" rx="9" fill="white" fill-opacity="0.4"/>
<path d="M634.394 351.925C634.637 351.731 635 351.912 635 352.219V365C635 366.656 633.656 368 632 368H606C604.344 368 603 366.656 603 365V352.225C603 351.913 603.356 351.737 603.606 351.931C605.006 353.019 606.863 354.4 613.238 359.031C614.556 359.994 616.781 362.019 619 362.006C621.231 362.025 623.5 359.956 624.769 359.031C631.144 354.4 632.994 353.013 634.394 351.925ZM619 360C620.45 360.025 622.537 358.175 623.587 357.413C631.881 351.394 632.512 350.869 634.425 349.369C634.787 349.087 635 348.65 635 348.188V347C635 345.344 633.656 344 632 344H606C604.344 344 603 345.344 603 347V348.188C603 348.65 603.212 349.081 603.575 349.369C605.488 350.862 606.119 351.394 614.413 357.413C615.463 358.175 617.55 360.025 619 360Z" fill="black"/>
<circle cx="635" cy="344" r="4" fill="#00E340"/>
<defs>
<filter id="filter0_d_13_54" x="122.905" y="137" width="420.095" height="166.75" filterUnits="userSpaceOnUse" color-interpolation-filters="sRGB">
<feFlood flood-opacity="0" result="BackgroundImageFix"/>
<feColorMatrix in="SourceAlpha" type="matrix" values="0 0 0 0 0 0 0 0 0 0 0 0 0 0 0 0 0 0 127 0" result="hardAlpha"/>
<feOffset dy="4"/>
<feGaussianBlur stdDeviation="5"/>
<feComposite in2="hardAlpha" operator="out"/>
<feColorMatrix type="matrix" values="0 0 0 0 1 0 0 0 0 1 0 0 0 0 1 0 0 0 1 0"/>
<feBlend mode="normal" in2="BackgroundImageFix" result="effect1_dropShadow_13_54"/>
<feBlend mode="normal" in="SourceGraphic" in2="effect1_dropShadow_13_54" result="shape"/>
</filter>
</defs>
</svg>
